<svg xmlns="http://www.w3.org/2000/svg" xmlns:xlink="http://www.w3.org/1999/xlink" width="200" zoomAndPan="magnify" viewBox="0 0 150 30.000001" height="40" preserveAspectRatio="xMidYMid meet" version="1.0"><defs><clipPath id="a044d446e8"><path d="M 119 17 L 139 17 L 139 26 L 119 26 Z M 119 17 " clip-rule="nonzero"/></clipPath><clipPath id="58fb2d0bfc"><path d="M 135.46875 34.03125 L 69.664062 16.75 L 74.875 -3.082031 L 140.675781 14.199219 Z M 135.46875 34.03125 " clip-rule="nonzero"/></clipPath><clipPath id="f03ae7a6cd"><path d="M 135.46875 34.03125 L 69.664062 16.75 L 74.875 -3.082031 L 140.675781 14.199219 Z M 135.46875 34.03125 " clip-rule="nonzero"/></clipPath><clipPath id="4eb4b6c5c1"><path d="M 132 19 L 138 19 L 138 21 L 132 21 Z M 132 19 " clip-rule="nonzero"/></clipPath><clipPath id="2996327e3b"><path d="M 135.46875 34.03125 L 69.664062 16.75 L 74.875 -3.082031 L 140.675781 14.199219 Z M 135.46875 34.03125 " clip-rule="nonzero"/></clipPath><clipPath id="630ebdeba0"><path d="M 135.46875 34.03125 L 69.664062 16.75 L 74.875 -3.082031 L 140.675781 14.199219 Z M 135.46875 34.03125 " clip-rule="nonzero"/></clipPath><clipPath id="389da807a7"><path d="M 124 16 L 137 16 L 137 21 L 124 21 Z M 124 16 " clip-rule="nonzero"/></clipPath><clipPath id="90a6dfa948"><path d="M 135.46875 34.03125 L 69.664062 16.75 L 74.875 -3.082031 L 140.675781 14.199219 Z M 135.46875 34.03125 " clip-rule="nonzero"/></clipPath><clipPath id="3e3801fb22"><path d="M 135.46875 34.03125 L 69.664062 16.75 L 74.875 -3.082031 L 140.675781 14.199219 Z M 135.46875 34.03125 " clip-rule="nonzero"/></clipPath><clipPath id="1797e42950"><path d="M 69 6 L 127 6 L 127 28 L 69 28 Z M 69 6 " clip-rule="nonzero"/></clipPath><clipPath id="d772c59190"><path d="M 135.46875 34.03125 L 69.664062 16.75 L 74.875 -3.082031 L 140.675781 14.199219 Z M 135.46875 34.03125 " clip-rule="nonzero"/></clipPath><clipPath id="d6d8d9f87d"><path d="M 135.46875 34.03125 L 69.664062 16.75 L 74.875 -3.082031 L 140.675781 14.199219 Z M 135.46875 34.03125 " clip-rule="nonzero"/></clipPath><clipPath id="cf99a2f7f1"><path d="M 107 15 L 109 15 L 109 17 L 107 17 Z M 107 15 " clip-rule="nonzero"/></clipPath><clipPath id="1c82f949f1"><path d="M 135.46875 34.03125 L 69.664062 16.75 L 74.875 -3.082031 L 140.675781 14.199219 Z M 135.46875 34.03125 " clip-rule="nonzero"/></clipPath><clipPath id="c251d7d489"><path d="M 135.46875 34.03125 L 69.664062 16.75 L 74.875 -3.082031 L 140.675781 14.199219 Z M 135.46875 34.03125 " clip-rule="nonzero"/></clipPath><clipPath id="4629f136c2"><path d="M 96 15 L 98 15 L 98 17 L 96 17 Z M 96 15 " clip-rule="nonzero"/></clipPath><clipPath id="8fd504bee6"><path d="M 135.46875 34.03125 L 69.664062 16.75 L 74.875 -3.082031 L 140.675781 14.199219 Z M 135.46875 34.03125 " clip-rule="nonzero"/></clipPath><clipPath id="2dd386eafb"><path d="M 135.46875 34.03125 L 69.664062 16.75 L 74.875 -3.082031 L 140.675781 14.199219 Z M 135.46875 34.03125 " clip-rule="nonzero"/></clipPath><clipPath id="bda34cfc52"><path d="M 123 17 L 125 17 L 125 18 L 123 18 Z M 123 17 " clip-rule="nonzero"/></clipPath><clipPath id="fae545dfe6"><path d="M 135.46875 34.03125 L 69.664062 16.75 L 74.875 -3.082031 L 140.675781 14.199219 Z M 135.46875 34.03125 " clip-rule="nonzero"/></clipPath><clipPath id="e410405f08"><path d="M 135.46875 34.03125 L 69.664062 16.75 L 74.875 -3.082031 L 140.675781 14.199219 Z M 135.46875 34.03125 " clip-rule="nonzero"/></clipPath><clipPath id="6ab9b22eba"><path d="M 7 5 L 28 5 L 28 15 L 7 15 Z M 7 5 " clip-rule="nonzero"/></clipPath><clipPath id="f880bf78f0"><path d="M 10.777344 -2.78125 L 78.382812 14.976562 L 72.9375 35.707031 L 5.332031 17.953125 Z M 10.777344 -2.78125 " clip-rule="nonzero"/></clipPath><clipPath id="0c20341b83"><path d="M 10.777344 -2.78125 L 78.382812 14.976562 L 72.9375 35.707031 L 5.332031 17.953125 Z M 10.777344 -2.78125 " clip-rule="nonzero"/></clipPath><clipPath id="40bd754f86"><path d="M 8 10 L 14 10 L 14 13 L 8 13 Z M 8 10 " clip-rule="nonzero"/></clipPath><clipPath id="cee31245fe"><path d="M 10.777344 -2.78125 L 78.382812 14.976562 L 72.9375 35.707031 L 5.332031 17.953125 Z M 10.777344 -2.78125 " clip-rule="nonzero"/></clipPath><clipPath id="bc0854703d"><path d="M 10.777344 -2.78125 L 78.382812 14.976562 L 72.9375 35.707031 L 5.332031 17.953125 Z M 10.777344 -2.78125 " clip-rule="nonzero"/></clipPath><clipPath id="8910b3b578"><path d="M 9 11 L 23 11 L 23 16 L 9 16 Z M 9 11 " clip-rule="nonzero"/></clipPath><clipPath id="1d18dc9625"><path d="M 10.777344 -2.78125 L 78.382812 14.976562 L 72.9375 35.707031 L 5.332031 17.953125 Z M 10.777344 -2.78125 " clip-rule="nonzero"/></clipPath><clipPath id="db6d1910b2"><path d="M 10.777344 -2.78125 L 78.382812 14.976562 L 72.9375 35.707031 L 5.332031 17.953125 Z M 10.777344 -2.78125 " clip-rule="nonzero"/></clipPath><clipPath id="4c4c3a111b"><path d="M 19 3 L 78 3 L 78 26 L 19 26 Z M 19 3 " clip-rule="nonzero"/></clipPath><clipPath id="863f0c7912"><path d="M 10.777344 -2.78125 L 78.382812 14.976562 L 72.9375 35.707031 L 5.332031 17.953125 Z M 10.777344 -2.78125 " clip-rule="nonzero"/></clipPath><clipPath id="3245219d8e"><path d="M 10.777344 -2.78125 L 78.382812 14.976562 L 72.9375 35.707031 L 5.332031 17.953125 Z M 10.777344 -2.78125 " clip-rule="nonzero"/></clipPath><clipPath id="f14b48a19c"><path d="M 38 15 L 40 15 L 40 17 L 38 17 Z M 38 15 " clip-rule="nonzero"/></clipPath><clipPath id="4a9c627669"><path d="M 10.777344 -2.78125 L 78.382812 14.976562 L 72.9375 35.707031 L 5.332031 17.953125 Z M 10.777344 -2.78125 " clip-rule="nonzero"/></clipPath><clipPath id="22041a701d"><path d="M 10.777344 -2.78125 L 78.382812 14.976562 L 72.9375 35.707031 L 5.332031 17.953125 Z M 10.777344 -2.78125 " clip-rule="nonzero"/></clipPath><clipPath id="7e4ed97345"><path d="M 49 14 L 51 14 L 51 16 L 49 16 Z M 49 14 " clip-rule="nonzero"/></clipPath><clipPath id="7de7ff18a5"><path d="M 10.777344 -2.78125 L 78.382812 14.976562 L 72.9375 35.707031 L 5.332031 17.953125 Z M 10.777344 -2.78125 " clip-rule="nonzero"/></clipPath><clipPath id="6df657e977"><path d="M 10.777344 -2.78125 L 78.382812 14.976562 L 72.9375 35.707031 L 5.332031 17.953125 Z M 10.777344 -2.78125 " clip-rule="nonzero"/></clipPath><clipPath id="0aa9e6b369"><path d="M 22 14 L 23 14 L 23 15 L 22 15 Z M 22 14 " clip-rule="nonzero"/></clipPath><clipPath id="3a5a342253"><path d="M 10.777344 -2.78125 L 78.382812 14.976562 L 72.9375 35.707031 L 5.332031 17.953125 Z M 10.777344 -2.78125 " clip-rule="nonzero"/></clipPath><clipPath id="b864fb8d6e"><path d="M 10.777344 -2.78125 L 78.382812 14.976562 L 72.9375 35.707031 L 5.332031 17.953125 Z M 10.777344 -2.78125 " clip-rule="nonzero"/></clipPath></defs><g clip-path="url(#a044d446e8)"><g clip-path="url(#58fb2d0bfc)"><g clip-path="url(#f03ae7a6cd)"><path fill="#895737" d="M 130.679688 21.167969 C 129.320312 21.078125 127.964844 20.757812 126.816406 19.996094 C 126.277344 19.632812 125.785156 19.207031 125.246094 18.84375 C 124.722656 18.488281 124.167969 18.183594 123.589844 17.933594 C 122.269531 17.363281 120.894531 17.082031 119.457031 17.085938 C 119.445312 17.082031 119.335938 17.09375 119.363281 17.132812 C 119.589844 17.550781 119.867188 17.929688 120.191406 18.277344 C 120.230469 18.316406 120.273438 18.355469 120.316406 18.390625 C 120.578125 18.632812 120.859375 18.847656 121.164062 19.03125 C 121.523438 19.253906 121.90625 19.453125 122.277344 19.667969 C 122.710938 19.921875 123.132812 20.207031 123.542969 20.5 C 125.175781 21.671875 126.628906 23.070312 128.230469 24.285156 C 129.132812 24.972656 130.117188 25.710938 131.242188 25.972656 C 131.261719 25.980469 131.445312 25.964844 131.378906 25.921875 C 129.785156 24.847656 128.917969 23.097656 127.722656 21.640625 C 127.425781 21.257812 127.078125 20.921875 126.6875 20.640625 C 126.261719 20.363281 125.808594 20.144531 125.324219 19.988281 C 124.308594 19.621094 123.257812 19.316406 122.207031 19.050781 C 121.636719 18.902344 121.035156 18.792969 120.5625 18.410156 C 120.53125 18.386719 120.503906 18.359375 120.472656 18.332031 C 120.1875 18.0625 119.988281 17.742188 119.871094 17.367188 C 119.859375 17.324219 119.753906 17.324219 119.699219 17.34375 L 119.589844 17.164062 C 120.277344 17.171875 120.953125 17.25 121.621094 17.398438 C 121.535156 17.414062 121.460938 17.445312 121.394531 17.496094 C 121.324219 17.542969 121.273438 17.605469 121.234375 17.679688 C 121.191406 17.753906 121.171875 17.835938 121.167969 17.917969 C 121.167969 18.003906 121.183594 18.082031 121.21875 18.160156 C 121.253906 18.238281 121.300781 18.300781 121.367188 18.355469 C 121.429688 18.410156 121.503906 18.445312 121.585938 18.464844 C 121.667969 18.484375 121.75 18.488281 121.832031 18.46875 C 121.914062 18.449219 121.988281 18.414062 122.054688 18.363281 C 122.121094 18.3125 122.171875 18.246094 122.207031 18.171875 C 122.242188 18.09375 122.261719 18.015625 122.261719 17.929688 C 122.261719 17.847656 122.242188 17.765625 122.203125 17.691406 C 122.164062 17.617188 122.113281 17.554688 122.046875 17.503906 C 122.476562 17.617188 122.902344 17.757812 123.3125 17.929688 C 123.914062 18.179688 124.484375 18.484375 125.023438 18.847656 C 125.570312 19.214844 126.066406 19.648438 126.621094 20.015625 C 128.804688 21.480469 131.550781 21.351562 134.054688 21.132812 C 135.550781 21.003906 137.050781 20.855469 138.558594 21.027344 C 138.585938 21.035156 138.75 21 138.65625 20.964844 L 137.707031 20.703125 C 137.898438 20.773438 138.085938 20.847656 138.277344 20.921875 C 135.742188 20.710938 133.21875 21.332031 130.679688 21.167969 Z M 121.410156 18.9375 C 121.925781 19.085938 122.441406 19.199219 122.957031 19.34375 C 123.511719 19.5 124.058594 19.667969 124.605469 19.847656 C 125.117188 20 125.609375 20.195312 126.089844 20.429688 C 126.558594 20.679688 126.96875 21.007812 127.320312 21.410156 C 127.964844 22.136719 128.476562 22.957031 129.046875 23.730469 C 129.617188 24.503906 130.230469 25.238281 131.007812 25.8125 C 130.128906 25.519531 129.335938 24.9375 128.605469 24.394531 C 127.8125 23.804688 127.058594 23.167969 126.304688 22.535156 C 125.550781 21.902344 124.816406 21.277344 124.039062 20.6875 C 123.292969 20.144531 122.515625 19.648438 121.707031 19.199219 C 121.511719 19.089844 121.3125 18.96875 121.121094 18.84375 C 121.210938 18.878906 121.308594 18.910156 121.410156 18.9375 Z M 121.410156 18.9375 " fill-opacity="1" fill-rule="nonzero"/></g></g></g><g clip-path="url(#4eb4b6c5c1)"><g clip-path="url(#2996327e3b)"><g clip-path="url(#630ebdeba0)"><path fill="#895737" d="M 135.558594 19.96875 C 134.582031 19.6875 133.589844 19.460938 132.589844 19.289062 L 137.707031 20.703125 C 137 20.433594 136.28125 20.1875 135.558594 19.96875 Z M 135.558594 19.96875 " fill-opacity="1" fill-rule="nonzero"/></g></g></g><g clip-path="url(#389da807a7)"><g clip-path="url(#90a6dfa948)"><g clip-path="url(#3e3801fb22)"><path fill="#895737" d="M 124.691406 18.339844 C 124.644531 18.328125 124.449219 18.363281 124.546875 18.394531 L 128.839844 19.738281 C 129.511719 19.949219 130.183594 20.183594 130.871094 20.332031 C 131.5 20.457031 132.132812 20.480469 132.769531 20.398438 C 133.523438 20.320312 134.269531 20.148438 135.03125 20.15625 C 135.152344 20.160156 135.152344 20.085938 135.03125 20.082031 C 133.71875 20.0625 132.445312 20.539062 131.132812 20.296875 C 130.433594 20.167969 129.757812 19.925781 129.082031 19.714844 L 127.03125 19.074219 L 125.425781 18.570312 C 126.03125 18.625 126.65625 18.582031 127.25 18.601562 C 128.179688 18.628906 129.121094 18.621094 130.03125 18.8125 C 130.863281 18.984375 131.722656 19.128906 132.589844 19.285156 L 131.289062 18.925781 C 131.378906 18.933594 131.460938 18.925781 131.546875 18.902344 C 131.613281 18.890625 131.675781 18.871094 131.742188 18.847656 C 132.550781 18.640625 133.253906 18.140625 134.003906 17.792969 C 134.914062 17.386719 135.84375 17.03125 136.792969 16.722656 C 136.921875 16.679688 136.757812 16.613281 136.6875 16.632812 C 135.433594 16.929688 134.167969 17.207031 132.921875 17.539062 C 132.332031 17.6875 131.753906 17.875 131.1875 18.097656 C 130.660156 18.3125 130.132812 18.578125 129.550781 18.582031 C 129.460938 18.582031 129.4375 18.640625 129.484375 18.671875 C 128.960938 18.617188 128.441406 18.578125 127.917969 18.550781 C 127.417969 18.523438 126.917969 18.507812 126.417969 18.507812 C 125.839844 18.503906 125.246094 18.535156 124.691406 18.339844 Z M 132.902344 17.660156 C 133.828125 17.410156 134.765625 17.195312 135.703125 16.976562 C 135.136719 17.183594 134.574219 17.394531 134.027344 17.640625 C 133.605469 17.832031 133.203125 18.046875 132.800781 18.265625 C 132.527344 18.421875 132.238281 18.554688 131.941406 18.664062 L 131.933594 18.652344 C 131.957031 18.644531 131.980469 18.636719 132.003906 18.625 C 132.058594 18.601562 132.023438 18.554688 131.984375 18.542969 C 131.960938 18.535156 131.9375 18.53125 131.914062 18.527344 L 132.054688 18.476562 C 132.128906 18.449219 132.105469 18.417969 132.058594 18.398438 C 132.078125 18.359375 131.972656 18.316406 131.914062 18.339844 L 131.902344 18.34375 L 131.894531 18.339844 L 131.742188 18.386719 C 131.746094 18.375 131.746094 18.367188 131.730469 18.355469 C 131.765625 18.324219 131.6875 18.273438 131.628906 18.273438 L 131.660156 18.265625 C 131.722656 18.246094 131.71875 18.21875 131.6875 18.199219 C 131.730469 18.183594 131.742188 18.167969 131.730469 18.148438 L 131.773438 18.128906 C 131.863281 18.082031 131.726562 18.042969 131.652344 18.050781 C 132.066406 17.910156 132.484375 17.777344 132.902344 17.660156 Z M 131.558594 18.089844 L 131.402344 18.15625 Z M 130.660156 18.449219 Z M 130.476562 18.515625 C 130.460938 18.53125 130.46875 18.546875 130.484375 18.558594 L 130.320312 18.597656 L 130.308594 18.605469 L 130.261719 18.589844 C 130.242188 18.589844 130.226562 18.59375 130.207031 18.59375 L 130.199219 18.59375 C 130.292969 18.578125 130.386719 18.546875 130.480469 18.515625 Z M 130.476562 18.515625 " fill-opacity="1" fill-rule="nonzero"/></g></g></g><g clip-path="url(#1797e42950)"><g clip-path="url(#d772c59190)"><g clip-path="url(#d6d8d9f87d)"><path fill="#895737" d="M 70.113281 16.269531 C 72.613281 16.238281 75.09375 16.023438 77.558594 15.628906 C 77.703125 15.605469 77.683594 15.5 77.585938 15.46875 C 78.140625 15.53125 78.652344 15.714844 79.121094 16.019531 C 79.746094 16.425781 80.253906 16.984375 80.78125 17.503906 C 81.84375 18.550781 82.996094 19.542969 84.304688 20.273438 C 84.953125 20.640625 85.636719 20.929688 86.355469 21.132812 C 86.519531 21.175781 86.679688 21.21875 86.84375 21.25 C 86.976562 21.277344 87.144531 21.328125 87.273438 21.273438 C 87.515625 21.160156 87.339844 20.738281 87.273438 20.5625 C 86.777344 19.191406 85.359375 18.546875 84.230469 17.792969 C 83.890625 17.539062 83.535156 17.3125 83.164062 17.113281 C 82.773438 16.921875 82.367188 16.890625 81.945312 16.839844 C 81.0625 16.734375 80.351562 16.140625 79.480469 16.003906 C 79.453125 16.003906 79.429688 16.007812 79.40625 16.015625 C 79.269531 15.921875 79.132812 15.835938 78.988281 15.753906 C 78.414062 15.445312 77.804688 15.296875 77.152344 15.308594 L 77.277344 15.277344 L 78.074219 15.132812 L 81.082031 14.820312 C 81.117188 14.820312 81.148438 14.808594 81.175781 14.785156 L 83.347656 14.46875 C 83.964844 14.59375 84.679688 14.742188 84.808594 14.808594 C 84.804688 14.824219 84.800781 14.835938 84.835938 14.851562 L 84.894531 14.878906 C 84.898438 14.886719 84.90625 14.890625 84.910156 14.894531 C 85.242188 15.089844 85.554688 15.304688 85.859375 15.539062 L 85.871094 15.554688 C 86.144531 15.832031 86.449219 16.066406 86.785156 16.257812 L 86.863281 16.296875 C 86.9375 16.351562 87.011719 16.402344 87.085938 16.453125 C 87.867188 16.972656 88.753906 17.238281 89.628906 17.570312 C 90.566406 17.921875 91.488281 18.324219 92.402344 18.742188 C 92.847656 18.945312 93.285156 19.164062 93.742188 19.34375 C 94.1875 19.507812 94.640625 19.636719 95.105469 19.722656 C 96.199219 19.949219 97.214844 20.425781 98.304688 20.648438 C 98.34375 20.660156 98.480469 20.625 98.417969 20.566406 C 97.613281 19.820312 96.824219 19.054688 96 18.332031 C 95.234375 17.660156 94.414062 17.125 93.429688 16.847656 C 92.925781 16.703125 92.410156 16.601562 91.898438 16.492188 C 91.355469 16.378906 90.8125 16.265625 90.269531 16.164062 C 89.21875 15.960938 88.15625 15.84375 87.082031 15.8125 C 86.914062 15.820312 86.746094 15.800781 86.582031 15.761719 C 86.429688 15.703125 86.292969 15.617188 86.175781 15.5 C 85.992188 15.308594 85.796875 15.132812 85.589844 14.964844 C 85.167969 14.664062 84.699219 14.484375 84.183594 14.429688 L 83.851562 14.394531 L 84.285156 14.332031 L 84.945312 14.28125 C 84.960938 14.285156 84.980469 14.289062 85 14.289062 C 86.019531 14.296875 87.03125 14.242188 88.042969 14.125 C 88.148438 14.113281 88.167969 14.0625 88.140625 14.023438 L 88.511719 14.015625 C 89.371094 14.179688 90.238281 14.253906 91.113281 14.242188 C 92.242188 14.332031 93.371094 14.382812 94.503906 14.398438 C 95.601562 14.507812 96.617188 14.847656 97.5625 15.417969 C 98.03125 15.6875 98.457031 16.015625 98.835938 16.402344 C 99.199219 16.796875 99.207031 17.296875 99.253906 17.800781 C 99.316406 18.320312 99.441406 18.820312 99.625 19.308594 C 99.769531 19.804688 99.984375 20.269531 100.261719 20.703125 C 100.84375 21.53125 101.8125 21.929688 102.636719 22.464844 C 103.675781 23.140625 104.46875 24.101562 105.25 25.050781 C 105.292969 25.105469 105.472656 25.089844 105.433594 24.996094 C 104.894531 23.597656 104.667969 22.117188 104.308594 20.671875 C 104.148438 20.015625 103.980469 19.320312 103.625 18.734375 C 103.476562 18.488281 103.289062 18.277344 103.0625 18.101562 C 102.765625 17.910156 102.445312 17.777344 102.101562 17.703125 C 101.207031 17.46875 100.3125 17.234375 99.417969 16.996094 C 99.402344 16.996094 99.386719 16.996094 99.371094 17 C 99.320312 16.773438 99.222656 16.566406 99.078125 16.386719 C 98.71875 15.992188 98.308594 15.660156 97.84375 15.390625 C 97.101562 14.921875 96.300781 14.59375 95.441406 14.402344 C 95.691406 14.402344 95.941406 14.394531 96.1875 14.398438 L 96.347656 14.394531 C 96.589844 14.410156 96.832031 14.421875 97.078125 14.429688 C 97.878906 14.5 99.691406 14.53125 99.679688 14.515625 L 100.132812 14.539062 C 100.160156 14.558594 100.191406 14.566406 100.222656 14.5625 L 101.636719 14.664062 C 101.671875 14.6875 101.710938 14.695312 101.75 14.695312 L 102.023438 14.710938 C 102.21875 14.761719 102.414062 14.816406 102.601562 14.886719 C 102.960938 15.015625 103.3125 15.167969 103.652344 15.347656 C 105.351562 16.917969 107.085938 18.457031 108.890625 19.910156 C 109.359375 20.289062 109.835938 20.660156 110.3125 21.027344 C 110.777344 21.378906 111.261719 21.714844 111.695312 22.105469 C 112.5 22.875 112.957031 23.898438 113.621094 24.769531 C 114.125 25.425781 114.71875 26.097656 114.964844 26.898438 L 115.074219 27.484375 C 115.085938 27.554688 115.277344 27.558594 115.273438 27.484375 C 115.261719 27.285156 115.222656 27.089844 115.167969 26.898438 C 115.050781 26.28125 114.933594 25.660156 114.820312 25.042969 C 114.683594 24.324219 114.5625 23.59375 114.253906 22.925781 C 113.738281 21.816406 112.816406 20.972656 111.90625 20.191406 C 111.4375 19.789062 110.960938 19.394531 110.511719 18.96875 C 110.417969 18.820312 110.3125 18.679688 110.203125 18.542969 C 109.511719 17.679688 108.558594 17.082031 107.53125 16.695312 C 106.894531 16.464844 106.242188 16.296875 105.570312 16.203125 C 105.542969 16.195312 105.433594 16.214844 105.441406 16.253906 C 105.15625 16.078125 104.871094 15.902344 104.582031 15.730469 C 104.328125 15.578125 104.074219 15.433594 103.8125 15.300781 L 103.589844 15.089844 C 103.527344 15.058594 103.46875 15.0625 103.410156 15.101562 C 103.316406 15.058594 103.21875 15.015625 103.121094 14.972656 C 102.929688 14.894531 102.742188 14.828125 102.539062 14.761719 L 104.15625 14.867188 C 104.382812 14.886719 104.605469 14.90625 104.832031 14.929688 C 104.835938 14.957031 104.863281 14.980469 104.9375 14.988281 L 107.453125 15.304688 C 107.496094 15.378906 107.550781 15.4375 107.621094 15.484375 C 107.691406 15.53125 107.769531 15.5625 107.855469 15.570312 C 107.9375 15.582031 108.019531 15.574219 108.101562 15.542969 C 108.179688 15.515625 108.25 15.472656 108.308594 15.410156 L 109.402344 15.546875 C 109.441406 15.550781 109.484375 15.546875 109.519531 15.527344 L 109.597656 15.535156 C 109.585938 15.535156 109.578125 15.542969 109.570312 15.550781 L 109.546875 15.554688 C 109.425781 15.578125 109.578125 15.617188 109.625 15.617188 L 109.785156 15.609375 C 110.304688 15.734375 110.746094 16.054688 111.214844 16.296875 C 111.617188 16.503906 112.039062 16.640625 112.480469 16.714844 C 112.882812 16.777344 113.289062 16.789062 113.691406 16.742188 C 114.300781 17.292969 116.023438 17.660156 116.84375 17.707031 C 117.246094 17.734375 117.644531 17.695312 118.035156 17.585938 C 118.445312 17.457031 118.847656 17.308594 119.242188 17.136719 C 119.679688 16.972656 120.128906 16.871094 120.597656 16.839844 C 121 16.808594 121.390625 16.726562 121.773438 16.601562 C 122.535156 16.347656 123.242188 15.953125 123.976562 15.632812 C 124.417969 15.4375 124.867188 15.285156 125.332031 15.171875 C 125.808594 15.054688 126.285156 14.945312 126.714844 14.691406 C 126.792969 14.640625 126.6875 14.601562 126.640625 14.597656 C 125.078125 14.496094 123.53125 14.769531 121.976562 14.886719 C 121.171875 14.949219 120.367188 14.949219 119.5625 14.882812 C 119.183594 14.84375 118.800781 14.835938 118.421875 14.863281 C 118.332031 14.871094 118.242188 14.882812 118.152344 14.898438 C 118.546875 14.796875 118.933594 14.675781 119.316406 14.53125 C 119.777344 14.347656 120.226562 14.132812 120.660156 13.882812 C 121.675781 13.316406 122.613281 12.597656 123.542969 11.890625 C 123.601562 11.847656 123.445312 11.839844 123.429688 11.839844 C 122.96875 11.886719 122.523438 11.984375 122.089844 12.140625 C 121.628906 12.277344 121.160156 12.378906 120.683594 12.453125 C 119.738281 12.597656 118.78125 12.648438 117.832031 12.757812 C 116.90625 12.867188 116.007812 13.078125 115.136719 13.398438 C 114.671875 13.570312 114.207031 13.753906 113.746094 13.910156 C 113.289062 14.066406 112.816406 14.191406 112.355469 14.351562 C 111.886719 14.527344 111.429688 14.738281 110.984375 14.980469 C 110.617188 15.1875 110.230469 15.355469 109.828125 15.484375 L 109.726562 15.476562 L 109.589844 15.460938 C 109.601562 15.425781 109.578125 15.390625 109.488281 15.378906 L 108.421875 15.246094 C 108.433594 15.222656 108.445312 15.195312 108.453125 15.164062 C 108.496094 15 108.472656 14.847656 108.371094 14.707031 C 108.273438 14.566406 108.140625 14.492188 107.96875 14.476562 C 107.796875 14.464844 107.652344 14.519531 107.535156 14.640625 C 107.414062 14.761719 107.363281 14.910156 107.382812 15.078125 C 106.710938 14.976562 106.042969 14.890625 105.375 14.816406 C 105.347656 14.78125 105.316406 14.765625 105.273438 14.769531 L 102.050781 14.535156 C 102.015625 14.488281 101.96875 14.46875 101.910156 14.472656 L 101.195312 14.433594 C 100.222656 14.234375 99.242188 14.109375 98.253906 14.054688 L 98.042969 14.046875 C 99.300781 13.832031 100.71875 13.597656 101.1875 13.597656 C 101.699219 13.621094 102.207031 13.566406 102.710938 13.441406 C 103.238281 13.289062 103.730469 13.039062 104.246094 12.847656 C 105.257812 12.46875 106.257812 12.050781 107.03125 11.261719 C 107.425781 10.859375 107.667969 10.371094 107.90625 9.867188 C 108.117188 9.382812 108.382812 8.925781 108.699219 8.503906 C 109.4375 7.550781 110.421875 6.828125 111.382812 6.121094 C 111.4375 6.082031 111.25 6.066406 111.210938 6.089844 C 110.355469 6.597656 109.4375 6.996094 108.5625 7.46875 C 107.753906 7.910156 107.003906 8.433594 106.3125 9.046875 C 105.636719 9.636719 104.992188 10.261719 104.257812 10.78125 C 103.902344 11.035156 103.523438 11.25 103.125 11.429688 C 102.710938 11.609375 102.273438 11.722656 101.847656 11.878906 C 101.410156 12.019531 101.019531 12.246094 100.679688 12.554688 C 100.359375 12.863281 100.105469 13.199219 99.699219 13.398438 C 99.554688 13.460938 99.410156 13.535156 99.273438 13.617188 C 99.085938 13.648438 98.226562 13.855469 97.464844 14.042969 C 97.03125 14.046875 96.601562 14.066406 96.167969 14.085938 C 96.25 14.054688 96.320312 14.007812 96.378906 13.941406 C 96.4375 13.878906 96.480469 13.804688 96.503906 13.71875 C 96.527344 13.636719 96.53125 13.550781 96.511719 13.464844 C 96.496094 13.378906 96.460938 13.300781 96.40625 13.234375 C 96.351562 13.164062 96.285156 13.113281 96.207031 13.074219 C 96.128906 13.039062 96.042969 13.023438 95.957031 13.023438 C 95.871094 13.027344 95.789062 13.050781 95.710938 13.09375 C 95.636719 13.136719 95.574219 13.191406 95.523438 13.265625 C 95.476562 13.339844 95.445312 13.417969 95.433594 13.503906 C 95.421875 13.589844 95.433594 13.675781 95.460938 13.757812 C 95.492188 13.839844 95.539062 13.910156 95.601562 13.96875 C 95.667969 14.03125 95.738281 14.074219 95.824219 14.097656 C 95.613281 14.105469 95.402344 14.109375 95.1875 14.109375 L 95.128906 14.105469 C 95.148438 14.0625 94.964844 13.960938 94.90625 13.957031 L 92.015625 13.859375 C 91.75 13.816406 91.042969 13.796875 91.175781 13.820312 C 91.332031 13.851562 91.488281 13.875 91.644531 13.902344 C 91.640625 13.90625 91.640625 13.910156 91.640625 13.914062 C 91.550781 13.910156 90.464844 13.820312 90.160156 13.804688 L 89.800781 13.777344 C 89.753906 13.773438 89.707031 13.773438 89.660156 13.789062 L 89.648438 13.785156 C 90.582031 13.300781 91.53125 12.835938 92.5625 12.582031 C 93.597656 12.328125 94.671875 12.214844 95.714844 11.957031 C 96.632812 11.734375 97.550781 11.386719 98.289062 10.777344 C 99.046875 10.152344 99.5625 9.300781 100.230469 8.585938 C 100.625 8.179688 101.066406 7.832031 101.554688 7.539062 C 102.035156 7.261719 102.480469 6.9375 102.894531 6.566406 C 102.96875 6.492188 102.808594 6.4375 102.753906 6.464844 C 101.578125 7.039062 100.371094 7.542969 99.136719 7.980469 C 98.511719 8.203125 97.882812 8.402344 97.246094 8.585938 C 96.863281 8.699219 96.339844 8.851562 96.222656 9.273438 C 95.78125 9.136719 95.316406 9.304688 94.914062 9.488281 C 94.410156 9.714844 93.921875 9.972656 93.453125 10.265625 C 92.988281 10.554688 92.582031 10.917969 92.238281 11.351562 C 91.898438 11.816406 91.59375 12.308594 91.332031 12.824219 C 90.695312 13.082031 90.070312 13.375 89.464844 13.703125 C 89.421875 13.722656 89.414062 13.753906 89.421875 13.78125 L 89.085938 13.769531 C 89.039062 13.765625 89 13.777344 88.964844 13.804688 L 88.269531 13.738281 C 88.242188 13.734375 88.21875 13.738281 88.191406 13.742188 L 87.988281 13.714844 C 87.894531 13.703125 87.722656 13.796875 87.8125 13.855469 L 86.273438 13.878906 C 86.195312 13.882812 86.152344 13.90625 86.132812 13.9375 L 85.910156 13.960938 L 85.761719 13.964844 C 84.917969 13.945312 84.078125 13.964844 83.238281 14.027344 C 83.195312 14.03125 83.082031 14.035156 83.046875 14.035156 C 82.273438 14.007812 81.511719 14.113281 80.773438 14.347656 C 80.761719 14.351562 80.75 14.355469 80.742188 14.359375 L 80.429688 14.40625 C 80.964844 14.0625 81.519531 13.726562 82.128906 13.550781 C 82.171875 13.5625 82.214844 13.5625 82.257812 13.554688 C 82.308594 13.527344 82.363281 13.507812 82.414062 13.484375 C 82.554688 13.457031 82.695312 13.441406 82.839844 13.4375 C 83.597656 13.40625 84.417969 13.550781 85.101562 13.132812 C 85.445312 12.917969 85.710938 12.605469 86.007812 12.332031 C 86.3125 12.058594 86.636719 11.816406 86.988281 11.605469 C 87.679688 11.195312 88.398438 10.847656 89.144531 10.558594 C 89.988281 10.207031 90.839844 9.875 91.636719 9.425781 C 91.738281 9.371094 91.554688 9.339844 91.519531 9.351562 L 87.175781 10.480469 C 86.519531 10.648438 85.847656 10.800781 85.226562 11.074219 C 84.660156 11.328125 84.140625 11.65625 83.660156 12.054688 C 83.136719 12.488281 82.636719 12.953125 82.160156 13.441406 C 81.457031 13.613281 80.832031 13.996094 80.21875 14.390625 C 80.183594 14.410156 80.207031 14.429688 80.257812 14.441406 L 78.191406 14.742188 C 78.167969 14.738281 78.148438 14.738281 78.125 14.742188 L 77.949219 14.777344 L 76.890625 14.933594 C 76.847656 14.855469 76.785156 14.832031 76.699219 14.855469 L 74.046875 15.402344 C 73.886719 15.433594 73.445312 15.582031 73.476562 15.625 C 73.042969 15.6875 72.609375 15.75 72.175781 15.8125 C 71.476562 15.90625 70.773438 16.003906 70.074219 16.097656 C 69.890625 16.117188 69.964844 16.265625 70.113281 16.269531 Z M 81.488281 16.902344 C 81.855469 16.996094 82.246094 16.980469 82.617188 17.070312 C 82.996094 17.179688 83.34375 17.355469 83.65625 17.59375 C 84.257812 18.007812 84.890625 18.375 85.492188 18.789062 C 86.042969 19.164062 86.5625 19.617188 86.894531 20.207031 C 86.972656 20.34375 87.035156 20.484375 87.085938 20.628906 C 87.121094 20.730469 87.257812 21.042969 87.183594 21.140625 C 87.109375 21.238281 86.757812 21.101562 86.664062 21.078125 C 86.480469 21.03125 86.296875 20.980469 86.113281 20.921875 C 85.417969 20.691406 84.761719 20.386719 84.136719 20.007812 C 82.886719 19.261719 81.792969 18.277344 80.761719 17.246094 L 80.382812 16.867188 C 80.941406 17.238281 81.53125 17.554688 82.152344 17.820312 C 82.671875 18.042969 83.21875 18.207031 83.71875 18.46875 C 84.1875 18.71875 84.609375 19.027344 84.984375 19.402344 C 85.402344 19.816406 85.78125 20.261719 86.121094 20.738281 C 86.167969 20.804688 86.359375 20.761719 86.292969 20.671875 C 85.695312 19.851562 85.015625 19.0625 84.140625 18.53125 C 83.675781 18.269531 83.195312 18.054688 82.691406 17.882812 C 82.152344 17.675781 81.636719 17.429688 81.132812 17.144531 C 80.652344 16.871094 80.195312 16.558594 79.761719 16.210938 C 80.351562 16.390625 80.882812 16.742188 81.488281 16.898438 Z M 86.558594 15.882812 C 86.777344 15.921875 87 15.9375 87.222656 15.933594 C 87.515625 15.941406 87.808594 15.957031 88.101562 15.980469 C 88.644531 16.027344 89.183594 16.101562 89.71875 16.191406 C 90.777344 16.363281 91.832031 16.582031 92.875 16.828125 C 93.386719 16.9375 93.878906 17.109375 94.347656 17.339844 C 94.808594 17.582031 95.234375 17.878906 95.628906 18.21875 C 96.484375 18.9375 97.285156 19.726562 98.097656 20.488281 C 97.234375 20.273438 96.417969 19.90625 95.550781 19.707031 C 95.058594 19.613281 94.574219 19.496094 94.097656 19.347656 C 93.628906 19.183594 93.179688 18.96875 92.730469 18.753906 C 91.859375 18.355469 90.988281 17.96875 90.101562 17.621094 C 89.253906 17.289062 88.355469 17.042969 87.5625 16.585938 C 88.09375 16.738281 88.636719 16.832031 89.1875 16.871094 C 90.105469 16.953125 91.050781 16.957031 91.941406 17.226562 C 92.835938 17.496094 93.484375 18.078125 94.207031 18.617188 C 95.019531 19.230469 95.9375 19.582031 96.894531 19.902344 C 96.972656 19.921875 97.121094 19.847656 96.996094 19.804688 C 96.109375 19.507812 95.238281 19.191406 94.476562 18.632812 C 93.804688 18.140625 93.1875 17.570312 92.402344 17.253906 C 90.722656 16.585938 88.796875 17.050781 87.144531 16.289062 C 87.101562 16.269531 87.058594 16.25 87.019531 16.226562 C 86.859375 16.113281 86.703125 15.996094 86.546875 15.878906 Z M 104.125 22.691406 C 103.6875 22.414062 103.375 22.035156 103.191406 21.554688 C 103.015625 21.074219 103.070312 20.546875 102.800781 20.097656 C 102.335938 19.328125 101.382812 19.015625 100.703125 18.476562 C 100.25 18.113281 99.875 17.6875 99.570312 17.195312 L 101.667969 17.746094 C 102.03125 17.839844 102.421875 17.914062 102.757812 18.101562 C 103.046875 18.269531 103.273438 18.496094 103.441406 18.785156 C 103.785156 19.339844 103.945312 20.003906 104.101562 20.628906 C 104.277344 21.316406 104.414062 22.015625 104.574219 22.703125 C 104.710938 23.324219 104.878906 23.9375 105.074219 24.542969 C 104.488281 23.84375 103.878906 23.160156 103.144531 22.613281 C 102.3125 21.988281 101.257812 21.625 100.582031 20.808594 C 100.226562 20.378906 100.027344 19.847656 99.847656 19.324219 C 99.648438 18.800781 99.515625 18.261719 99.457031 17.703125 C 99.445312 17.570312 99.433594 17.4375 99.421875 17.304688 C 99.65625 17.683594 99.9375 18.027344 100.265625 18.335938 C 100.644531 18.664062 101.050781 18.953125 101.488281 19.199219 C 101.875 19.441406 102.285156 19.6875 102.550781 20.070312 C 102.871094 20.519531 102.804688 21.078125 102.992188 21.578125 C 103.183594 22.09375 103.515625 22.5 103.980469 22.792969 C 104.058594 22.847656 104.226562 22.761719 104.125 22.691406 Z M 106.085938 16.816406 C 106.46875 17.113281 106.875 17.367188 107.308594 17.589844 C 107.359375 17.617188 107.550781 17.578125 107.449219 17.515625 L 106.289062 16.792969 C 106.101562 16.652344 105.921875 16.503906 105.75 16.34375 C 107.429688 16.648438 109.121094 17.382812 110.132812 18.75 C 110.097656 18.757812 110.074219 18.777344 110.089844 18.800781 C 110.644531 19.535156 110.949219 20.359375 111 21.28125 C 111.003906 21.351562 111.203125 21.351562 111.203125 21.277344 C 111.199219 20.621094 111.046875 20 110.75 19.417969 C 111.453125 20.035156 112.191406 20.613281 112.847656 21.285156 C 113.28125 21.71875 113.644531 22.203125 113.941406 22.738281 C 114.28125 23.382812 114.425781 24.078125 114.5625 24.785156 C 114.648438 25.234375 114.730469 25.683594 114.8125 26.132812 C 114.589844 25.765625 114.34375 25.417969 114.070312 25.082031 C 113.757812 24.6875 113.464844 24.277344 113.191406 23.851562 C 112.917969 23.375 112.609375 22.921875 112.265625 22.492188 C 111.867188 22.058594 111.425781 21.675781 110.941406 21.34375 C 110.449219 20.976562 109.964844 20.601562 109.484375 20.21875 C 108.519531 19.457031 107.578125 18.671875 106.65625 17.863281 C 105.835938 17.148438 105.027344 16.417969 104.222656 15.683594 C 104.847656 16.046875 105.46875 16.433594 106.085938 16.824219 Z M 110.179688 15.644531 L 110.101562 15.625 L 110.269531 15.632812 C 110.242188 15.625 110.210938 15.632812 110.179688 15.644531 Z M 118.519531 14.96875 C 118.921875 14.949219 119.324219 14.960938 119.722656 15.007812 C 121.179688 15.125 122.621094 14.933594 124.066406 14.792969 C 124.84375 14.707031 125.625 14.675781 126.40625 14.699219 C 125.734375 15.046875 124.941406 15.117188 124.242188 15.386719 C 123.515625 15.671875 122.832031 16.054688 122.109375 16.34375 C 121.742188 16.5 121.367188 16.613281 120.980469 16.6875 C 120.582031 16.757812 120.171875 16.746094 119.777344 16.84375 C 118.980469 17.035156 118.269531 17.5 117.445312 17.59375 C 116.519531 17.699219 114.820312 17.285156 114.0625 16.675781 C 114.398438 16.605469 114.714844 16.492188 115.019531 16.335938 C 115.152344 16.265625 115.277344 16.1875 115.402344 16.105469 C 115.429688 16.121094 115.460938 16.128906 115.496094 16.128906 C 116.617188 16.15625 117.734375 16.113281 118.847656 16.003906 C 119.40625 15.945312 119.953125 15.851562 120.507812 15.789062 C 120.808594 15.765625 121.109375 15.777344 121.40625 15.832031 C 121.632812 15.867188 121.855469 15.855469 122.078125 15.796875 C 122.359375 15.707031 122.636719 15.597656 122.910156 15.46875 L 123.875 15.0625 C 123.917969 15.042969 123.898438 15.007812 123.871094 14.988281 C 123.824219 14.964844 123.777344 14.964844 123.734375 14.988281 C 123.203125 15.207031 122.679688 15.453125 122.144531 15.648438 C 121.871094 15.746094 121.59375 15.765625 121.308594 15.707031 C 121.066406 15.667969 120.824219 15.660156 120.578125 15.675781 C 120.046875 15.722656 119.519531 15.824219 118.992188 15.886719 C 118.464844 15.945312 117.890625 15.988281 117.339844 16.007812 C 116.789062 16.03125 116.210938 16.042969 115.644531 16.03125 C 115.707031 15.941406 115.78125 15.863281 115.867188 15.792969 C 115.949219 15.738281 116.035156 15.683594 116.117188 15.632812 C 116.207031 15.585938 116.296875 15.542969 116.390625 15.507812 C 116.710938 15.382812 117.050781 15.285156 117.382812 15.191406 C 117.753906 15.078125 118.132812 15.003906 118.519531 14.964844 Z M 112.046875 14.578125 C 112.5 14.394531 112.957031 14.238281 113.425781 14.105469 C 113.898438 13.960938 114.359375 13.800781 114.820312 13.625 C 115.28125 13.449219 115.75 13.273438 116.21875 13.140625 C 116.675781 13.015625 117.132812 12.925781 117.601562 12.863281 C 118.527344 12.734375 119.464844 12.6875 120.390625 12.566406 C 120.890625 12.507812 121.382812 12.417969 121.867188 12.292969 C 122.339844 12.171875 122.800781 11.988281 123.285156 11.925781 C 121.730469 13.113281 120.136719 14.277344 118.222656 14.796875 C 117.757812 14.925781 117.289062 15.03125 116.835938 15.1875 C 116.648438 15.25 116.46875 15.324219 116.292969 15.414062 C 116.257812 15.425781 116.21875 15.441406 116.1875 15.453125 C 115.960938 15.539062 115.765625 15.664062 115.589844 15.828125 L 115.539062 15.859375 C 115.144531 16.164062 114.710938 16.394531 114.242188 16.554688 C 114.15625 16.578125 114.074219 16.601562 113.984375 16.625 C 113.953125 16.597656 113.816406 16.628906 113.738281 16.671875 C 113.4375 16.714844 113.140625 16.726562 112.835938 16.695312 C 112.292969 16.644531 111.78125 16.488281 111.300781 16.226562 C 110.980469 16.054688 110.664062 15.851562 110.332031 15.707031 L 110.777344 15.664062 C 111.050781 15.691406 111.320312 15.71875 111.597656 15.726562 C 112.144531 15.746094 112.683594 15.6875 113.21875 15.558594 C 114.324219 15.289062 115.351562 14.765625 116.359375 14.242188 C 116.417969 14.210938 116.230469 14.199219 116.199219 14.203125 C 115.242188 14.484375 114.277344 14.742188 113.304688 14.972656 C 113.25 14.957031 113.199219 14.953125 113.144531 14.960938 C 113.140625 14.964844 113.136719 14.964844 113.128906 14.96875 C 113.058594 14.996094 112.992188 15.027344 112.925781 15.0625 C 112.195312 15.234375 111.464844 15.390625 110.730469 15.53125 C 110.503906 15.527344 110.28125 15.515625 110.058594 15.492188 C 110.753906 15.277344 111.375 14.863281 112.050781 14.574219 Z M 113.339844 15.140625 C 113.378906 15.117188 113.421875 15.097656 113.464844 15.074219 C 113.503906 15.046875 113.460938 15.042969 113.421875 15.035156 C 114.222656 14.84375 115.019531 14.636719 115.816406 14.410156 C 114.933594 14.863281 114.03125 15.296875 113.066406 15.519531 C 112.871094 15.566406 112.679688 15.601562 112.480469 15.625 C 112.785156 15.503906 113.070312 15.351562 113.335938 15.164062 C 113.351562 15.148438 113.351562 15.140625 113.339844 15.136719 Z M 112.625 15.253906 C 112.605469 15.253906 112.585938 15.253906 112.5625 15.257812 L 112.433594 15.292969 L 112.40625 15.300781 C 112.386719 15.296875 112.363281 15.296875 112.339844 15.300781 L 111.621094 15.492188 C 111.609375 15.492188 111.601562 15.496094 111.59375 15.503906 C 111.449219 15.519531 111.300781 15.527344 111.152344 15.535156 C 111.667969 15.433594 112.183594 15.324219 112.695312 15.207031 C 112.671875 15.214844 112.644531 15.230469 112.625 15.25 Z M 112.308594 15.503906 Z M 112.167969 15.652344 C 111.882812 15.671875 111.597656 15.671875 111.3125 15.648438 L 111.167969 15.636719 L 111.355469 15.621094 C 111.378906 15.628906 111.40625 15.632812 111.429688 15.632812 L 111.613281 15.613281 C 111.65625 15.636719 111.703125 15.648438 111.753906 15.640625 L 111.886719 15.617188 C 111.914062 15.628906 111.945312 15.636719 111.972656 15.640625 C 112.03125 15.636719 112.085938 15.636719 112.144531 15.628906 C 112.15625 15.636719 112.171875 15.636719 112.183594 15.640625 C 112.171875 15.640625 112.167969 15.644531 112.167969 15.648438 Z M 100.242188 14.386719 L 99.609375 14.351562 C 99.621094 14.332031 99.621094 14.3125 99.609375 14.292969 C 99.824219 14.320312 100.035156 14.347656 100.246094 14.378906 Z M 99.203125 14.242188 L 98.703125 14.25 C 98.710938 14.234375 98.710938 14.21875 98.707031 14.199219 C 98.875 14.210938 99.042969 14.21875 99.210938 14.238281 Z M 100.226562 13.421875 C 100.574219 13.347656 100.914062 13.261719 101.246094 13.171875 C 101.914062 12.984375 102.566406 12.757812 103.203125 12.488281 C 104.308594 12.015625 105.492188 11.460938 106.253906 10.5 C 106.714844 9.917969 107.167969 9.347656 107.742188 8.871094 C 107.761719 8.855469 107.589844 8.820312 107.546875 8.855469 C 107.066406 9.261719 106.636719 9.71875 106.261719 10.222656 C 106.078125 10.472656 105.875 10.710938 105.65625 10.933594 C 105.425781 11.148438 105.175781 11.335938 104.902344 11.496094 C 103.875 12.121094 102.785156 12.613281 101.632812 12.96875 C 101.097656 13.140625 100.554688 13.28125 100 13.390625 C 100.238281 13.230469 100.449219 13.042969 100.632812 12.824219 C 100.933594 12.480469 101.292969 12.214844 101.710938 12.027344 C 102.121094 11.855469 102.550781 11.742188 102.96875 11.589844 C 103.371094 11.441406 103.75 11.253906 104.109375 11.023438 C 104.851562 10.554688 105.503906 9.957031 106.152344 9.375 C 106.835938 8.738281 107.578125 8.175781 108.375 7.695312 C 109.082031 7.289062 109.824219 6.953125 110.546875 6.578125 C 109.941406 7.019531 109.382812 7.511719 108.871094 8.058594 C 108.519531 8.433594 108.222656 8.851562 107.972656 9.300781 C 107.714844 9.792969 107.53125 10.300781 107.226562 10.765625 C 106.609375 11.6875 105.558594 12.253906 104.546875 12.636719 C 104.03125 12.832031 103.523438 13.042969 103.011719 13.246094 C 102.460938 13.449219 101.894531 13.546875 101.304688 13.539062 C 100.71875 13.539062 100.132812 13.539062 99.546875 13.585938 C 99.777344 13.527344 100 13.464844 100.230469 13.417969 Z M 97.605469 14.140625 C 97.804688 14.140625 98 14.144531 98.199219 14.15625 L 97.964844 14.171875 C 97.699219 14.179688 97.429688 14.1875 97.164062 14.191406 L 97.441406 14.148438 Z M 96.828125 14.195312 C 96.632812 14.195312 96.441406 14.195312 96.25 14.195312 L 96.101562 14.183594 C 96.398438 14.171875 96.691406 14.164062 96.984375 14.152344 Z M 93.085938 14.167969 C 93.089844 14.175781 93.09375 14.183594 93.097656 14.1875 L 92.613281 14.167969 C 92.59375 14.160156 92.574219 14.15625 92.554688 14.152344 L 92.433594 14.136719 C 92.65625 14.148438 92.875 14.164062 93.09375 14.171875 Z M 92.351562 11.5 C 92.65625 11.089844 93.023438 10.742188 93.445312 10.457031 C 93.863281 10.183594 94.296875 9.945312 94.75 9.734375 C 95.199219 9.519531 95.746094 9.210938 96.246094 9.445312 C 96.300781 9.46875 96.390625 9.445312 96.402344 9.378906 C 96.425781 9.09375 96.683594 8.941406 96.925781 8.84375 C 97.199219 8.734375 97.492188 8.667969 97.773438 8.582031 C 98.34375 8.40625 98.910156 8.21875 99.46875 8.019531 C 100.417969 7.675781 101.351562 7.285156 102.265625 6.863281 C 101.628906 7.335938 100.902344 7.6875 100.324219 8.234375 C 99.625 8.894531 99.125 9.730469 98.441406 10.40625 C 96.925781 11.894531 94.695312 11.941406 92.746094 12.382812 C 92.4375 12.453125 92.136719 12.539062 91.835938 12.640625 C 92.246094 12.339844 92.683594 12.082031 93.140625 11.867188 C 93.699219 11.605469 94.292969 11.445312 94.871094 11.230469 C 95.140625 11.136719 95.402344 11.019531 95.652344 10.878906 C 95.914062 10.714844 96.15625 10.527344 96.382812 10.316406 C 96.867188 9.898438 97.476562 9.753906 98.054688 9.523438 C 98.703125 9.261719 99.289062 8.902344 99.816406 8.441406 C 99.910156 8.359375 99.746094 8.273438 99.671875 8.339844 C 99.1875 8.761719 98.652344 9.101562 98.058594 9.351562 C 97.511719 9.582031 96.910156 9.710938 96.421875 10.066406 C 96.167969 10.25 95.957031 10.484375 95.691406 10.660156 C 95.433594 10.828125 95.15625 10.964844 94.867188 11.070312 C 94.296875 11.292969 93.703125 11.449219 93.144531 11.699219 C 92.636719 11.925781 92.160156 12.207031 91.710938 12.535156 C 91.902344 12.175781 92.117188 11.832031 92.359375 11.503906 Z M 85.152344 11.230469 C 85.769531 10.929688 86.441406 10.773438 87.101562 10.601562 L 89.226562 10.046875 L 91.082031 9.558594 C 89.765625 10.222656 88.335938 10.648438 87.058594 11.390625 C 86.722656 11.582031 86.40625 11.796875 86.105469 12.039062 C 85.785156 12.300781 85.511719 12.609375 85.199219 12.875 C 84.839844 13.167969 84.429688 13.320312 83.964844 13.328125 C 83.589844 13.347656 83.214844 13.320312 82.839844 13.332031 C 83.117188 13.253906 83.398438 13.191406 83.679688 13.136719 C 84.144531 13.039062 84.585938 12.890625 85.011719 12.683594 C 85.863281 12.253906 86.570312 11.601562 87.394531 11.121094 C 87.488281 11.0625 87.304688 11.019531 87.25 11.050781 C 86.429688 11.53125 85.726562 12.183594 84.875 12.621094 C 84.125 13.007812 83.269531 13.066406 82.484375 13.34375 C 83.285156 12.539062 84.128906 11.730469 85.160156 11.230469 Z M 75.742188 15.539062 C 75.777344 15.550781 75.808594 15.550781 75.84375 15.546875 L 76.3125 15.460938 C 76.335938 15.464844 76.359375 15.464844 76.382812 15.460938 C 76.484375 15.449219 76.589844 15.429688 76.691406 15.40625 C 76.71875 15.445312 76.757812 15.464844 76.808594 15.457031 C 77.039062 15.429688 77.273438 15.429688 77.507812 15.449219 L 75.523438 15.582031 C 75.59375 15.570312 75.671875 15.558594 75.75 15.542969 Z M 75.148438 15.550781 C 75.171875 15.578125 75.199219 15.59375 75.230469 15.601562 L 74.480469 15.652344 C 74.710938 15.617188 74.9375 15.582031 75.15625 15.554688 Z M 72.617188 15.921875 C 72.648438 15.9375 72.683594 15.945312 72.71875 15.941406 L 74.953125 15.796875 C 73.898438 15.910156 72.84375 15.992188 71.78125 16.042969 Z M 72.617188 15.921875 " fill-opacity="1" fill-rule="nonzero"/></g></g></g><g clip-path="url(#cf99a2f7f1)"><g clip-path="url(#1c82f949f1)"><g clip-path="url(#c251d7d489)"><path fill="#895737" d="M 107.675781 15.964844 C 107.636719 16.109375 107.65625 16.246094 107.734375 16.378906 C 107.808594 16.507812 107.921875 16.59375 108.066406 16.632812 C 108.214844 16.667969 108.351562 16.652344 108.480469 16.574219 C 108.613281 16.5 108.695312 16.386719 108.734375 16.242188 C 108.773438 16.09375 108.753906 15.957031 108.679688 15.824219 C 108.601562 15.695312 108.492188 15.609375 108.34375 15.574219 C 108.199219 15.535156 108.058594 15.554688 107.929688 15.628906 C 107.800781 15.707031 107.714844 15.816406 107.675781 15.964844 Z M 107.675781 15.964844 " fill-opacity="1" fill-rule="nonzero"/></g></g></g><g clip-path="url(#4629f136c2)"><g clip-path="url(#8fd504bee6)"><g clip-path="url(#2dd386eafb)"><path fill="#895737" d="M 97.023438 15.757812 C 96.878906 15.71875 96.742188 15.738281 96.609375 15.8125 C 96.480469 15.890625 96.394531 16 96.355469 16.148438 C 96.316406 16.292969 96.335938 16.429688 96.414062 16.5625 C 96.488281 16.691406 96.601562 16.777344 96.746094 16.816406 C 96.894531 16.851562 97.03125 16.835938 97.160156 16.757812 C 97.292969 16.683594 97.375 16.570312 97.414062 16.425781 C 97.453125 16.277344 97.433594 16.140625 97.359375 16.011719 C 97.28125 15.878906 97.171875 15.796875 97.023438 15.757812 Z M 97.023438 15.757812 " fill-opacity="1" fill-rule="nonzero"/></g></g></g><g clip-path="url(#bda34cfc52)"><g clip-path="url(#fae545dfe6)"><g clip-path="url(#e410405f08)"><path fill="#895737" d="M 123.9375 17.65625 C 124.007812 17.671875 124.078125 17.664062 124.140625 17.628906 C 124.207031 17.589844 124.246094 17.535156 124.265625 17.460938 C 124.285156 17.390625 124.277344 17.324219 124.238281 17.257812 C 124.199219 17.195312 124.144531 17.152344 124.074219 17.132812 C 124.003906 17.113281 123.933594 17.125 123.871094 17.160156 C 123.804688 17.199219 123.765625 17.253906 123.746094 17.324219 C 123.726562 17.398438 123.734375 17.464844 123.773438 17.53125 C 123.8125 17.59375 123.867188 17.636719 123.9375 17.65625 Z M 123.9375 17.65625 " fill-opacity="1" fill-rule="nonzero"/></g></g></g><g clip-path="url(#6ab9b22eba)"><g clip-path="url(#f880bf78f0)"><g clip-path="url(#0c20341b83)"><path fill="#895737" d="M 15.699219 10.414062 C 17.09375 10.507812 18.484375 10.835938 19.660156 11.621094 C 20.214844 11.988281 20.722656 12.425781 21.273438 12.800781 C 21.8125 13.164062 22.378906 13.476562 22.972656 13.734375 C 24.324219 14.320312 25.738281 14.609375 27.210938 14.605469 C 27.222656 14.609375 27.332031 14.597656 27.308594 14.554688 C 27.074219 14.128906 26.792969 13.738281 26.460938 13.382812 C 26.417969 13.34375 26.375 13.300781 26.328125 13.265625 C 26.0625 13.015625 25.773438 12.796875 25.460938 12.609375 C 25.089844 12.382812 24.699219 12.175781 24.320312 11.953125 C 23.871094 11.695312 23.441406 11.402344 23.019531 11.101562 C 21.347656 9.898438 19.855469 8.464844 18.210938 7.21875 C 17.285156 6.515625 16.277344 5.757812 15.125 5.488281 C 15.101562 5.480469 14.914062 5.496094 14.980469 5.539062 C 16.617188 6.644531 17.507812 8.4375 18.730469 9.933594 C 19.039062 10.324219 19.390625 10.667969 19.796875 10.957031 C 20.230469 11.242188 20.695312 11.464844 21.191406 11.628906 C 22.238281 12 23.3125 12.316406 24.390625 12.585938 C 24.976562 12.742188 25.589844 12.851562 26.078125 13.246094 C 26.109375 13.269531 26.136719 13.296875 26.167969 13.324219 C 26.460938 13.601562 26.667969 13.929688 26.785156 14.3125 C 26.800781 14.359375 26.90625 14.359375 26.960938 14.339844 L 27.074219 14.523438 C 26.371094 14.515625 25.679688 14.433594 24.992188 14.28125 C 25.078125 14.269531 25.15625 14.234375 25.226562 14.183594 C 25.292969 14.132812 25.347656 14.070312 25.390625 13.992188 C 25.429688 13.917969 25.453125 13.835938 25.453125 13.75 C 25.457031 13.664062 25.441406 13.582031 25.40625 13.503906 C 25.371094 13.421875 25.320312 13.355469 25.253906 13.300781 C 25.1875 13.246094 25.109375 13.207031 25.027344 13.1875 C 24.941406 13.167969 24.859375 13.167969 24.773438 13.183594 C 24.691406 13.203125 24.613281 13.238281 24.546875 13.292969 C 24.480469 13.347656 24.425781 13.414062 24.390625 13.492188 C 24.351562 13.570312 24.335938 13.652344 24.335938 13.738281 C 24.335938 13.824219 24.355469 13.90625 24.394531 13.980469 C 24.433594 14.058594 24.488281 14.125 24.554688 14.175781 C 24.113281 14.058594 23.679688 13.914062 23.253906 13.738281 C 22.640625 13.480469 22.054688 13.167969 21.503906 12.796875 C 20.9375 12.417969 20.429688 11.976562 19.863281 11.597656 C 17.625 10.09375 14.804688 10.230469 12.238281 10.453125 C 10.703125 10.585938 9.164062 10.738281 7.617188 10.5625 C 7.589844 10.554688 7.421875 10.585938 7.515625 10.625 L 8.492188 10.894531 C 8.296875 10.820312 8.101562 10.746094 7.90625 10.667969 C 10.507812 10.882812 13.097656 10.25 15.699219 10.414062 Z M 25.210938 12.703125 C 24.675781 12.550781 24.148438 12.4375 23.621094 12.285156 C 23.054688 12.128906 22.488281 11.957031 21.929688 11.769531 C 21.40625 11.613281 20.898438 11.414062 20.410156 11.175781 C 19.925781 10.917969 19.503906 10.582031 19.144531 10.167969 C 18.484375 9.421875 17.960938 8.582031 17.375 7.789062 C 16.792969 6.992188 16.160156 6.238281 15.363281 5.652344 C 16.265625 5.953125 17.078125 6.550781 17.828125 7.109375 C 18.640625 7.710938 19.414062 8.363281 20.1875 9.015625 C 20.960938 9.664062 21.714844 10.304688 22.511719 10.910156 C 23.277344 11.46875 24.074219 11.976562 24.902344 12.4375 C 25.105469 12.550781 25.308594 12.671875 25.503906 12.800781 C 25.414062 12.765625 25.3125 12.730469 25.210938 12.703125 Z M 25.210938 12.703125 " fill-opacity="1" fill-rule="nonzero"/></g></g></g><g clip-path="url(#40bd754f86)"><g clip-path="url(#cee31245fe)"><g clip-path="url(#bc0854703d)"><path fill="#895737" d="M 10.695312 11.648438 C 11.699219 11.9375 12.714844 12.167969 13.742188 12.34375 L 8.492188 10.894531 C 9.21875 11.171875 9.953125 11.421875 10.695312 11.648438 Z M 10.695312 11.648438 " fill-opacity="1" fill-rule="nonzero"/></g></g></g><g clip-path="url(#8910b3b578)"><g clip-path="url(#1d18dc9625)"><g clip-path="url(#db6d1910b2)"><path fill="#895737" d="M 21.84375 13.316406 C 21.886719 13.328125 22.089844 13.292969 21.988281 13.261719 L 17.585938 11.882812 C 16.894531 11.667969 16.210938 11.425781 15.503906 11.273438 C 14.859375 11.144531 14.207031 11.121094 13.554688 11.207031 C 12.785156 11.289062 12.019531 11.464844 11.234375 11.453125 C 11.113281 11.449219 11.113281 11.527344 11.234375 11.527344 C 12.582031 11.550781 13.890625 11.0625 15.234375 11.308594 C 15.953125 11.441406 16.644531 11.691406 17.339844 11.90625 L 19.445312 12.566406 L 21.085938 13.082031 C 20.46875 13.023438 19.828125 13.070312 19.214844 13.050781 C 18.265625 13.019531 17.296875 13.03125 16.363281 12.835938 C 15.511719 12.65625 14.628906 12.511719 13.742188 12.347656 L 15.074219 12.714844 C 14.984375 12.707031 14.898438 12.71875 14.8125 12.742188 C 14.742188 12.753906 14.675781 12.773438 14.609375 12.796875 C 13.78125 13.007812 13.058594 13.519531 12.289062 13.878906 C 11.355469 14.296875 10.402344 14.660156 9.429688 14.976562 C 9.296875 15.019531 9.464844 15.085938 9.535156 15.070312 C 10.824219 14.761719 12.121094 14.480469 13.402344 14.140625 C 14.003906 13.988281 14.597656 13.796875 15.179688 13.566406 C 15.71875 13.347656 16.261719 13.070312 16.855469 13.066406 C 16.949219 13.066406 16.972656 13.007812 16.925781 12.976562 C 17.460938 13.03125 17.996094 13.074219 18.53125 13.101562 C 19.042969 13.128906 19.558594 13.144531 20.070312 13.144531 C 20.664062 13.148438 21.273438 13.117188 21.84375 13.316406 Z M 13.421875 14.011719 C 12.46875 14.269531 11.507812 14.492188 10.546875 14.714844 C 11.128906 14.503906 11.703125 14.289062 12.265625 14.035156 C 12.695312 13.839844 13.109375 13.617188 13.523438 13.394531 C 13.804688 13.234375 14.101562 13.097656 14.40625 12.984375 L 14.410156 12.996094 C 14.386719 13.003906 14.363281 13.015625 14.339844 13.023438 C 14.285156 13.050781 14.324219 13.097656 14.363281 13.109375 C 14.386719 13.117188 14.410156 13.121094 14.433594 13.128906 L 14.289062 13.175781 C 14.214844 13.203125 14.238281 13.238281 14.285156 13.257812 C 14.265625 13.296875 14.371094 13.339844 14.433594 13.320312 L 14.445312 13.316406 L 14.453125 13.316406 L 14.609375 13.269531 C 14.605469 13.28125 14.605469 13.292969 14.625 13.300781 C 14.585938 13.335938 14.664062 13.382812 14.722656 13.382812 L 14.691406 13.394531 C 14.628906 13.414062 14.636719 13.441406 14.664062 13.460938 C 14.621094 13.476562 14.609375 13.496094 14.621094 13.511719 L 14.578125 13.53125 C 14.488281 13.582031 14.625 13.621094 14.699219 13.613281 C 14.277344 13.757812 13.851562 13.894531 13.421875 14.011719 Z M 14.796875 13.574219 L 14.957031 13.507812 Z M 15.71875 13.203125 Z M 15.90625 13.136719 C 15.925781 13.125 15.914062 13.105469 15.902344 13.09375 L 16.066406 13.050781 L 16.082031 13.046875 L 16.128906 13.058594 C 16.148438 13.0625 16.164062 13.058594 16.183594 13.054688 L 16.191406 13.058594 C 16.097656 13.074219 16 13.105469 15.90625 13.136719 Z M 15.90625 13.136719 " fill-opacity="1" fill-rule="nonzero"/></g></g></g><g clip-path="url(#4c4c3a111b)"><g clip-path="url(#863f0c7912)"><g clip-path="url(#3245219d8e)"><path fill="#895737" d="M 77.824219 15.441406 C 75.261719 15.476562 72.71875 15.695312 70.1875 16.097656 C 70.039062 16.121094 70.058594 16.230469 70.164062 16.261719 C 69.589844 16.199219 69.066406 16.011719 68.585938 15.699219 C 67.945312 15.28125 67.425781 14.710938 66.882812 14.175781 C 65.792969 13.101562 64.609375 12.085938 63.265625 11.332031 C 62.601562 10.957031 61.902344 10.664062 61.164062 10.453125 C 60.996094 10.410156 60.832031 10.367188 60.664062 10.332031 C 60.527344 10.304688 60.355469 10.25 60.222656 10.308594 C 59.976562 10.425781 60.15625 10.855469 60.222656 11.039062 C 60.730469 12.441406 62.1875 13.105469 63.347656 13.878906 C 63.695312 14.136719 64.058594 14.371094 64.4375 14.578125 C 64.839844 14.769531 65.253906 14.804688 65.6875 14.859375 C 66.59375 14.964844 67.324219 15.574219 68.21875 15.714844 C 68.246094 15.714844 68.269531 15.710938 68.292969 15.699219 C 68.433594 15.796875 68.574219 15.886719 68.722656 15.96875 C 69.308594 16.285156 69.9375 16.4375 70.605469 16.425781 L 70.476562 16.457031 L 69.660156 16.609375 L 66.574219 16.925781 C 66.539062 16.925781 66.507812 16.9375 66.480469 16.964844 L 64.25 17.285156 C 63.617188 17.160156 62.886719 17.007812 62.75 16.9375 C 62.753906 16.925781 62.757812 16.910156 62.722656 16.894531 L 62.664062 16.867188 C 62.660156 16.859375 62.652344 16.855469 62.644531 16.851562 C 62.308594 16.652344 61.984375 16.429688 61.675781 16.191406 L 61.660156 16.175781 C 61.378906 15.890625 61.070312 15.652344 60.722656 15.453125 L 60.644531 15.414062 C 60.570312 15.359375 60.492188 15.304688 60.417969 15.253906 C 59.613281 14.71875 58.703125 14.445312 57.808594 14.109375 C 56.84375 13.746094 55.902344 13.332031 54.964844 12.90625 C 54.507812 12.695312 54.054688 12.472656 53.589844 12.289062 C 53.132812 12.117188 52.667969 11.988281 52.1875 11.898438 C 51.070312 11.664062 50.027344 11.179688 48.910156 10.949219 C 48.871094 10.9375 48.726562 10.972656 48.789062 11.03125 C 49.617188 11.796875 50.425781 12.585938 51.269531 13.328125 C 52.054688 14.015625 52.898438 14.5625 53.910156 14.851562 C 54.425781 14.996094 54.953125 15.101562 55.480469 15.210938 C 56.035156 15.332031 56.589844 15.445312 57.148438 15.546875 C 58.230469 15.757812 59.320312 15.878906 60.417969 15.910156 C 60.59375 15.902344 60.761719 15.921875 60.929688 15.960938 C 61.089844 16.019531 61.230469 16.109375 61.347656 16.230469 C 61.539062 16.425781 61.738281 16.609375 61.949219 16.777344 C 62.382812 17.085938 62.863281 17.269531 63.390625 17.328125 L 63.734375 17.363281 L 63.289062 17.429688 L 62.613281 17.480469 C 62.59375 17.476562 62.574219 17.472656 62.554688 17.472656 C 61.511719 17.464844 60.46875 17.523438 59.433594 17.640625 C 59.324219 17.652344 59.304688 17.703125 59.335938 17.746094 L 58.953125 17.753906 C 58.070312 17.585938 57.179688 17.507812 56.285156 17.523438 C 55.128906 17.429688 53.96875 17.375 52.804688 17.359375 C 51.683594 17.246094 50.636719 16.898438 49.671875 16.316406 C 49.1875 16.039062 48.753906 15.703125 48.363281 15.304688 C 47.992188 14.902344 47.980469 14.386719 47.933594 13.867188 C 47.867188 13.339844 47.742188 12.824219 47.554688 12.324219 C 47.40625 11.816406 47.1875 11.339844 46.902344 10.894531 C 46.304688 10.042969 45.3125 9.632812 44.464844 9.085938 C 43.398438 8.394531 42.585938 7.40625 41.785156 6.433594 C 41.738281 6.378906 41.558594 6.394531 41.597656 6.492188 C 42.148438 7.921875 42.382812 9.441406 42.75 10.925781 C 42.914062 11.601562 43.085938 12.3125 43.453125 12.914062 C 43.601562 13.167969 43.792969 13.382812 44.027344 13.5625 C 44.332031 13.757812 44.660156 13.894531 45.011719 13.96875 C 45.929688 14.210938 46.847656 14.453125 47.765625 14.695312 C 47.785156 14.695312 47.800781 14.695312 47.816406 14.695312 C 47.863281 14.925781 47.964844 15.136719 48.113281 15.320312 C 48.484375 15.726562 48.90625 16.066406 49.378906 16.34375 C 50.140625 16.824219 50.964844 17.160156 51.84375 17.355469 C 51.589844 17.355469 51.332031 17.363281 51.078125 17.359375 L 50.914062 17.367188 C 50.667969 17.351562 50.417969 17.339844 50.167969 17.328125 C 49.34375 17.253906 47.488281 17.226562 47.496094 17.242188 L 47.035156 17.214844 C 47.003906 17.199219 46.976562 17.191406 46.941406 17.191406 L 45.488281 17.085938 C 45.453125 17.066406 45.417969 17.054688 45.375 17.058594 L 45.09375 17.039062 C 44.894531 16.984375 44.691406 16.933594 44.5 16.859375 C 44.132812 16.726562 43.773438 16.570312 43.425781 16.386719 C 41.679688 14.777344 39.902344 13.199219 38.050781 11.707031 C 37.566406 11.320312 37.082031 10.9375 36.589844 10.5625 C 36.113281 10.199219 35.617188 9.855469 35.175781 9.453125 C 34.347656 8.667969 33.878906 7.617188 33.195312 6.722656 C 32.679688 6.046875 32.070312 5.359375 31.820312 4.539062 L 31.707031 3.9375 C 31.695312 3.863281 31.496094 3.863281 31.5 3.9375 C 31.515625 4.140625 31.554688 4.34375 31.613281 4.539062 C 31.730469 5.171875 31.851562 5.808594 31.96875 6.445312 C 32.105469 7.179688 32.230469 7.929688 32.550781 8.613281 C 33.078125 9.753906 34.023438 10.617188 34.957031 11.417969 C 35.4375 11.832031 35.925781 12.238281 36.386719 12.671875 C 36.484375 12.824219 36.589844 12.96875 36.703125 13.109375 C 37.414062 13.992188 38.390625 14.609375 39.445312 15.003906 C 40.097656 15.242188 40.769531 15.410156 41.457031 15.511719 C 41.484375 15.519531 41.59375 15.5 41.585938 15.457031 C 41.878906 15.636719 42.171875 15.820312 42.46875 15.996094 C 42.726562 16.148438 42.992188 16.296875 43.257812 16.4375 L 43.488281 16.648438 C 43.550781 16.683594 43.613281 16.679688 43.671875 16.640625 C 43.769531 16.683594 43.867188 16.730469 43.964844 16.769531 C 44.164062 16.851562 44.355469 16.921875 44.5625 16.988281 L 42.90625 16.878906 C 42.675781 16.859375 42.445312 16.839844 42.214844 16.816406 C 42.210938 16.789062 42.179688 16.765625 42.105469 16.753906 L 39.523438 16.429688 C 39.480469 16.355469 39.421875 16.292969 39.351562 16.246094 C 39.277344 16.199219 39.199219 16.167969 39.113281 16.15625 C 39.027344 16.148438 38.941406 16.15625 38.859375 16.183594 C 38.777344 16.214844 38.707031 16.257812 38.648438 16.320312 L 37.527344 16.183594 C 37.484375 16.175781 37.441406 16.183594 37.402344 16.203125 L 37.324219 16.195312 C 37.335938 16.191406 37.347656 16.1875 37.355469 16.179688 L 37.375 16.175781 C 37.5 16.152344 37.34375 16.109375 37.292969 16.113281 L 37.128906 16.117188 C 36.601562 15.988281 36.148438 15.660156 35.664062 15.414062 C 35.253906 15.203125 34.820312 15.058594 34.367188 14.984375 C 33.953125 14.917969 33.539062 14.910156 33.125 14.957031 C 32.5 14.394531 30.734375 14.015625 29.894531 13.964844 C 29.476562 13.9375 29.070312 13.980469 28.667969 14.089844 C 28.25 14.222656 27.835938 14.375 27.433594 14.550781 C 26.984375 14.722656 26.519531 14.824219 26.042969 14.855469 C 25.628906 14.890625 25.226562 14.972656 24.835938 15.101562 C 24.050781 15.363281 23.328125 15.765625 22.574219 16.09375 C 22.125 16.292969 21.660156 16.449219 21.183594 16.566406 C 20.695312 16.6875 20.207031 16.800781 19.765625 17.0625 C 19.6875 17.113281 19.796875 17.152344 19.839844 17.15625 C 21.445312 17.257812 23.03125 16.980469 24.628906 16.859375 C 25.453125 16.792969 26.277344 16.796875 27.105469 16.863281 C 27.492188 16.902344 27.882812 16.910156 28.273438 16.882812 C 28.367188 16.875 28.457031 16.863281 28.550781 16.847656 C 28.144531 16.953125 27.746094 17.074219 27.355469 17.222656 C 26.878906 17.410156 26.421875 17.632812 25.976562 17.886719 C 24.933594 18.472656 23.972656 19.207031 23.019531 19.933594 C 22.960938 19.976562 23.121094 19.984375 23.136719 19.984375 C 23.609375 19.9375 24.066406 19.835938 24.511719 19.679688 C 24.984375 19.539062 25.464844 19.429688 25.953125 19.359375 C 26.921875 19.210938 27.90625 19.15625 28.878906 19.042969 C 29.828125 18.933594 30.746094 18.714844 31.644531 18.382812 C 32.117188 18.207031 32.597656 18.019531 33.066406 17.859375 C 33.539062 17.703125 34.023438 17.574219 34.492188 17.410156 C 34.976562 17.226562 35.445312 17.011719 35.902344 16.761719 C 36.277344 16.550781 36.671875 16.378906 37.085938 16.246094 L 37.191406 16.253906 L 37.332031 16.269531 C 37.320312 16.304688 37.34375 16.34375 37.4375 16.355469 L 38.53125 16.488281 C 38.515625 16.515625 38.507812 16.542969 38.5 16.574219 C 38.453125 16.742188 38.480469 16.898438 38.582031 17.042969 C 38.683594 17.1875 38.820312 17.265625 38.996094 17.28125 C 39.167969 17.292969 39.320312 17.238281 39.441406 17.113281 C 39.5625 16.988281 39.617188 16.835938 39.597656 16.664062 C 40.285156 16.765625 40.96875 16.855469 41.65625 16.933594 C 41.683594 16.96875 41.714844 16.984375 41.757812 16.980469 L 45.066406 17.21875 C 45.101562 17.265625 45.148438 17.289062 45.210938 17.285156 L 45.941406 17.324219 C 46.9375 17.527344 47.945312 17.65625 48.960938 17.714844 L 49.175781 17.722656 C 47.886719 17.941406 46.433594 18.183594 45.953125 18.179688 C 45.425781 18.160156 44.902344 18.214844 44.390625 18.339844 C 43.847656 18.496094 43.339844 18.753906 42.8125 18.953125 C 41.773438 19.339844 40.75 19.769531 39.957031 20.578125 C 39.554688 20.992188 39.300781 21.492188 39.058594 22.007812 C 38.84375 22.507812 38.570312 22.972656 38.246094 23.410156 C 37.488281 24.386719 36.480469 25.125 35.492188 25.851562 C 35.4375 25.890625 35.632812 25.90625 35.671875 25.882812 C 36.550781 25.363281 37.488281 24.953125 38.386719 24.46875 C 39.214844 24.015625 39.984375 23.476562 40.695312 22.851562 C 41.386719 22.246094 42.050781 21.605469 42.804688 21.074219 C 43.167969 20.8125 43.554688 20.589844 43.964844 20.40625 C 44.386719 20.222656 44.835938 20.105469 45.273438 19.945312 C 45.722656 19.800781 46.125 19.570312 46.472656 19.25 C 46.800781 18.933594 47.058594 18.589844 47.476562 18.382812 C 47.628906 18.320312 47.773438 18.246094 47.914062 18.160156 C 48.109375 18.132812 48.988281 17.917969 49.769531 17.726562 C 50.214844 17.71875 50.65625 17.699219 51.097656 17.683594 C 51.015625 17.714844 50.941406 17.761719 50.882812 17.828125 C 50.820312 17.894531 50.78125 17.96875 50.753906 18.058594 C 50.730469 18.144531 50.726562 18.230469 50.746094 18.316406 C 50.761719 18.40625 50.800781 18.484375 50.855469 18.554688 C 50.910156 18.625 50.980469 18.679688 51.058594 18.71875 C 51.140625 18.753906 51.226562 18.773438 51.316406 18.769531 C 51.40625 18.765625 51.488281 18.742188 51.566406 18.699219 C 51.644531 18.65625 51.710938 18.597656 51.761719 18.523438 C 51.8125 18.449219 51.839844 18.367188 51.851562 18.277344 C 51.863281 18.1875 51.855469 18.101562 51.824219 18.019531 C 51.792969 17.933594 51.746094 17.859375 51.679688 17.800781 C 51.613281 17.738281 51.539062 17.695312 51.453125 17.667969 C 51.671875 17.664062 51.886719 17.65625 52.105469 17.65625 L 52.164062 17.660156 C 52.144531 17.703125 52.335938 17.808594 52.394531 17.8125 L 55.359375 17.914062 C 55.632812 17.957031 56.359375 17.980469 56.222656 17.953125 C 56.0625 17.921875 55.902344 17.894531 55.742188 17.867188 C 55.742188 17.863281 55.742188 17.859375 55.742188 17.855469 C 55.835938 17.859375 56.949219 17.957031 57.261719 17.96875 L 57.628906 18 C 57.679688 18.003906 57.726562 18 57.777344 17.988281 L 57.785156 17.988281 C 56.828125 18.488281 55.859375 18.960938 54.796875 19.222656 C 53.734375 19.480469 52.632812 19.597656 51.566406 19.863281 C 50.621094 20.09375 49.679688 20.449219 48.921875 21.074219 C 48.144531 21.714844 47.617188 22.589844 46.933594 23.324219 C 46.527344 23.742188 46.074219 24.097656 45.574219 24.394531 C 45.082031 24.679688 44.625 25.015625 44.199219 25.394531 C 44.125 25.46875 44.289062 25.523438 44.34375 25.5 C 45.550781 24.910156 46.789062 24.390625 48.054688 23.941406 C 48.695312 23.714844 49.34375 23.507812 49.996094 23.320312 C 50.386719 23.207031 50.921875 23.050781 51.042969 22.617188 C 51.496094 22.757812 51.972656 22.585938 52.386719 22.398438 C 52.902344 22.167969 53.402344 21.902344 53.882812 21.601562 C 54.363281 21.300781 54.777344 20.929688 55.128906 20.484375 C 55.480469 20.007812 55.789062 19.503906 56.058594 18.976562 C 56.714844 18.710938 57.351562 18.410156 57.976562 18.074219 C 58.019531 18.050781 58.027344 18.023438 58.019531 17.996094 L 58.367188 18.003906 C 58.410156 18.011719 58.453125 18 58.488281 17.96875 L 59.203125 18.039062 C 59.226562 18.039062 59.253906 18.039062 59.28125 18.03125 L 59.492188 18.058594 C 59.585938 18.074219 59.761719 17.976562 59.671875 17.917969 L 61.25 17.890625 C 61.328125 17.890625 61.375 17.863281 61.390625 17.832031 L 61.621094 17.8125 L 61.773438 17.804688 C 62.636719 17.828125 63.5 17.804688 64.363281 17.742188 C 64.40625 17.738281 64.523438 17.734375 64.558594 17.734375 C 65.355469 17.761719 66.132812 17.652344 66.890625 17.414062 C 66.902344 17.410156 66.914062 17.40625 66.921875 17.398438 L 67.242188 17.351562 C 66.691406 17.707031 66.125 18.050781 65.503906 18.226562 C 65.457031 18.21875 65.414062 18.21875 65.367188 18.226562 C 65.316406 18.253906 65.261719 18.273438 65.207031 18.296875 C 65.0625 18.324219 64.917969 18.339844 64.773438 18.347656 C 63.992188 18.375 63.152344 18.230469 62.453125 18.660156 C 62.097656 18.878906 61.824219 19.199219 61.523438 19.480469 C 61.210938 19.761719 60.875 20.011719 60.515625 20.226562 C 59.808594 20.644531 59.070312 21.003906 58.304688 21.300781 C 57.4375 21.660156 56.5625 22 55.746094 22.460938 C 55.644531 22.519531 55.828125 22.550781 55.867188 22.539062 L 60.324219 21.378906 C 60.996094 21.207031 61.683594 21.050781 62.324219 20.773438 C 62.902344 20.507812 63.4375 20.171875 63.929688 19.765625 C 64.46875 19.320312 64.980469 18.84375 65.46875 18.34375 C 66.1875 18.167969 66.832031 17.773438 67.460938 17.371094 C 67.496094 17.347656 67.472656 17.328125 67.421875 17.316406 L 69.539062 17.007812 C 69.5625 17.011719 69.585938 17.011719 69.609375 17.007812 L 69.785156 16.96875 L 70.871094 16.8125 C 70.917969 16.890625 70.980469 16.917969 71.070312 16.890625 L 73.789062 16.328125 C 73.953125 16.296875 74.410156 16.144531 74.375 16.105469 C 74.820312 16.039062 75.265625 15.972656 75.710938 15.910156 C 76.429688 15.8125 77.148438 15.714844 77.867188 15.617188 C 78.054688 15.597656 77.976562 15.445312 77.824219 15.441406 Z M 66.15625 14.792969 C 65.78125 14.695312 65.382812 14.710938 65 14.621094 C 64.609375 14.507812 64.257812 14.328125 63.933594 14.082031 C 63.316406 13.65625 62.667969 13.28125 62.050781 12.859375 C 61.488281 12.472656 60.949219 12.007812 60.613281 11.402344 C 60.535156 11.265625 60.46875 11.121094 60.414062 10.96875 C 60.378906 10.863281 60.242188 10.546875 60.316406 10.445312 C 60.390625 10.34375 60.75 10.484375 60.851562 10.507812 C 61.039062 10.558594 61.226562 10.609375 61.414062 10.667969 C 62.125 10.902344 62.800781 11.21875 63.441406 11.609375 C 64.722656 12.375 65.847656 13.382812 66.902344 14.4375 L 67.292969 14.828125 C 66.71875 14.449219 66.113281 14.121094 65.476562 13.851562 C 64.945312 13.625 64.382812 13.453125 63.867188 13.1875 C 63.390625 12.929688 62.957031 12.613281 62.570312 12.230469 C 62.144531 11.804688 61.753906 11.347656 61.40625 10.855469 C 61.355469 10.789062 61.160156 10.832031 61.226562 10.925781 C 61.839844 11.765625 62.539062 12.574219 63.4375 13.121094 C 63.910156 13.390625 64.40625 13.609375 64.921875 13.789062 C 65.476562 14 66.007812 14.25 66.519531 14.542969 C 67.015625 14.824219 67.484375 15.144531 67.925781 15.5 C 67.324219 15.320312 66.777344 14.957031 66.15625 14.796875 Z M 60.957031 15.839844 C 60.730469 15.796875 60.503906 15.78125 60.277344 15.789062 C 59.976562 15.78125 59.675781 15.761719 59.375 15.734375 C 58.816406 15.6875 58.261719 15.613281 57.714844 15.523438 C 56.632812 15.34375 55.546875 15.121094 54.476562 14.867188 C 53.953125 14.753906 53.449219 14.582031 52.964844 14.34375 C 52.496094 14.09375 52.058594 13.792969 51.652344 13.441406 C 50.777344 12.703125 49.953125 11.894531 49.121094 11.113281 C 50.003906 11.332031 50.84375 11.710938 51.734375 11.914062 C 52.238281 12.011719 52.734375 12.132812 53.222656 12.28125 C 53.703125 12.453125 54.164062 12.671875 54.625 12.894531 C 55.519531 13.300781 56.414062 13.695312 57.320312 14.054688 C 58.191406 14.394531 59.113281 14.644531 59.925781 15.117188 C 59.382812 14.960938 58.828125 14.863281 58.261719 14.824219 C 57.316406 14.738281 56.347656 14.734375 55.433594 14.457031 C 54.519531 14.183594 53.851562 13.585938 53.113281 13.03125 C 52.277344 12.40625 51.339844 12.046875 50.355469 11.714844 C 50.273438 11.695312 50.121094 11.769531 50.25 11.816406 C 51.160156 12.121094 52.054688 12.445312 52.835938 13.015625 C 53.523438 13.523438 54.15625 14.109375 54.960938 14.433594 C 56.6875 15.117188 58.660156 14.640625 60.359375 15.421875 C 60.402344 15.441406 60.441406 15.460938 60.484375 15.484375 C 60.648438 15.601562 60.808594 15.71875 60.96875 15.84375 Z M 42.941406 8.851562 C 43.386719 9.136719 43.707031 9.527344 43.894531 10.023438 C 44.078125 10.511719 44.019531 11.054688 44.292969 11.511719 C 44.773438 12.304688 45.75 12.621094 46.449219 13.175781 C 46.910156 13.550781 47.296875 13.988281 47.609375 14.492188 L 45.460938 13.929688 C 45.082031 13.828125 44.683594 13.753906 44.339844 13.5625 C 44.046875 13.390625 43.8125 13.15625 43.636719 12.863281 C 43.285156 12.292969 43.121094 11.613281 42.960938 10.96875 C 42.785156 10.261719 42.640625 9.546875 42.476562 8.84375 C 42.335938 8.203125 42.167969 7.574219 41.964844 6.953125 C 42.5625 7.671875 43.191406 8.375 43.945312 8.9375 C 44.796875 9.574219 45.878906 9.949219 46.570312 10.785156 C 46.9375 11.226562 47.140625 11.769531 47.324219 12.308594 C 47.53125 12.84375 47.664062 13.398438 47.726562 13.96875 C 47.738281 14.105469 47.75 14.242188 47.761719 14.378906 C 47.519531 13.988281 47.230469 13.636719 46.898438 13.324219 C 46.507812 12.984375 46.089844 12.691406 45.644531 12.4375 C 45.246094 12.1875 44.828125 11.933594 44.550781 11.542969 C 44.226562 11.082031 44.292969 10.507812 44.101562 9.996094 C 43.902344 9.464844 43.5625 9.050781 43.085938 8.75 C 43.007812 8.695312 42.832031 8.78125 42.941406 8.851562 Z M 40.929688 14.878906 C 40.535156 14.578125 40.117188 14.3125 39.675781 14.085938 C 39.617188 14.058594 39.425781 14.097656 39.527344 14.164062 L 40.71875 14.902344 C 40.910156 15.046875 41.09375 15.203125 41.273438 15.363281 C 39.546875 15.054688 37.8125 14.300781 36.777344 12.894531 C 36.8125 12.886719 36.835938 12.871094 36.816406 12.84375 C 36.25 12.09375 35.9375 11.246094 35.886719 10.300781 C 35.882812 10.226562 35.679688 10.230469 35.679688 10.304688 C 35.683594 10.976562 35.835938 11.613281 36.144531 12.210938 C 35.421875 11.578125 34.664062 10.984375 33.992188 10.296875 C 33.546875 9.851562 33.171875 9.355469 32.867188 8.804688 C 32.519531 8.144531 32.371094 7.429688 32.230469 6.707031 C 32.144531 6.246094 32.058594 5.785156 31.972656 5.324219 C 32.203125 5.699219 32.457031 6.058594 32.734375 6.402344 C 33.058594 6.804688 33.359375 7.226562 33.636719 7.664062 C 33.917969 8.152344 34.234375 8.617188 34.585938 9.058594 C 34.996094 9.5 35.449219 9.894531 35.945312 10.238281 C 36.449219 10.613281 36.949219 10.996094 37.441406 11.390625 C 38.429688 12.171875 39.394531 12.976562 40.339844 13.804688 C 41.183594 14.539062 42.015625 15.289062 42.839844 16.042969 C 42.195312 15.671875 41.558594 15.273438 40.925781 14.875 Z M 36.726562 16.082031 L 36.808594 16.101562 L 36.636719 16.09375 C 36.664062 16.101562 36.695312 16.09375 36.726562 16.082031 Z M 28.175781 16.773438 C 27.761719 16.792969 27.347656 16.78125 26.9375 16.734375 C 25.445312 16.613281 23.96875 16.8125 22.484375 16.953125 C 21.683594 17.042969 20.882812 17.074219 20.082031 17.050781 C 20.769531 16.695312 21.585938 16.625 22.304688 16.347656 C 23.050781 16.054688 23.75 15.664062 24.492188 15.363281 C 24.867188 15.207031 25.25 15.089844 25.648438 15.011719 C 26.058594 14.941406 26.476562 14.953125 26.882812 14.851562 C 27.703125 14.65625 28.429688 14.179688 29.273438 14.085938 C 30.226562 13.976562 31.96875 14.398438 32.742188 15.023438 C 32.402344 15.09375 32.074219 15.210938 31.761719 15.371094 C 31.628906 15.445312 31.496094 15.523438 31.371094 15.609375 C 31.339844 15.59375 31.308594 15.585938 31.277344 15.585938 C 30.125 15.558594 28.980469 15.601562 27.835938 15.714844 C 27.265625 15.773438 26.703125 15.871094 26.132812 15.933594 C 25.824219 15.957031 25.519531 15.945312 25.210938 15.890625 C 24.980469 15.855469 24.75 15.867188 24.523438 15.925781 C 24.234375 16.019531 23.949219 16.132812 23.671875 16.261719 L 22.679688 16.679688 C 22.636719 16.699219 22.65625 16.734375 22.683594 16.757812 C 22.730469 16.78125 22.777344 16.78125 22.824219 16.757812 C 23.367188 16.53125 23.90625 16.277344 24.457031 16.078125 C 24.734375 15.980469 25.019531 15.960938 25.3125 16.015625 C 25.558594 16.058594 25.808594 16.066406 26.0625 16.046875 C 26.609375 16 27.148438 15.898438 27.6875 15.835938 C 28.230469 15.773438 28.816406 15.730469 29.382812 15.707031 C 29.945312 15.683594 30.542969 15.675781 31.121094 15.683594 C 31.058594 15.777344 30.980469 15.859375 30.894531 15.929688 C 30.808594 15.984375 30.722656 16.039062 30.636719 16.09375 C 30.546875 16.140625 30.453125 16.183594 30.359375 16.222656 C 30.027344 16.347656 29.679688 16.449219 29.335938 16.546875 C 28.957031 16.664062 28.566406 16.742188 28.171875 16.78125 Z M 34.8125 17.175781 C 34.347656 17.363281 33.875 17.523438 33.398438 17.660156 C 32.914062 17.808594 32.4375 17.972656 31.96875 18.152344 C 31.496094 18.332031 31.015625 18.515625 30.53125 18.652344 C 30.066406 18.777344 29.59375 18.871094 29.117188 18.933594 C 28.164062 19.066406 27.203125 19.113281 26.253906 19.238281 C 25.742188 19.300781 25.238281 19.394531 24.738281 19.519531 C 24.253906 19.644531 23.78125 19.832031 23.285156 19.894531 C 24.882812 18.679688 26.515625 17.484375 28.476562 16.949219 C 28.953125 16.820312 29.433594 16.710938 29.902344 16.550781 C 30.089844 16.488281 30.277344 16.410156 30.457031 16.320312 C 30.492188 16.304688 30.53125 16.292969 30.566406 16.277344 C 30.796875 16.1875 31 16.0625 31.179688 15.894531 L 31.230469 15.859375 C 31.636719 15.550781 32.078125 15.3125 32.5625 15.148438 C 32.648438 15.121094 32.734375 15.101562 32.824219 15.074219 C 32.859375 15.101562 32.996094 15.070312 33.078125 15.027344 C 33.382812 14.984375 33.691406 14.972656 34 15.003906 C 34.558594 15.058594 35.082031 15.21875 35.574219 15.484375 C 35.90625 15.664062 36.230469 15.867188 36.574219 16.015625 L 36.113281 16.0625 C 35.835938 16.035156 35.558594 16.007812 35.273438 15.996094 C 34.710938 15.976562 34.15625 16.035156 33.609375 16.171875 C 32.472656 16.445312 31.421875 16.984375 30.390625 17.519531 C 30.328125 17.554688 30.519531 17.566406 30.550781 17.5625 C 31.535156 17.273438 32.527344 17.007812 33.523438 16.769531 C 33.578125 16.785156 33.628906 16.792969 33.683594 16.785156 C 33.6875 16.78125 33.695312 16.777344 33.699219 16.777344 C 33.773438 16.746094 33.84375 16.714844 33.914062 16.679688 C 34.660156 16.503906 35.410156 16.34375 36.164062 16.199219 C 36.394531 16.203125 36.625 16.214844 36.851562 16.238281 C 36.136719 16.457031 35.5 16.886719 34.808594 17.179688 Z M 33.484375 16.597656 C 33.445312 16.621094 33.402344 16.644531 33.359375 16.667969 C 33.316406 16.695312 33.359375 16.699219 33.402344 16.707031 C 32.578125 16.902344 31.761719 17.117188 30.945312 17.347656 C 31.851562 16.882812 32.777344 16.441406 33.765625 16.207031 C 33.964844 16.164062 34.164062 16.128906 34.367188 16.101562 C 34.054688 16.226562 33.761719 16.382812 33.488281 16.574219 C 33.472656 16.589844 33.476562 16.597656 33.484375 16.605469 Z M 34.21875 16.480469 C 34.242188 16.484375 34.261719 16.484375 34.28125 16.480469 L 34.414062 16.441406 L 34.441406 16.433594 C 34.464844 16.4375 34.488281 16.4375 34.511719 16.4375 L 35.25 16.238281 C 35.261719 16.238281 35.269531 16.234375 35.277344 16.226562 C 35.425781 16.210938 35.578125 16.203125 35.730469 16.195312 C 35.199219 16.300781 34.671875 16.414062 34.148438 16.53125 C 34.167969 16.523438 34.199219 16.503906 34.21875 16.488281 Z M 34.542969 16.226562 Z M 34.6875 16.074219 C 34.980469 16.054688 35.273438 16.054688 35.5625 16.078125 L 35.714844 16.089844 L 35.519531 16.105469 C 35.496094 16.097656 35.46875 16.09375 35.445312 16.09375 L 35.257812 16.113281 C 35.210938 16.089844 35.164062 16.078125 35.113281 16.085938 L 34.976562 16.109375 C 34.945312 16.097656 34.917969 16.089844 34.886719 16.085938 C 34.828125 16.089844 34.769531 16.09375 34.710938 16.097656 C 34.699219 16.09375 34.6875 16.089844 34.671875 16.085938 C 34.683594 16.085938 34.6875 16.082031 34.6875 16.078125 Z M 46.921875 17.375 L 47.570312 17.410156 C 47.558594 17.429688 47.558594 17.449219 47.570312 17.46875 C 47.351562 17.441406 47.132812 17.414062 46.917969 17.378906 Z M 47.984375 17.519531 L 48.496094 17.511719 C 48.488281 17.53125 48.488281 17.546875 48.496094 17.5625 C 48.320312 17.554688 48.152344 17.542969 47.980469 17.523438 Z M 46.9375 18.363281 C 46.578125 18.441406 46.230469 18.527344 45.890625 18.621094 C 45.207031 18.808594 44.535156 19.042969 43.882812 19.320312 C 42.75 19.804688 41.535156 20.375 40.753906 21.359375 C 40.28125 21.957031 39.816406 22.539062 39.230469 23.027344 C 39.210938 23.046875 39.382812 23.082031 39.429688 23.046875 C 39.921875 22.628906 40.359375 22.160156 40.746094 21.644531 C 40.933594 21.386719 41.140625 21.144531 41.367188 20.914062 C 41.605469 20.695312 41.863281 20.503906 42.140625 20.335938 C 43.195312 19.695312 44.3125 19.191406 45.492188 18.828125 C 46.042969 18.652344 46.601562 18.507812 47.167969 18.394531 C 46.925781 18.558594 46.710938 18.753906 46.519531 18.976562 C 46.210938 19.328125 45.839844 19.601562 45.414062 19.792969 C 44.996094 19.96875 44.550781 20.085938 44.121094 20.242188 C 43.710938 20.394531 43.324219 20.585938 42.953125 20.820312 C 42.195312 21.300781 41.523438 21.914062 40.859375 22.515625 C 40.160156 23.167969 39.398438 23.742188 38.578125 24.234375 C 37.851562 24.652344 37.089844 25 36.351562 25.382812 C 36.972656 24.929688 37.542969 24.421875 38.070312 23.867188 C 38.429688 23.476562 38.738281 23.050781 38.988281 22.585938 C 39.253906 22.085938 39.441406 21.5625 39.757812 21.089844 C 40.390625 20.140625 41.46875 19.558594 42.507812 19.167969 C 43.035156 18.96875 43.554688 18.75 44.082031 18.542969 C 44.644531 18.332031 45.226562 18.234375 45.828125 18.242188 C 46.433594 18.242188 47.03125 18.242188 47.632812 18.191406 C 47.398438 18.253906 47.167969 18.316406 46.929688 18.367188 Z M 49.625 17.625 C 49.421875 17.625 49.21875 17.621094 49.015625 17.605469 L 49.257812 17.59375 C 49.53125 17.582031 49.804688 17.574219 50.078125 17.570312 L 49.792969 17.617188 Z M 50.425781 17.570312 C 50.621094 17.570312 50.816406 17.566406 51.015625 17.570312 L 51.167969 17.582031 C 50.863281 17.59375 50.5625 17.601562 50.261719 17.609375 Z M 54.261719 17.59375 C 54.257812 17.585938 54.253906 17.582031 54.25 17.574219 L 54.746094 17.597656 C 54.765625 17.605469 54.785156 17.609375 54.808594 17.613281 L 54.929688 17.628906 C 54.699219 17.617188 54.476562 17.601562 54.253906 17.59375 Z M 55.015625 20.332031 C 54.699219 20.753906 54.328125 21.109375 53.890625 21.402344 C 53.464844 21.683594 53.019531 21.929688 52.554688 22.144531 C 52.09375 22.367188 51.53125 22.683594 51.019531 22.441406 C 50.964844 22.417969 50.871094 22.441406 50.859375 22.507812 C 50.835938 22.800781 50.570312 22.957031 50.320312 23.058594 C 50.042969 23.171875 49.742188 23.238281 49.453125 23.328125 C 48.867188 23.503906 48.289062 23.699219 47.714844 23.90625 C 46.738281 24.257812 45.785156 24.65625 44.84375 25.089844 C 45.496094 24.605469 46.242188 24.246094 46.835938 23.683594 C 47.554688 23.003906 48.066406 22.148438 48.769531 21.457031 C 50.320312 19.929688 52.613281 19.878906 54.609375 19.425781 C 54.925781 19.355469 55.234375 19.269531 55.542969 19.164062 C 55.121094 19.472656 54.675781 19.738281 54.203125 19.957031 C 53.628906 20.222656 53.023438 20.390625 52.429688 20.609375 C 52.152344 20.707031 51.886719 20.828125 51.628906 20.96875 C 51.359375 21.136719 51.109375 21.332031 50.878906 21.546875 C 50.382812 21.976562 49.757812 22.125 49.164062 22.363281 C 48.5 22.628906 47.898438 23 47.359375 23.472656 C 47.261719 23.554688 47.429688 23.640625 47.503906 23.578125 C 48 23.140625 48.550781 22.792969 49.160156 22.539062 C 49.722656 22.300781 50.339844 22.171875 50.839844 21.804688 C 51.101562 21.613281 51.316406 21.375 51.589844 21.195312 C 51.855469 21.023438 52.136719 20.882812 52.433594 20.773438 C 53.019531 20.546875 53.628906 20.386719 54.203125 20.128906 C 54.722656 19.894531 55.210938 19.609375 55.671875 19.273438 C 55.472656 19.640625 55.253906 19.992188 55.007812 20.332031 Z M 62.398438 20.609375 C 61.765625 20.917969 61.078125 21.078125 60.398438 21.253906 L 58.21875 21.824219 L 56.316406 22.324219 C 57.667969 21.640625 59.132812 21.207031 60.445312 20.445312 C 60.789062 20.25 61.113281 20.027344 61.421875 19.78125 C 61.75 19.515625 62.027344 19.195312 62.351562 18.925781 C 62.71875 18.621094 63.140625 18.46875 63.617188 18.457031 C 64.003906 18.4375 64.386719 18.46875 64.773438 18.453125 C 64.488281 18.535156 64.199219 18.597656 63.910156 18.65625 C 63.433594 18.753906 62.980469 18.90625 62.546875 19.121094 C 61.667969 19.5625 60.945312 20.230469 60.101562 20.722656 C 60 20.78125 60.191406 20.828125 60.246094 20.796875 C 61.089844 20.300781 61.8125 19.632812 62.683594 19.183594 C 63.453125 18.785156 64.328125 18.726562 65.136719 18.441406 C 64.3125 19.269531 63.449219 20.097656 62.390625 20.609375 Z M 72.050781 16.1875 C 72.015625 16.179688 71.984375 16.179688 71.949219 16.183594 L 71.464844 16.273438 C 71.441406 16.265625 71.417969 16.265625 71.394531 16.269531 C 71.289062 16.285156 71.183594 16.304688 71.078125 16.328125 C 71.046875 16.285156 71.007812 16.269531 70.957031 16.273438 C 70.71875 16.300781 70.480469 16.304688 70.242188 16.28125 L 72.277344 16.148438 C 72.203125 16.15625 72.121094 16.171875 72.042969 16.1875 Z M 72.660156 16.175781 C 72.636719 16.152344 72.609375 16.132812 72.574219 16.125 L 73.34375 16.074219 C 73.109375 16.109375 72.878906 16.144531 72.65625 16.175781 Z M 75.257812 15.796875 C 75.222656 15.78125 75.191406 15.773438 75.152344 15.777344 L 72.863281 15.925781 C 73.941406 15.808594 75.027344 15.726562 76.113281 15.675781 Z M 75.257812 15.796875 " fill-opacity="1" fill-rule="nonzero"/></g></g></g><g clip-path="url(#f14b48a19c)"><g clip-path="url(#4a9c627669)"><g clip-path="url(#22041a701d)"><path fill="#895737" d="M 39.292969 15.753906 C 39.335938 15.605469 39.316406 15.464844 39.238281 15.332031 C 39.160156 15.195312 39.042969 15.109375 38.894531 15.070312 C 38.746094 15.03125 38.601562 15.050781 38.46875 15.128906 C 38.335938 15.207031 38.25 15.320312 38.210938 15.46875 C 38.171875 15.621094 38.1875 15.761719 38.265625 15.894531 C 38.34375 16.03125 38.460938 16.117188 38.609375 16.15625 C 38.757812 16.195312 38.902344 16.175781 39.035156 16.097656 C 39.167969 16.019531 39.253906 15.90625 39.292969 15.753906 Z M 39.292969 15.753906 " fill-opacity="1" fill-rule="nonzero"/></g></g></g><g clip-path="url(#7e4ed97345)"><g clip-path="url(#7de7ff18a5)"><g clip-path="url(#6df657e977)"><path fill="#895737" d="M 50.222656 15.96875 C 50.371094 16.007812 50.511719 15.988281 50.648438 15.910156 C 50.78125 15.832031 50.867188 15.71875 50.90625 15.566406 C 50.945312 15.417969 50.925781 15.273438 50.847656 15.140625 C 50.769531 15.007812 50.65625 14.921875 50.507812 14.882812 C 50.355469 14.84375 50.214844 14.863281 50.082031 14.941406 C 49.945312 15.019531 49.859375 15.132812 49.820312 15.28125 C 49.78125 15.433594 49.800781 15.574219 49.878906 15.707031 C 49.957031 15.839844 50.070312 15.929688 50.222656 15.96875 Z M 50.222656 15.96875 " fill-opacity="1" fill-rule="nonzero"/></g></g></g><g clip-path="url(#0aa9e6b369)"><g clip-path="url(#3a5a342253)"><g clip-path="url(#b864fb8d6e)"><path fill="#895737" d="M 22.617188 14.019531 C 22.542969 14 22.472656 14.011719 22.40625 14.050781 C 22.339844 14.085938 22.296875 14.144531 22.277344 14.21875 C 22.257812 14.292969 22.269531 14.359375 22.304688 14.425781 C 22.34375 14.492188 22.402344 14.535156 22.476562 14.554688 C 22.546875 14.574219 22.617188 14.566406 22.683594 14.527344 C 22.75 14.488281 22.792969 14.429688 22.8125 14.359375 C 22.832031 14.285156 22.824219 14.214844 22.785156 14.148438 C 22.746094 14.082031 22.6875 14.039062 22.617188 14.019531 Z M 22.617188 14.019531 " fill-opacity="1" fill-rule="nonzero"/></g></g></g></svg>