<svg xmlns="http://www.w3.org/2000/svg" xmlns:xlink="http://www.w3.org/1999/xlink" width="200" zoomAndPan="magnify" viewBox="0 0 150 30.000001" height="40" preserveAspectRatio="xMidYMid meet" version="1.0"><defs><clipPath id="3016d06a8b"><path d="M 8.308594 3.929688 L 141.855469 3.929688 L 141.855469 24.976562 L 8.308594 24.976562 Z M 8.308594 3.929688 " clip-rule="nonzero"/></clipPath></defs><g clip-path="url(#3016d06a8b)"><path fill="#895737" d="M 139.953125 13.171875 C 139.28125 13.171875 138.726562 13.664062 138.628906 14.308594 C 137.683594 14.308594 136.738281 14.308594 135.792969 14.308594 C 132.488281 14.308594 129.1875 14.308594 125.886719 14.308594 C 122.023438 14.308594 118.160156 14.308594 114.296875 14.308594 C 111.21875 14.308594 108.136719 14.308594 105.054688 14.308594 C 104.054688 14.308594 103.054688 14.308594 102.050781 14.308594 C 99.84375 14.226562 97.636719 14.148438 95.425781 14.066406 C 91.765625 13.929688 88.101562 13.796875 84.4375 13.660156 C 83.394531 13.621094 82.347656 13.582031 81.300781 13.542969 C 78.933594 12.832031 77.070312 11.125 76.164062 8.820312 C 75.691406 7.289062 75.371094 5.71875 75.21875 4.125 C 75.230469 3.984375 75.121094 3.921875 75.007812 3.929688 C 74.898438 3.921875 74.792969 3.988281 74.804688 4.125 C 74.660156 5.71875 74.34375 7.292969 73.871094 8.820312 C 72.964844 11.125 71.097656 12.832031 68.730469 13.542969 C 66.53125 13.625 64.335938 13.707031 62.136719 13.789062 C 58.472656 13.921875 54.808594 14.058594 51.144531 14.191406 C 50.085938 14.230469 49.027344 14.269531 47.96875 14.308594 C 46.570312 14.308594 45.171875 14.308594 43.773438 14.308594 C 40.472656 14.308594 37.171875 14.308594 33.871094 14.308594 C 30.007812 14.308594 26.148438 14.308594 22.285156 14.308594 C 19.207031 14.308594 16.128906 14.308594 13.046875 14.308594 C 12.484375 14.308594 11.921875 14.308594 11.359375 14.308594 C 11.257812 13.671875 10.707031 13.183594 10.039062 13.183594 C 9.296875 13.183594 8.699219 13.78125 8.699219 14.519531 C 8.699219 15.261719 9.296875 15.859375 10.039062 15.859375 C 10.710938 15.859375 11.265625 15.367188 11.363281 14.722656 C 12.320312 14.722656 13.28125 14.722656 14.238281 14.722656 C 17.542969 14.722656 20.84375 14.722656 24.144531 14.722656 C 28.003906 14.722656 31.867188 14.722656 35.726562 14.722656 C 38.808594 14.722656 41.886719 14.722656 44.96875 14.722656 C 45.96875 14.722656 46.96875 14.722656 47.96875 14.722656 C 50.132812 14.816406 52.296875 14.914062 54.460938 15.011719 C 58.164062 15.175781 61.867188 15.339844 65.570312 15.503906 C 66.824219 15.558594 68.082031 15.617188 69.335938 15.671875 C 71.425781 16.480469 73.058594 18.109375 73.871094 20.199219 C 74.347656 21.734375 74.660156 23.308594 74.804688 24.90625 C 74.792969 25.046875 74.898438 25.109375 75.007812 25.101562 C 75.117188 25.109375 75.230469 25.046875 75.21875 24.90625 C 75.371094 23.308594 75.6875 21.734375 76.164062 20.199219 C 77.042969 17.980469 78.808594 16.3125 81.058594 15.554688 C 81.140625 15.527344 81.222656 15.503906 81.300781 15.476562 C 83.5 15.394531 85.695312 15.316406 87.890625 15.238281 C 91.554688 15.101562 95.21875 14.96875 98.878906 14.835938 C 99.9375 14.796875 100.996094 14.761719 102.050781 14.722656 C 103.449219 14.722656 104.847656 14.722656 106.25 14.722656 C 109.550781 14.722656 112.851562 14.722656 116.15625 14.722656 C 120.019531 14.722656 123.878906 14.722656 127.742188 14.722656 C 130.824219 14.722656 133.902344 14.722656 136.984375 14.722656 C 137.53125 14.722656 138.082031 14.722656 138.628906 14.722656 C 138.730469 15.363281 139.285156 15.851562 139.953125 15.851562 C 140.691406 15.851562 141.292969 15.25 141.292969 14.511719 C 141.292969 13.773438 140.691406 13.171875 139.953125 13.171875 Z M 139.953125 13.171875 " fill-opacity="1" fill-rule="nonzero"/></g></svg>