<svg xmlns="http://www.w3.org/2000/svg" xmlns:xlink="http://www.w3.org/1999/xlink" width="200" zoomAndPan="magnify" viewBox="0 0 150 30.000001" height="40" preserveAspectRatio="xMidYMid meet" version="1.0"><defs><clipPath id="29ffe5df0b"><path d="M 23 1.480469 L 32 1.480469 L 32 18 L 23 18 Z M 23 1.480469 " clip-rule="nonzero"/></clipPath><clipPath id="d5caf1a5e9"><path d="M 20 1.480469 L 32 1.480469 L 32 21 L 20 21 Z M 20 1.480469 " clip-rule="nonzero"/></clipPath><clipPath id="d32bb1e791"><path d="M 18.308594 1.480469 L 32 1.480469 L 32 23 L 18.308594 23 Z M 18.308594 1.480469 " clip-rule="nonzero"/></clipPath><clipPath id="81613a788a"><path d="M 26 1.480469 L 32 1.480469 L 32 15 L 26 15 Z M 26 1.480469 " clip-rule="nonzero"/></clipPath><clipPath id="07724135ca"><path d="M 28 1.480469 L 43 1.480469 L 43 23 L 28 23 Z M 28 1.480469 " clip-rule="nonzero"/></clipPath><clipPath id="ba54596a84"><path d="M 88 9 L 124 9 L 124 27.609375 L 88 27.609375 Z M 88 9 " clip-rule="nonzero"/></clipPath><clipPath id="71544b260a"><path d="M 129 6 L 131.535156 6 L 131.535156 9 L 129 9 Z M 129 6 " clip-rule="nonzero"/></clipPath></defs><g clip-path="url(#29ffe5df0b)"><path fill="#e6b4ab" d="M 31.765625 15.601562 L 26.3125 15.601562 C 25.703125 15.601562 25.507812 15.230469 25.507812 14.722656 C 25.507812 14.3125 25.503906 1.804688 25.503906 1.804688 L 23.585938 1.804688 L 23.585938 16.488281 C 23.585938 17.101562 24.121094 17.511719 24.515625 17.511719 L 31.765625 17.511719 Z M 31.765625 15.601562 " fill-opacity="1" fill-rule="evenodd"/></g><g clip-path="url(#d5caf1a5e9)"><path fill="#e6b4ab" d="M 31.765625 18.238281 L 31.765625 20.148438 L 22.082031 20.148438 C 21.417969 20.148438 20.957031 19.652344 20.957031 19.011719 C 20.964844 18.261719 20.957031 1.800781 20.957031 1.800781 L 22.867188 1.800781 L 22.867188 17.050781 C 22.867188 17.71875 23.160156 18.238281 23.976562 18.238281 Z M 31.765625 18.238281 " fill-opacity="1" fill-rule="evenodd"/></g><g clip-path="url(#d32bb1e791)"><path fill="#e6b4ab" d="M 18.308594 1.804688 L 20.230469 1.804688 L 20.230469 19.550781 C 20.230469 20.195312 20.554688 20.875 21.492188 20.875 L 31.765625 20.875 L 31.765625 22.777344 L 20.59375 22.777344 C 19.316406 22.777344 18.308594 21.726562 18.308594 20.46875 Z M 18.308594 1.804688 " fill-opacity="1" fill-rule="evenodd"/></g><g clip-path="url(#81613a788a)"><path fill="#e6b4ab" d="M 26.222656 1.804688 L 28.144531 1.804688 L 28.144531 12.226562 C 28.144531 12.601562 28.316406 12.964844 28.863281 12.964844 L 31.769531 12.964844 L 31.769531 14.878906 L 27.199219 14.878906 C 26.496094 14.878906 26.222656 14.433594 26.222656 13.925781 Z M 26.222656 1.804688 " fill-opacity="1" fill-rule="evenodd"/></g><path fill="#e6b4ab" d="M 28.871094 8.980469 L 34.328125 8.980469 C 34.933594 8.980469 35.132812 9.351562 35.132812 9.859375 C 35.132812 10.269531 35.132812 22.777344 35.132812 22.777344 L 37.050781 22.777344 L 37.050781 8.09375 C 37.050781 7.480469 36.515625 7.074219 36.121094 7.074219 L 28.871094 7.074219 Z M 28.871094 8.980469 " fill-opacity="1" fill-rule="evenodd"/><path fill="#e6b4ab" d="M 28.871094 6.34375 L 28.871094 4.433594 L 38.558594 4.433594 C 39.222656 4.433594 39.683594 4.929688 39.683594 5.570312 C 39.675781 6.320312 39.683594 22.777344 39.683594 22.777344 L 37.773438 22.777344 L 37.773438 7.53125 C 37.773438 6.863281 37.480469 6.34375 36.664062 6.34375 Z M 28.871094 6.34375 " fill-opacity="1" fill-rule="evenodd"/><g clip-path="url(#07724135ca)"><path fill="#e6b4ab" d="M 42.328125 22.777344 L 40.410156 22.777344 L 40.410156 5.03125 C 40.410156 4.386719 40.085938 3.710938 39.144531 3.710938 L 28.871094 3.710938 L 28.871094 1.800781 L 40.046875 1.800781 C 41.320312 1.800781 42.328125 2.859375 42.328125 4.113281 Z M 42.328125 22.777344 " fill-opacity="1" fill-rule="evenodd"/></g><path fill="#e6b4ab" d="M 34.414062 22.777344 L 32.492188 22.777344 L 32.492188 12.359375 C 32.492188 11.980469 32.320312 11.617188 31.777344 11.617188 L 28.871094 11.617188 L 28.871094 9.703125 L 33.4375 9.703125 C 34.140625 9.703125 34.414062 10.152344 34.414062 10.65625 Z M 34.414062 22.777344 " fill-opacity="1" fill-rule="evenodd"/><path fill="#e6b4ab" d="M 86.390625 13.710938 C 86.390625 13.054688 86.886719 12.53125 87.539062 12.53125 L 89.257812 12.53125 L 89.257812 10.601562 L 87.222656 10.601562 C 85.675781 10.601562 84.453125 11.851562 84.453125 13.390625 L 84.453125 22.777344 L 86.394531 22.777344 Z M 86.390625 13.710938 " fill-opacity="1" fill-rule="evenodd"/><path fill="#e6b4ab" d="M 56.242188 10.566406 L 58.179688 10.566406 L 58.179688 22.777344 L 56.242188 22.777344 Z M 56.242188 10.566406 " fill-opacity="1" fill-rule="evenodd"/><g clip-path="url(#ba54596a84)"><path fill="#e6b4ab" d="M 95.460938 11.90625 C 97.960938 11.90625 99.992188 13.9375 99.992188 16.429688 C 99.992188 18.925781 97.960938 20.957031 95.460938 20.957031 C 92.960938 20.957031 90.929688 18.925781 90.929688 16.429688 C 90.929688 13.9375 92.960938 11.90625 95.460938 11.90625 Z M 106.472656 11.90625 C 108.972656 11.90625 111.007812 13.9375 111.007812 16.429688 C 111.007812 18.925781 108.972656 20.957031 106.472656 20.957031 C 103.972656 20.957031 101.9375 18.925781 101.9375 16.429688 C 101.9375 13.9375 103.972656 11.90625 106.472656 11.90625 Z M 117.484375 11.90625 C 119.984375 11.90625 122.019531 13.9375 122.019531 16.429688 C 122.019531 18.925781 119.984375 20.957031 117.484375 20.957031 C 114.984375 20.957031 112.953125 18.925781 112.953125 16.429688 C 112.953125 13.9375 114.984375 11.90625 117.484375 11.90625 Z M 88.988281 27.460938 L 90.945312 27.460938 L 90.945312 21.050781 C 92.109375 22.1875 93.703125 22.886719 95.460938 22.886719 C 97.785156 22.886719 99.828125 21.660156 100.964844 19.820312 C 102.105469 21.660156 104.144531 22.886719 106.472656 22.886719 C 108.796875 22.886719 110.84375 21.660156 111.976562 19.820312 C 113.117188 21.660156 115.15625 22.886719 117.484375 22.886719 C 121.058594 22.886719 123.953125 19.996094 123.953125 16.429688 C 123.953125 12.867188 121.058594 9.976562 117.484375 9.976562 C 115.15625 9.976562 113.117188 11.203125 111.976562 13.042969 C 110.84375 11.203125 108.796875 9.976562 106.472656 9.976562 C 104.144531 9.976562 102.105469 11.203125 100.964844 13.042969 C 99.828125 11.203125 97.785156 9.976562 95.460938 9.976562 C 91.886719 9.976562 88.988281 12.867188 88.988281 16.429688 Z M 88.988281 27.460938 " fill-opacity="1" fill-rule="evenodd"/></g><path fill="#e6b4ab" d="M 77.03125 11.839844 C 78.984375 11.839844 80.753906 13.078125 81.402344 15.011719 L 72.648438 15.011719 C 73.296875 13.078125 75.078125 11.839844 77.03125 11.839844 M 77.03125 22.820312 C 80.003906 22.820312 82.546875 20.820312 83.246094 17.945312 L 81.371094 17.945312 C 80.726562 19.785156 78.988281 21.027344 77.03125 21.027344 C 74.648438 21.027344 72.671875 19.238281 72.4375 16.808594 L 83.429688 16.808594 L 83.429688 16.429688 C 83.429688 12.910156 80.558594 10.042969 77.03125 10.042969 C 73.5 10.042969 70.625 12.910156 70.625 16.429688 C 70.625 19.953125 73.5 22.820312 77.03125 22.820312 " fill-opacity="1" fill-rule="evenodd"/><path fill="#e6b4ab" d="M 66.355469 22.777344 L 71.210938 10.566406 L 68.996094 10.566406 L 65.089844 20.394531 L 61.183594 10.566406 L 58.972656 10.566406 L 63.824219 22.777344 Z M 66.355469 22.777344 " fill-opacity="1" fill-rule="evenodd"/><path fill="#e6b4ab" d="M 124.914062 6.378906 L 126.855469 6.378906 L 126.855469 22.777344 L 124.914062 22.777344 Z M 124.914062 6.378906 " fill-opacity="1" fill-rule="evenodd"/><path fill="#e6b4ab" d="M 49.574219 6.378906 L 49.574219 19.703125 C 49.582031 20.367188 49.964844 20.886719 50.722656 20.886719 L 55.488281 20.886719 L 55.488281 22.777344 L 48.921875 22.773438 C 48.09375 22.773438 47.613281 22.269531 47.613281 21.539062 L 47.613281 6.378906 Z M 49.574219 6.378906 " fill-opacity="1" fill-rule="evenodd"/><g clip-path="url(#71544b260a)"><path fill="#e6b4ab" d="M 130.347656 7.578125 C 130.519531 7.578125 130.632812 7.511719 130.632812 7.371094 C 130.632812 7.246094 130.53125 7.167969 130.386719 7.167969 L 130.027344 7.167969 L 130.027344 7.578125 Z M 129.804688 6.980469 L 130.410156 6.980469 C 130.753906 6.980469 130.863281 7.191406 130.863281 7.335938 C 130.863281 7.5625 130.707031 7.71875 130.476562 7.734375 L 130.476562 7.742188 C 130.59375 7.78125 130.679688 7.898438 130.792969 8.082031 L 130.960938 8.347656 L 130.691406 8.347656 L 130.570312 8.136719 C 130.394531 7.828125 130.332031 7.769531 130.164062 7.769531 L 130.027344 7.769531 L 130.027344 8.347656 L 129.804688 8.347656 Z M 130.363281 6.582031 C 129.777344 6.582031 129.304688 7.054688 129.304688 7.644531 C 129.304688 8.230469 129.777344 8.707031 130.363281 8.707031 C 130.953125 8.707031 131.433594 8.230469 131.433594 7.644531 C 131.433594 7.054688 130.953125 6.582031 130.363281 6.582031 Z M 130.363281 8.921875 C 129.660156 8.921875 129.089844 8.347656 129.089844 7.644531 C 129.089844 6.9375 129.660156 6.371094 130.363281 6.371094 C 131.074219 6.371094 131.644531 6.9375 131.644531 7.644531 C 131.644531 8.347656 131.074219 8.921875 130.363281 8.921875 Z M 130.363281 8.921875 " fill-opacity="1" fill-rule="evenodd"/></g><path fill="#e6b4ab" d="M 56.238281 6.378906 L 58.179688 6.378906 L 58.179688 8.339844 L 56.238281 8.339844 Z M 56.238281 6.378906 " fill-opacity="1" fill-rule="evenodd"/></svg>