<svg xmlns="http://www.w3.org/2000/svg" xmlns:xlink="http://www.w3.org/1999/xlink" width="70" zoomAndPan="magnify" viewBox="0 0 52.5 52.499999" height="70" preserveAspectRatio="xMidYMid meet" version="1.0"><defs><clipPath id="46823d84b6"><path d="M 4.207031 3.445312 L 48 3.445312 L 48 48.765625 L 4.207031 48.765625 Z M 4.207031 3.445312 " clip-rule="nonzero"/></clipPath></defs><path fill="#996535" d="M 37.640625 42.976562 L 37.640625 45.203125 C 37.640625 45.390625 37.796875 45.546875 37.984375 45.546875 L 41.402344 45.546875 C 41.59375 45.546875 41.746094 45.390625 41.746094 45.203125 L 41.746094 42.976562 C 41.746094 41.925781 40.890625 41.070312 39.839844 41.070312 L 39.546875 41.070312 C 38.496094 41.070312 37.640625 41.925781 37.640625 42.976562 Z M 38.328125 42.976562 C 38.328125 42.304688 38.875 41.757812 39.546875 41.757812 L 39.839844 41.757812 C 40.511719 41.757812 41.058594 42.304688 41.058594 42.976562 L 41.058594 44.859375 L 38.328125 44.859375 Z M 38.328125 42.976562 " fill-opacity="1" fill-rule="nonzero"/><path fill="#996535" d="M 12.355469 41.070312 L 12.066406 41.070312 C 11.015625 41.070312 10.160156 41.925781 10.160156 42.976562 L 10.160156 45.203125 C 10.160156 45.390625 10.3125 45.546875 10.503906 45.546875 L 13.921875 45.546875 C 14.109375 45.546875 14.265625 45.390625 14.265625 45.203125 L 14.265625 42.976562 C 14.265625 41.925781 13.410156 41.070312 12.355469 41.070312 Z M 13.578125 44.859375 L 10.84375 44.859375 L 10.84375 42.976562 C 10.84375 42.304688 11.394531 41.757812 12.066406 41.757812 L 12.355469 41.757812 C 13.03125 41.757812 13.578125 42.304688 13.578125 42.976562 Z M 13.578125 44.859375 " fill-opacity="1" fill-rule="nonzero"/><g clip-path="url(#46823d84b6)"><path fill="#996535" d="M 4.785156 32.933594 L 7.464844 31.328125 L 7.464844 48.210938 C 7.464844 48.402344 7.617188 48.554688 7.808594 48.554688 L 44.046875 48.554688 C 44.238281 48.554688 44.390625 48.402344 44.390625 48.210938 L 44.390625 31.253906 L 47.214844 32.933594 C 47.269531 32.964844 47.332031 32.980469 47.390625 32.980469 C 47.507812 32.980469 47.621094 32.921875 47.6875 32.8125 C 47.78125 32.648438 47.730469 32.4375 47.566406 32.34375 L 33.664062 24.085938 L 33.664062 16.046875 L 36.535156 17.84375 C 36.589844 17.878906 36.652344 17.894531 36.714844 17.894531 C 36.828125 17.894531 36.941406 17.835938 37.007812 17.734375 C 37.105469 17.574219 37.058594 17.359375 36.898438 17.261719 L 33.503906 15.136719 L 32.054688 14.226562 L 26.289062 10.621094 L 26.289062 6.433594 L 28.410156 6.433594 C 28.601562 6.433594 28.753906 6.28125 28.753906 6.09375 C 28.753906 5.902344 28.601562 5.75 28.410156 5.75 L 26.289062 5.75 L 26.289062 3.789062 C 26.289062 3.601562 26.136719 3.445312 25.945312 3.445312 C 25.757812 3.445312 25.605469 3.601562 25.605469 3.789062 L 25.605469 5.75 L 23.484375 5.75 C 23.292969 5.75 23.140625 5.902344 23.140625 6.09375 C 23.140625 6.28125 23.292969 6.433594 23.484375 6.433594 L 25.605469 6.433594 L 25.605469 10.667969 L 15.023438 17.1875 C 14.863281 17.285156 14.8125 17.496094 14.910156 17.660156 C 15.011719 17.820312 15.222656 17.871094 15.382812 17.769531 L 18.191406 16.042969 L 18.191406 24.117188 L 4.433594 32.34375 C 4.269531 32.441406 4.214844 32.652344 4.3125 32.8125 C 4.410156 32.976562 4.621094 33.027344 4.785156 32.933594 Z M 25.644531 47.871094 L 22.570312 47.871094 L 22.570312 44.664062 C 22.570312 42.964844 23.945312 41.582031 25.644531 41.566406 Z M 29.402344 47.871094 L 26.328125 47.871094 L 26.328125 41.566406 C 28.023438 41.582031 29.402344 42.964844 29.402344 44.664062 Z M 33.664062 24.917969 L 43.703125 30.921875 L 43.703125 47.871094 L 35.675781 47.871094 L 35.675781 32.519531 L 38.0625 33.949219 C 38.117188 33.980469 38.179688 33.996094 38.238281 33.996094 C 38.355469 33.996094 38.46875 33.9375 38.535156 33.828125 C 38.628906 33.667969 38.578125 33.457031 38.414062 33.359375 L 35.507812 31.621094 L 33.664062 30.515625 Z M 18.875 15.617188 L 25.816406 11.34375 L 25.984375 11.238281 L 32 15.003906 L 32.980469 15.617188 L 32.980469 30.105469 L 26.105469 25.996094 C 25.996094 25.929688 25.859375 25.929688 25.75 25.996094 L 18.875 30.105469 Z M 21.757812 29.183594 L 25.929688 26.6875 L 30.097656 29.183594 L 34.988281 32.109375 L 34.988281 47.871094 L 30.085938 47.871094 L 30.085938 44.664062 C 30.085938 42.578125 28.390625 40.882812 26.304688 40.882812 L 25.664062 40.882812 C 23.582031 40.882812 21.882812 42.578125 21.882812 44.664062 L 21.882812 47.871094 L 16.867188 47.871094 L 16.867188 32.109375 Z M 8.152344 30.921875 L 18.191406 24.917969 L 18.191406 30.515625 L 16.347656 31.621094 L 13.441406 33.359375 C 13.277344 33.457031 13.226562 33.667969 13.320312 33.828125 C 13.417969 33.992188 13.628906 34.042969 13.792969 33.949219 L 16.179688 32.519531 L 16.179688 47.871094 L 8.152344 47.871094 Z M 8.152344 30.921875 " fill-opacity="1" fill-rule="nonzero"/></g><path fill="#996535" d="M 24.167969 32.929688 L 25.605469 32.929688 L 25.605469 36.015625 C 25.605469 36.203125 25.757812 36.355469 25.949219 36.355469 C 26.136719 36.355469 26.289062 36.203125 26.289062 36.015625 L 26.289062 32.929688 L 27.726562 32.929688 C 27.917969 32.929688 28.070312 32.777344 28.070312 32.585938 C 28.070312 32.398438 27.917969 32.242188 27.726562 32.242188 L 26.289062 32.242188 L 26.289062 30.921875 C 26.289062 30.734375 26.136719 30.578125 25.949219 30.578125 C 25.757812 30.578125 25.605469 30.734375 25.605469 30.921875 L 25.605469 32.242188 L 24.167969 32.242188 C 23.976562 32.242188 23.824219 32.398438 23.824219 32.585938 C 23.824219 32.777344 23.976562 32.929688 24.167969 32.929688 Z M 24.167969 32.929688 " fill-opacity="1" fill-rule="nonzero"/><path fill="#996535" d="M 25.9375 23.5625 C 26.039062 23.5625 26.140625 23.539062 26.234375 23.5 C 26.398438 23.429688 26.558594 23.351562 26.746094 23.246094 C 26.972656 23.121094 27.191406 22.984375 27.398438 22.832031 C 28.695312 21.878906 29.324219 20.792969 29.210938 19.691406 C 29.125 18.8125 28.410156 18.117188 27.550781 18.074219 C 27.164062 18.058594 26.761719 18.195312 26.398438 18.46875 C 26.222656 18.601562 26.0625 18.75 25.929688 18.910156 C 25.792969 18.75 25.632812 18.601562 25.457031 18.46875 C 25.09375 18.195312 24.691406 18.058594 24.304688 18.074219 C 23.445312 18.117188 22.730469 18.8125 22.644531 19.691406 C 22.53125 20.792969 23.160156 21.878906 24.457031 22.832031 C 24.664062 22.984375 24.882812 23.121094 25.105469 23.246094 C 25.296875 23.351562 25.457031 23.429688 25.621094 23.5 C 25.71875 23.542969 25.820312 23.5625 25.925781 23.5625 C 25.929688 23.5625 25.933594 23.5625 25.9375 23.5625 Z M 25.4375 22.644531 C 25.238281 22.535156 25.042969 22.414062 24.863281 22.277344 C 24.101562 21.71875 23.21875 20.828125 23.324219 19.761719 C 23.378906 19.222656 23.824219 18.785156 24.335938 18.761719 C 24.347656 18.761719 24.359375 18.761719 24.375 18.761719 C 24.644531 18.761719 24.886719 18.898438 25.046875 19.019531 C 25.230469 19.15625 25.390625 19.320312 25.511719 19.492188 C 25.609375 19.625 25.761719 19.703125 25.929688 19.703125 C 26.09375 19.703125 26.25 19.625 26.34375 19.488281 C 26.464844 19.320312 26.625 19.15625 26.808594 19.019531 C 26.972656 18.894531 27.230469 18.75 27.519531 18.761719 C 28.03125 18.785156 28.476562 19.222656 28.53125 19.761719 C 28.636719 20.828125 27.753906 21.71875 26.992188 22.277344 C 26.8125 22.414062 26.617188 22.535156 26.414062 22.644531 C 26.246094 22.742188 26.109375 22.808594 25.96875 22.867188 C 25.957031 22.871094 25.941406 22.875 25.929688 22.875 C 25.914062 22.875 25.898438 22.875 25.886719 22.867188 C 25.746094 22.808594 25.609375 22.742188 25.4375 22.644531 Z M 25.4375 22.644531 " fill-opacity="1" fill-rule="nonzero"/></svg>