<svg xmlns="http://www.w3.org/2000/svg" xmlns:xlink="http://www.w3.org/1999/xlink" width="70" zoomAndPan="magnify" viewBox="0 0 52.5 52.499999" height="70" preserveAspectRatio="xMidYMid meet" version="1.0"><defs><clipPath id="efbde69680"><path d="M 23 9 L 38.238281 9 L 38.238281 45 L 23 45 Z M 23 9 " clip-rule="nonzero"/></clipPath><clipPath id="745cf8ddd5"><path d="M 10.007812 12 L 25 12 L 25 47.566406 L 10.007812 47.566406 Z M 10.007812 12 " clip-rule="nonzero"/></clipPath><clipPath id="cc90921268"><path d="M 20 4.476562 L 27 4.476562 L 27 12 L 20 12 Z M 20 4.476562 " clip-rule="nonzero"/></clipPath></defs><g clip-path="url(#efbde69680)"><path fill="#f4eadc" d="M 35.296875 41.203125 C 34.859375 41.164062 34.320312 40.851562 34.171875 40.023438 L 32.316406 30.195312 C 32.929688 29.628906 33.84375 28.691406 34.390625 27.671875 C 34.683594 27.191406 34.847656 26.664062 34.855469 26.140625 C 34.855469 26.046875 34.851562 25.957031 34.84375 25.867188 C 34.835938 25.808594 34.832031 25.753906 34.820312 25.695312 C 34.550781 24.066406 30.355469 10.992188 29.949219 9.726562 C 29.96875 9.703125 29.980469 9.6875 29.984375 9.683594 C 30.015625 9.644531 30.011719 9.589844 29.972656 9.5625 C 29.9375 9.53125 29.882812 9.539062 29.851562 9.574219 C 29.851562 9.578125 29.824219 9.609375 29.777344 9.660156 L 27.03125 10.285156 L 26.953125 10.300781 L 24.210938 10.925781 C 24.148438 10.898438 24.113281 10.878906 24.109375 10.878906 C 24.066406 10.859375 24.015625 10.875 23.992188 10.917969 C 23.972656 10.960938 23.992188 11.015625 24.035156 11.035156 C 24.039062 11.039062 24.058594 11.046875 24.082031 11.058594 C 24.261719 12.355469 26.128906 25.976562 26.585938 27.566406 C 26.601562 27.621094 26.621094 27.675781 26.640625 27.730469 C 26.671875 27.816406 26.707031 27.898438 26.75 27.980469 C 26.980469 28.453125 27.355469 28.855469 27.828125 29.164062 C 28.769531 29.847656 30.007812 30.300781 30.804688 30.546875 L 33.375 40.203125 C 33.554688 40.847656 33.367188 41.304688 33.09375 41.578125 C 32.007812 42.175781 30.207031 43.289062 30.273438 44.0625 L 38.492188 42.195312 C 38.246094 41.546875 36.539062 41.296875 35.296875 41.203125 Z M 35.296875 41.203125 " fill-opacity="1" fill-rule="nonzero"/></g><g clip-path="url(#745cf8ddd5)"><path fill="#f4eadc" d="M 24.503906 14.351562 C 24.484375 14.308594 24.433594 14.289062 24.390625 14.308594 C 24.386719 14.3125 24.351562 14.328125 24.285156 14.355469 L 21.546875 13.734375 L 21.464844 13.714844 L 18.722656 13.089844 C 18.695312 13.0625 18.648438 13.007812 18.648438 13.003906 C 18.617188 12.96875 18.5625 12.960938 18.527344 12.992188 C 18.488281 13.023438 18.480469 13.078125 18.511719 13.113281 C 18.515625 13.117188 18.53125 13.136719 18.550781 13.160156 C 18.539062 13.1875 18.53125 13.222656 18.515625 13.257812 C 17.960938 14.988281 13.941406 27.53125 13.675781 29.125 C 13.667969 29.183594 13.660156 29.242188 13.65625 29.296875 C 13.644531 29.386719 13.640625 29.480469 13.644531 29.570312 C 13.648438 30.097656 13.8125 30.621094 14.105469 31.105469 C 14.65625 32.121094 15.566406 33.058594 16.179688 33.625 L 14.324219 43.453125 C 14.179688 44.28125 13.640625 44.59375 13.203125 44.632812 C 11.957031 44.730469 10.25 44.976562 10.007812 45.625 L 18.226562 47.492188 C 18.292969 46.71875 16.488281 45.605469 15.402344 45.007812 C 15.128906 44.734375 14.945312 44.277344 15.125 43.632812 L 17.691406 33.976562 C 18.492188 33.734375 19.730469 33.28125 20.667969 32.59375 C 21.140625 32.285156 21.515625 31.882812 21.75 31.414062 C 21.789062 31.332031 21.828125 31.246094 21.859375 31.160156 C 21.878906 31.105469 21.894531 31.050781 21.910156 30.996094 C 22.351562 29.472656 24.085938 16.890625 24.386719 14.710938 C 24.398438 14.617188 24.410156 14.542969 24.414062 14.488281 C 24.441406 14.476562 24.457031 14.46875 24.464844 14.464844 C 24.507812 14.445312 24.523438 14.394531 24.503906 14.351562 Z M 24.503906 14.351562 " fill-opacity="1" fill-rule="nonzero"/></g><path fill="#f0dba6" d="M 21.386719 19.554688 C 19.792969 19.597656 17.597656 18.285156 17.410156 18.171875 C 15.410156 24.503906 14.238281 28.414062 14.109375 29.199219 C 14.101562 29.246094 14.09375 29.292969 14.089844 29.347656 C 14.082031 29.417969 14.078125 29.492188 14.082031 29.574219 C 14.085938 30.011719 14.226562 30.46875 14.484375 30.898438 L 14.488281 30.90625 L 14.496094 30.914062 C 15.007812 31.863281 15.859375 32.753906 16.492188 33.335938 C 16.628906 33.46875 16.820312 33.566406 17.023438 33.613281 C 17.21875 33.65625 17.421875 33.648438 17.601562 33.589844 C 18.417969 33.339844 19.578125 32.90625 20.453125 32.269531 L 20.460938 32.261719 L 20.472656 32.257812 C 20.890625 31.984375 21.214844 31.628906 21.410156 31.234375 C 21.445312 31.164062 21.472656 31.097656 21.5 31.027344 C 21.515625 30.976562 21.53125 30.933594 21.542969 30.890625 C 21.765625 30.125 22.59375 24.769531 23.519531 18.214844 C 23.398438 18.445312 22.757812 19.519531 21.386719 19.554688 Z M 16.054688 27.761719 C 15.804688 27.761719 15.804688 27.371094 16.054688 27.371094 C 16.304688 27.371094 16.304688 27.761719 16.054688 27.761719 Z M 16.285156 26.886719 C 16.035156 26.886719 16.035156 26.5 16.285156 26.5 C 16.535156 26.5 16.535156 26.886719 16.285156 26.886719 Z M 16.734375 24.988281 C 16.484375 24.988281 16.484375 24.597656 16.734375 24.597656 C 16.984375 24.597656 16.984375 24.988281 16.734375 24.988281 Z M 17.320312 30.472656 C 17.070312 30.472656 17.070312 30.082031 17.320312 30.082031 C 17.570312 30.082031 17.570312 30.472656 17.320312 30.472656 Z M 17.523438 29.761719 C 17.269531 29.761719 17.273438 29.375 17.523438 29.375 C 17.773438 29.375 17.773438 29.761719 17.523438 29.761719 Z M 21.613281 23.097656 L 19.78125 31.277344 C 19.769531 31.316406 19.734375 31.34375 19.695312 31.34375 C 19.6875 31.34375 19.683594 31.34375 19.675781 31.34375 C 19.628906 31.332031 19.601562 31.285156 19.613281 31.242188 L 21.445312 23.058594 C 21.453125 23.011719 21.5 22.980469 21.546875 22.992188 C 21.59375 23.003906 21.625 23.050781 21.613281 23.097656 Z M 23.527344 18.167969 C 23.527344 18.167969 23.527344 18.167969 23.527344 18.171875 L 20.464844 18.167969 Z M 34.003906 27.484375 L 34.007812 27.476562 L 34.015625 27.464844 C 34.273438 27.039062 34.414062 26.578125 34.417969 26.140625 C 34.417969 26.058594 34.414062 25.984375 34.410156 25.917969 C 34.402344 25.859375 34.398438 25.8125 34.390625 25.769531 C 34.257812 24.984375 33.085938 21.070312 31.085938 14.742188 C 30.902344 14.855469 28.703125 16.167969 27.113281 16.125 C 25.742188 16.089844 25.097656 15.011719 24.976562 14.78125 C 25.90625 21.335938 26.734375 26.695312 26.953125 27.457031 C 26.96875 27.5 26.980469 27.546875 27 27.59375 C 27.023438 27.664062 27.054688 27.734375 27.089844 27.800781 C 27.285156 28.199219 27.609375 28.550781 28.027344 28.824219 L 28.035156 28.832031 L 28.042969 28.835938 C 28.921875 29.476562 30.078125 29.910156 30.898438 30.160156 C 31.078125 30.21875 31.28125 30.226562 31.476562 30.179688 C 31.679688 30.132812 31.867188 30.035156 32.007812 29.902344 C 32.636719 29.320312 33.492188 28.433594 34.003906 27.484375 Z M 27.25 21.425781 C 27 21.425781 27.003906 21.035156 27.25 21.035156 C 27.503906 21.035156 27.5 21.425781 27.25 21.425781 Z M 27.683594 23 C 27.933594 23 27.933594 23.386719 27.683594 23.386719 C 27.433594 23.386719 27.433594 23 27.683594 23 Z M 27.859375 24.300781 C 27.609375 24.300781 27.609375 23.914062 27.859375 23.914062 C 28.109375 23.914062 28.109375 24.300781 27.859375 24.300781 Z M 30.109375 25.121094 C 30.359375 25.121094 30.359375 25.507812 30.109375 25.507812 C 29.855469 25.507812 29.859375 25.121094 30.109375 25.121094 Z M 30.238281 26.257812 C 29.988281 26.257812 29.988281 25.867188 30.238281 25.867188 C 30.488281 25.867188 30.488281 26.257812 30.238281 26.257812 Z M 30.832031 17.527344 C 30.820312 17.484375 30.847656 17.4375 30.894531 17.425781 C 30.941406 17.414062 30.988281 17.441406 31 17.488281 L 32.953125 25.902344 C 32.964844 25.949219 32.9375 25.996094 32.890625 26.003906 C 32.882812 26.007812 32.875 26.007812 32.871094 26.007812 C 32.832031 26.007812 32.796875 25.980469 32.785156 25.941406 Z M 28.035156 14.734375 L 24.972656 14.738281 C 24.972656 14.738281 24.972656 14.738281 24.972656 14.734375 Z M 28.035156 14.734375 " fill-opacity="1" fill-rule="nonzero"/><path fill="#e2b96a" d="M 20.464844 18.167969 L 23.542969 18.167969 C 23.542969 18.167969 23.535156 18.1875 23.519531 18.214844 C 23.398438 18.445312 22.757812 19.519531 21.386719 19.554688 C 19.792969 19.597656 17.597656 18.285156 17.410156 18.171875 C 17.402344 18.167969 17.398438 18.164062 17.398438 18.164062 Z M 24.390625 14.308594 C 24.386719 14.3125 24.351562 14.328125 24.285156 14.355469 C 23.898438 14.523438 22.484375 15.070312 21.261719 14.792969 C 20.035156 14.515625 18.996094 13.410156 18.71875 13.089844 C 18.675781 13.039062 18.648438 13.007812 18.648438 13.003906 C 18.617188 12.96875 18.5625 12.960938 18.527344 12.992188 C 18.488281 13.023438 18.480469 13.078125 18.511719 13.113281 C 18.515625 13.117188 18.53125 13.136719 18.550781 13.160156 C 18.765625 13.414062 19.863281 14.652344 21.222656 14.960938 C 21.480469 15.019531 21.742188 15.042969 22.003906 15.042969 C 23.121094 15.042969 24.175781 14.597656 24.414062 14.488281 C 24.441406 14.476562 24.457031 14.46875 24.464844 14.464844 C 24.507812 14.445312 24.523438 14.394531 24.503906 14.351562 C 24.484375 14.308594 24.433594 14.289062 24.390625 14.308594 Z M 27.113281 16.125 C 28.703125 16.167969 30.902344 14.855469 31.085938 14.742188 C 31.09375 14.738281 31.101562 14.734375 31.101562 14.734375 L 28.035156 14.734375 L 24.972656 14.738281 L 24.957031 14.738281 C 24.957031 14.738281 24.964844 14.753906 24.976562 14.78125 C 25.097656 15.011719 25.742188 16.089844 27.113281 16.125 Z M 27.277344 11.53125 C 28.636719 11.222656 29.734375 9.984375 29.949219 9.726562 C 29.96875 9.703125 29.980469 9.6875 29.984375 9.683594 C 30.015625 9.644531 30.011719 9.589844 29.972656 9.5625 C 29.9375 9.53125 29.882812 9.539062 29.851562 9.574219 C 29.851562 9.578125 29.824219 9.609375 29.777344 9.660156 C 29.5 9.976562 28.464844 11.082031 27.238281 11.363281 C 26.015625 11.640625 24.597656 11.089844 24.210938 10.925781 C 24.148438 10.898438 24.113281 10.878906 24.109375 10.878906 C 24.066406 10.859375 24.015625 10.875 23.992188 10.917969 C 23.972656 10.960938 23.992188 11.015625 24.035156 11.035156 C 24.039062 11.039062 24.058594 11.046875 24.082031 11.058594 C 24.320312 11.164062 25.375 11.613281 26.496094 11.613281 C 26.753906 11.613281 27.019531 11.589844 27.277344 11.53125 Z M 27.277344 11.53125 " fill-opacity="1" fill-rule="nonzero"/><g clip-path="url(#cc90921268)"><path fill="#e2b96a" d="M 21.902344 9.851562 L 20.710938 9.628906 L 21.902344 9.40625 L 22.125 8.210938 L 22.351562 9.40625 L 23.542969 9.628906 L 22.351562 9.851562 L 22.125 11.046875 Z M 24.609375 8.933594 L 24.960938 7.070312 L 26.824219 6.722656 L 24.960938 6.371094 L 24.609375 4.507812 L 24.261719 6.371094 L 22.398438 6.722656 L 24.261719 7.070312 Z M 24.609375 8.933594 " fill-opacity="1" fill-rule="nonzero"/></g></svg>