<svg xmlns="http://www.w3.org/2000/svg" xmlns:xlink="http://www.w3.org/1999/xlink" width="70" zoomAndPan="magnify" viewBox="0 0 52.5 52.499999" height="70" preserveAspectRatio="xMidYMid meet" version="1.0"><defs><clipPath id="8f344d5fcd"><path d="M 3.703125 8 L 48.277344 8 L 48.277344 44 L 3.703125 44 Z M 3.703125 8 " clip-rule="nonzero"/></clipPath><clipPath id="0a6fb3e9b1"><path d="M 34 45 L 36 45 L 36 48.417969 L 34 48.417969 Z M 34 45 " clip-rule="nonzero"/></clipPath><clipPath id="0b27d66af9"><path d="M 14 3.839844 L 16 3.839844 L 16 7 L 14 7 Z M 14 3.839844 " clip-rule="nonzero"/></clipPath></defs><path fill="#996535" d="M 34.742188 27.449219 C 34 25.0625 31.554688 23.636719 29.109375 24.171875 C 28.300781 24.351562 27.550781 24.734375 26.933594 25.289062 L 25.902344 26.210938 C 25.675781 26.414062 25.355469 26.46875 25.078125 26.359375 L 23.789062 25.839844 C 23.019531 25.53125 22.183594 25.429688 21.363281 25.539062 C 18.882812 25.871094 17.070312 28.046875 17.195312 30.542969 C 17.28125 32.3125 18.066406 33.980469 19.386719 35.167969 C 21.976562 37.496094 24.628906 39.417969 27.359375 40.84375 C 27.8125 41.078125 28.367188 40.980469 28.710938 40.605469 C 30.789062 38.332031 32.625 35.617188 34.265625 32.542969 C 35.097656 30.980469 35.265625 29.144531 34.742188 27.449219 Z M 24.75 36.703125 C 24.691406 36.816406 24.578125 36.886719 24.460938 36.886719 C 24.414062 36.886719 24.367188 36.875 24.320312 36.851562 C 24.164062 36.773438 24.097656 36.585938 24.175781 36.425781 L 29.132812 26.25 C 29.210938 26.09375 29.402344 26.027344 29.558594 26.105469 C 29.71875 26.183594 29.785156 26.371094 29.707031 26.53125 Z M 32.457031 28.265625 L 29.144531 35.0625 C 29.089844 35.175781 28.976562 35.242188 28.859375 35.242188 C 28.8125 35.242188 28.761719 35.234375 28.71875 35.210938 C 28.558594 35.132812 28.492188 34.945312 28.570312 34.785156 L 31.882812 27.984375 C 31.960938 27.828125 32.152344 27.761719 32.3125 27.839844 C 32.46875 27.914062 32.535156 28.109375 32.457031 28.265625 Z M 32.457031 28.265625 " fill-opacity="1" fill-rule="nonzero"/><path fill="#996535" d="M 26.21875 11.355469 L 19.695312 12.503906 C 19.574219 12.523438 19.507812 12.671875 19.554688 12.8125 L 20.433594 15.421875 C 20.46875 15.53125 20.5625 15.597656 20.65625 15.582031 L 26.371094 14.574219 C 26.460938 14.558594 26.527344 14.460938 26.527344 14.347656 L 26.457031 11.597656 C 26.453125 11.449219 26.339844 11.332031 26.21875 11.355469 Z M 26.21875 11.355469 " fill-opacity="1" fill-rule="nonzero"/><g clip-path="url(#8f344d5fcd)"><path fill="#996535" d="M 48.203125 34.746094 L 44.960938 16.371094 C 44.761719 15.21875 43.65625 14.449219 42.507812 14.648438 L 18.96875 18.800781 L 16.375 12.167969 C 16.246094 11.835938 16.269531 11.46875 16.445312 11.160156 C 16.617188 10.851562 16.917969 10.640625 17.265625 10.578125 L 27.839844 8.714844 C 28.222656 8.644531 28.578125 8.730469 28.835938 8.953125 C 29.09375 9.175781 29.234375 9.515625 29.222656 9.902344 L 29.089844 15.480469 C 29.085938 15.65625 29.222656 15.804688 29.402344 15.808594 C 29.402344 15.808594 29.40625 15.808594 29.410156 15.808594 C 29.582031 15.808594 29.726562 15.671875 29.730469 15.496094 L 29.863281 9.917969 C 29.878906 9.332031 29.660156 8.816406 29.253906 8.46875 C 28.847656 8.117188 28.304688 7.980469 27.730469 8.082031 L 17.15625 9.949219 C 16.617188 10.042969 16.15625 10.371094 15.886719 10.847656 C 15.621094 11.324219 15.582031 11.890625 15.78125 12.402344 L 18.328125 18.914062 L 13.507812 19.761719 L 13.320312 18.691406 C 13.164062 17.824219 12.335938 17.242188 11.46875 17.394531 L 7.859375 18.03125 C 6.992188 18.1875 6.410156 19.015625 6.5625 19.882812 L 6.75 20.953125 L 5.515625 21.171875 C 4.957031 21.269531 4.472656 21.578125 4.148438 22.042969 C 3.824219 22.507812 3.699219 23.070312 3.796875 23.628906 L 7.039062 42.003906 C 7.21875 43.03125 8.117188 43.757812 9.125 43.757812 C 9.246094 43.757812 9.371094 43.746094 9.496094 43.722656 L 17.460938 42.320312 C 17.632812 42.289062 17.75 42.125 17.71875 41.949219 C 17.6875 41.777344 17.523438 41.660156 17.347656 41.691406 L 9.382812 43.09375 C 8.578125 43.238281 7.808594 42.699219 7.667969 41.894531 L 5.339844 28.683594 L 11.988281 27.511719 C 12.160156 27.480469 12.277344 27.316406 12.246094 27.140625 C 12.214844 26.96875 12.050781 26.851562 11.878906 26.882812 L 5.226562 28.054688 L 4.429688 23.519531 C 4.359375 23.128906 4.445312 22.734375 4.675781 22.410156 C 4.902344 22.085938 5.238281 21.871094 5.628906 21.800781 L 42.621094 15.28125 C 43.425781 15.140625 44.195312 15.675781 44.335938 16.480469 L 45.136719 21.019531 L 38.457031 22.195312 C 38.285156 22.226562 38.167969 22.394531 38.199219 22.566406 C 38.226562 22.722656 38.359375 22.832031 38.511719 22.832031 C 38.53125 22.832031 38.550781 22.828125 38.566406 22.824219 L 45.246094 21.648438 L 47.574219 34.855469 C 47.644531 35.246094 47.558594 35.640625 47.328125 35.964844 C 47.101562 36.289062 46.761719 36.503906 46.375 36.574219 L 36.242188 38.359375 C 37.679688 36.304688 38.429688 33.859375 38.386719 31.304688 C 38.277344 24.769531 32.925781 19.527344 26.414062 19.527344 C 26.34375 19.527344 26.273438 19.53125 26.207031 19.53125 C 23.003906 19.585938 20.019531 20.882812 17.796875 23.183594 C 15.574219 25.484375 14.378906 28.515625 14.433594 31.714844 C 14.546875 38.25 19.898438 43.488281 26.40625 43.488281 C 26.476562 43.488281 26.546875 43.488281 26.617188 43.488281 C 29.816406 43.433594 32.800781 42.132812 35.027344 39.832031 C 35.253906 39.597656 35.46875 39.355469 35.671875 39.109375 L 46.484375 37.199219 C 47.042969 37.101562 47.527344 36.792969 47.851562 36.328125 C 48.179688 35.867188 48.300781 35.304688 48.203125 34.746094 Z M 7.382812 20.84375 L 7.191406 19.773438 C 7.101562 19.253906 7.449219 18.753906 7.96875 18.664062 L 11.582031 18.027344 C 12.101562 17.933594 12.597656 18.285156 12.691406 18.804688 L 12.878906 19.875 Z M 34.566406 39.390625 C 32.460938 41.570312 29.632812 42.796875 26.605469 42.847656 C 26.539062 42.851562 26.472656 42.851562 26.40625 42.851562 C 20.246094 42.851562 15.179688 37.890625 15.070312 31.703125 C 15.019531 28.675781 16.152344 25.808594 18.253906 23.628906 C 20.359375 21.449219 23.1875 20.222656 26.214844 20.171875 C 26.28125 20.167969 26.347656 20.167969 26.414062 20.167969 C 32.574219 20.167969 37.644531 25.128906 37.75 31.316406 C 37.800781 34.34375 36.671875 37.210938 34.566406 39.390625 Z M 34.566406 39.390625 " fill-opacity="1" fill-rule="nonzero"/></g><path fill="#996535" d="M 42.816406 42.757812 L 40.636719 41.804688 C 40.472656 41.734375 40.285156 41.808594 40.214844 41.96875 C 40.144531 42.132812 40.21875 42.320312 40.378906 42.390625 L 42.558594 43.34375 C 42.601562 43.363281 42.644531 43.371094 42.6875 43.371094 C 42.808594 43.371094 42.925781 43.300781 42.980469 43.179688 C 43.050781 43.019531 42.976562 42.828125 42.816406 42.757812 Z M 42.816406 42.757812 " fill-opacity="1" fill-rule="nonzero"/><g clip-path="url(#0a6fb3e9b1)"><path fill="#996535" d="M 34.847656 45.4375 C 34.804688 45.265625 34.632812 45.160156 34.460938 45.203125 C 34.289062 45.246094 34.183594 45.417969 34.226562 45.589844 L 34.800781 47.898438 C 34.835938 48.042969 34.964844 48.140625 35.109375 48.140625 C 35.132812 48.140625 35.160156 48.140625 35.183594 48.132812 C 35.355469 48.089844 35.460938 47.917969 35.417969 47.746094 Z M 34.847656 45.4375 " fill-opacity="1" fill-rule="nonzero"/></g><path fill="#996535" d="M 7.625 9.960938 L 9.878906 10.714844 C 9.914062 10.726562 9.945312 10.730469 9.980469 10.730469 C 10.113281 10.730469 10.238281 10.644531 10.285156 10.511719 C 10.339844 10.34375 10.25 10.164062 10.082031 10.105469 L 7.828125 9.355469 C 7.65625 9.296875 7.476562 9.390625 7.421875 9.554688 C 7.367188 9.722656 7.457031 9.90625 7.625 9.960938 Z M 7.625 9.960938 " fill-opacity="1" fill-rule="nonzero"/><g clip-path="url(#0b27d66af9)"><path fill="#996535" d="M 15.316406 6.574219 C 15.363281 6.707031 15.488281 6.792969 15.617188 6.792969 C 15.652344 6.792969 15.6875 6.785156 15.722656 6.773438 C 15.890625 6.714844 15.980469 6.535156 15.921875 6.367188 L 15.144531 4.121094 C 15.085938 3.953125 14.902344 3.863281 14.738281 3.921875 C 14.570312 3.980469 14.480469 4.164062 14.539062 4.328125 Z M 15.316406 6.574219 " fill-opacity="1" fill-rule="nonzero"/></g></svg>