<svg xmlns="http://www.w3.org/2000/svg" xmlns:xlink="http://www.w3.org/1999/xlink" width="70" zoomAndPan="magnify" viewBox="0 0 52.5 52.499999" height="70" preserveAspectRatio="xMidYMid meet" version="1.0"><defs><clipPath id="3e7052b80d"><path d="M 10.105469 3.25 L 42 3.25 L 42 48.570312 L 10.105469 48.570312 Z M 10.105469 3.25 " clip-rule="nonzero"/></clipPath></defs><g clip-path="url(#3e7052b80d)"><path fill="#996535" d="M 31.453125 6.261719 C 29.429688 6.707031 27.363281 7.445312 25.34375 7.898438 C 25.316406 7.90625 25.292969 7.914062 25.269531 7.925781 C 25.230469 7.949219 25.195312 7.980469 25.171875 8.015625 C 25.144531 8.054688 25.128906 8.097656 25.125 8.144531 C 25.121094 8.171875 25.125 8.195312 25.128906 8.222656 L 25.132812 8.25 C 25.214844 8.707031 25.292969 9.164062 25.371094 9.621094 C 25.4375 10.035156 25.503906 10.445312 25.566406 10.855469 L 25.566406 10.863281 C 23.683594 10.292969 21.65625 9.910156 19.789062 9.328125 C 19.765625 9.320312 19.738281 9.316406 19.714844 9.316406 L 19.710938 9.316406 C 19.664062 9.316406 19.621094 9.324219 19.582031 9.34375 C 19.542969 9.363281 19.507812 9.394531 19.480469 9.429688 L 19.476562 9.433594 C 19.464844 9.453125 19.453125 9.476562 19.441406 9.5 C 17.800781 14.082031 15.753906 18.40625 14.230469 23.054688 C 13.789062 24.40625 13.277344 26.058594 13.132812 27.542969 C 13.03125 28.574219 13.109375 29.527344 13.480469 30.257812 C 13.832031 30.941406 14.332031 31.445312 14.84375 31.820312 C 14.941406 31.894531 15.109375 31.996094 15.324219 32.109375 C 15.398438 34.292969 14.925781 36.367188 14.449219 38.527344 C 13.902344 41.011719 13.300781 43.464844 12.582031 45.90625 C 11.886719 45.761719 11.273438 45.886719 10.84375 46.117188 C 10.472656 46.316406 10.230469 46.597656 10.144531 46.867188 C 10.144531 46.875 10.144531 46.878906 10.140625 46.882812 L 10.140625 46.886719 C 10.101562 47.03125 10.1875 47.1875 10.335938 47.226562 C 12.179688 47.738281 14.042969 48.195312 15.886719 48.710938 C 16.035156 48.753906 16.1875 48.667969 16.230469 48.519531 C 16.230469 48.519531 16.230469 48.515625 16.230469 48.515625 C 16.234375 48.507812 16.234375 48.496094 16.238281 48.488281 C 16.339844 47.917969 16.132812 47.464844 15.703125 47.09375 C 15.351562 46.792969 14.839844 46.546875 14.226562 46.351562 C 14.410156 44.558594 15.019531 42.804688 15.511719 41.074219 C 16.304688 38.308594 17 35.492188 18.261719 32.917969 C 18.546875 32.933594 18.78125 32.929688 18.917969 32.914062 C 19.546875 32.84375 20.230469 32.65625 20.878906 32.238281 C 21.566406 31.792969 22.109375 31.007812 22.539062 30.0625 C 23.152344 28.707031 23.539062 27.019531 23.832031 25.628906 C 24.734375 21.328125 25.140625 17.046875 25.839844 12.75 C 26.304688 16.023438 26.703125 19.289062 27.390625 22.566406 C 27.683594 23.957031 28.070312 25.644531 28.683594 27 C 29.113281 27.945312 29.65625 28.734375 30.34375 29.175781 C 30.992188 29.59375 31.671875 29.78125 32.304688 29.851562 C 32.429688 29.863281 32.625 29.871094 32.867188 29.859375 C 34.019531 31.714844 34.652344 33.746094 35.316406 35.855469 C 36.085938 38.28125 36.792969 40.703125 37.386719 43.179688 C 36.714844 43.402344 36.246094 43.816406 35.988281 44.234375 C 35.769531 44.589844 35.699219 44.953125 35.761719 45.230469 C 35.761719 45.234375 35.765625 45.242188 35.765625 45.246094 L 35.765625 45.25 C 35.804688 45.398438 35.957031 45.484375 36.105469 45.449219 C 37.957031 44.96875 39.800781 44.433594 41.65625 43.957031 C 41.804688 43.921875 41.894531 43.769531 41.855469 43.621094 C 41.855469 43.617188 41.855469 43.617188 41.855469 43.613281 C 41.851562 43.605469 41.847656 43.597656 41.847656 43.589844 C 41.648438 43.046875 41.242188 42.753906 40.6875 42.648438 C 40.234375 42.5625 39.667969 42.609375 39.039062 42.742188 C 38.300781 41.101562 37.953125 39.277344 37.511719 37.53125 C 36.8125 34.742188 36.007812 31.949219 35.816406 29.089844 C 36.070312 28.960938 36.269531 28.84375 36.378906 28.757812 C 36.890625 28.382812 37.390625 27.882812 37.742188 27.195312 C 38.113281 26.46875 38.191406 25.515625 38.089844 24.480469 C 37.945312 23 37.433594 21.34375 36.992188 19.992188 C 35.46875 15.34375 33.421875 11.019531 31.78125 6.441406 C 31.773438 6.421875 31.761719 6.398438 31.75 6.382812 C 31.726562 6.34375 31.691406 6.3125 31.652344 6.289062 C 31.613281 6.265625 31.566406 6.253906 31.523438 6.253906 L 31.519531 6.253906 C 31.5 6.253906 31.476562 6.257812 31.453125 6.261719 Z M 15.886719 32.375 C 15.914062 34.5 15.460938 36.535156 14.992188 38.644531 C 14.433594 41.1875 13.816406 43.691406 13.074219 46.1875 C 13.085938 46.234375 13.085938 46.285156 13.070312 46.332031 C 13.023438 46.480469 12.867188 46.558594 12.722656 46.515625 L 12.714844 46.511719 C 12.707031 46.511719 12.699219 46.507812 12.691406 46.507812 C 12.683594 46.503906 12.675781 46.5 12.667969 46.5 C 12.039062 46.316406 11.484375 46.402344 11.105469 46.605469 C 11.003906 46.660156 10.914062 46.722656 10.84375 46.792969 C 12.457031 47.234375 14.078125 47.636719 15.695312 48.082031 C 15.65625 47.863281 15.53125 47.675781 15.339844 47.515625 C 15.015625 47.234375 14.519531 47.019531 13.941406 46.839844 C 13.898438 46.828125 13.859375 46.804688 13.828125 46.777344 C 13.71875 46.730469 13.644531 46.621094 13.65625 46.496094 C 13.816406 44.601562 14.457031 42.75 14.980469 40.921875 C 15.757812 38.191406 16.453125 35.414062 17.671875 32.863281 C 17.386719 32.824219 17.078125 32.769531 16.777344 32.6875 C 16.464844 32.605469 16.160156 32.492188 15.886719 32.375 Z M 35.277344 29.339844 C 35.007812 29.449219 34.714844 29.554688 34.414062 29.632812 C 34.101562 29.71875 33.785156 29.773438 33.488281 29.808594 C 34.570312 31.636719 35.195312 33.625 35.847656 35.6875 C 36.632812 38.167969 37.351562 40.644531 37.957031 43.179688 C 37.992188 43.214844 38.015625 43.257812 38.023438 43.304688 C 38.058594 43.457031 37.964844 43.605469 37.816406 43.636719 L 37.808594 43.640625 C 37.800781 43.640625 37.792969 43.644531 37.785156 43.644531 C 37.777344 43.648438 37.765625 43.648438 37.757812 43.652344 C 37.125 43.804688 36.6875 44.160156 36.460938 44.523438 C 36.402344 44.625 36.355469 44.722656 36.324219 44.816406 C 37.941406 44.394531 39.554688 43.929688 41.171875 43.507812 C 41.03125 43.339844 40.828125 43.238281 40.582031 43.195312 C 40.160156 43.113281 39.625 43.175781 39.035156 43.3125 C 38.988281 43.320312 38.945312 43.320312 38.90625 43.308594 C 38.789062 43.328125 38.667969 43.265625 38.613281 43.152344 C 37.808594 41.433594 37.4375 39.507812 36.976562 37.664062 C 36.285156 34.910156 35.496094 32.15625 35.277344 29.339844 Z M 17.523438 15.925781 C 16.546875 18.328125 15.578125 20.730469 14.757812 23.226562 C 14.328125 24.542969 13.828125 26.152344 13.6875 27.597656 C 13.59375 28.511719 13.644531 29.359375 13.976562 30.003906 C 14.285156 30.605469 14.722656 31.042969 15.171875 31.375 C 15.269531 31.445312 15.449219 31.550781 15.671875 31.667969 C 15.707031 31.675781 15.738281 31.691406 15.761719 31.710938 C 16.089844 31.871094 16.5 32.035156 16.921875 32.152344 C 17.710938 32.363281 18.546875 32.394531 18.855469 32.359375 C 19.410156 32.300781 20.007812 32.136719 20.578125 31.769531 C 21.183594 31.378906 21.652344 30.671875 22.03125 29.832031 C 22.628906 28.511719 23.003906 26.867188 23.289062 25.511719 C 23.894531 22.628906 24.273438 19.757812 24.671875 16.878906 C 23.414062 16.738281 22.128906 16.808594 20.886719 16.621094 C 19.742188 16.445312 18.695312 15.957031 17.523438 15.925781 Z M 34.371094 14.523438 C 32.808594 14.515625 31.335938 14.824219 29.777344 14.914062 C 28.753906 14.972656 27.726562 14.867188 26.714844 15.011719 C 27.058594 17.488281 27.414062 19.96875 27.933594 22.453125 C 28.21875 23.808594 28.59375 25.453125 29.191406 26.773438 C 29.570312 27.609375 30.039062 28.316406 30.644531 28.710938 C 31.214844 29.078125 31.8125 29.238281 32.367188 29.300781 C 32.488281 29.3125 32.695312 29.316406 32.945312 29.300781 C 32.980469 29.292969 33.015625 29.292969 33.046875 29.296875 C 33.40625 29.269531 33.847656 29.210938 34.273438 29.097656 C 35.058594 28.886719 35.796875 28.496094 36.050781 28.3125 C 36.5 27.980469 36.9375 27.542969 37.246094 26.941406 C 37.578125 26.296875 37.625 25.449219 37.535156 24.535156 C 37.394531 23.09375 36.894531 21.484375 36.464844 20.167969 C 35.835938 18.246094 35.117188 16.378906 34.371094 14.523438 Z M 35.410156 27.089844 C 35.191406 27.273438 34.960938 27.421875 34.699219 27.546875 C 34.5625 27.613281 34.503906 27.777344 34.570312 27.917969 C 34.636719 28.054688 34.800781 28.113281 34.941406 28.046875 C 35.242188 27.90625 35.507812 27.730469 35.765625 27.519531 C 35.882812 27.421875 35.898438 27.246094 35.800781 27.128906 C 35.703125 27.011719 35.527344 26.992188 35.410156 27.089844 Z M 35.511719 20.757812 C 36.058594 22.179688 36.707031 24.027344 36.226562 25.546875 C 36.179688 25.691406 36.261719 25.847656 36.410156 25.894531 C 36.554688 25.941406 36.710938 25.859375 36.757812 25.714844 C 37.273438 24.078125 36.617188 22.089844 36.027344 20.558594 C 35.972656 20.417969 35.8125 20.34375 35.667969 20.398438 C 35.527344 20.453125 35.453125 20.617188 35.511719 20.757812 Z M 15.054688 23.964844 C 14.925781 24.25 14.800781 24.535156 14.695312 24.828125 C 14.640625 24.96875 14.714844 25.128906 14.859375 25.183594 C 15.003906 25.234375 15.164062 25.164062 15.214844 25.019531 C 15.320312 24.738281 15.4375 24.464844 15.558594 24.191406 C 15.621094 24.050781 15.558594 23.886719 15.417969 23.824219 C 15.28125 23.761719 15.117188 23.824219 15.054688 23.964844 Z M 16.683594 18.964844 C 16.316406 19.964844 15.96875 20.964844 15.632812 21.972656 C 15.582031 22.117188 15.660156 22.273438 15.808594 22.324219 C 15.953125 22.371094 16.109375 22.292969 16.160156 22.148438 C 16.492188 21.144531 16.839844 20.148438 17.207031 19.15625 C 17.257812 19.015625 17.183594 18.855469 17.042969 18.800781 C 16.898438 18.746094 16.738281 18.820312 16.683594 18.964844 Z M 19.871094 9.953125 C 19.597656 10.703125 19.316406 11.445312 19.027344 12.183594 C 18.621094 13.222656 18.203125 14.25 17.785156 15.28125 L 17.742188 15.382812 C 18.859375 15.460938 19.867188 15.90625 20.96875 16.070312 C 22.210938 16.257812 23.492188 16.1875 24.75 16.328125 L 24.761719 16.222656 C 24.886719 15.324219 25.015625 14.429688 25.15625 13.535156 C 25.261719 12.835938 25.378906 12.132812 25.503906 11.433594 L 25.503906 11.425781 C 23.675781 10.863281 21.707031 10.484375 19.875 9.9375 Z M 31.339844 6.855469 C 29.476562 7.285156 27.582031 7.945312 25.722656 8.382812 C 26.082031 10.410156 26.359375 12.4375 26.640625 14.460938 C 27.667969 14.316406 28.707031 14.421875 29.746094 14.359375 C 31.238281 14.273438 32.65625 13.988281 34.148438 13.972656 C 33.195312 11.609375 32.214844 9.269531 31.339844 6.855469 Z M 19.113281 7.375 C 19.382812 7.496094 19.636719 7.636719 19.898438 7.773438 C 20.03125 7.84375 20.199219 7.792969 20.273438 7.65625 C 20.34375 7.523438 20.292969 7.355469 20.15625 7.28125 C 19.886719 7.140625 19.617188 6.992188 19.339844 6.867188 C 19.199219 6.804688 19.035156 6.871094 18.972656 7.007812 C 18.910156 7.148438 18.972656 7.3125 19.113281 7.375 Z M 20.996094 4.84375 C 21.171875 5.105469 21.351562 5.371094 21.503906 5.648438 C 21.582031 5.78125 21.75 5.832031 21.882812 5.757812 C 22.015625 5.679688 22.066406 5.511719 21.988281 5.378906 C 21.828125 5.085938 21.640625 4.808594 21.453125 4.53125 C 21.367188 4.40625 21.195312 4.371094 21.066406 4.457031 C 20.941406 4.542969 20.90625 4.71875 20.996094 4.84375 Z M 27.800781 4.085938 C 27.6875 4.410156 27.554688 4.726562 27.453125 5.050781 C 27.40625 5.199219 27.488281 5.351562 27.632812 5.398438 C 27.78125 5.445312 27.9375 5.363281 27.980469 5.21875 C 28.082031 4.898438 28.214844 4.585938 28.324219 4.269531 C 28.375 4.125 28.296875 3.964844 28.152344 3.914062 C 28.007812 3.863281 27.851562 3.941406 27.800781 4.085938 Z M 24.75 3.535156 C 24.75 3.878906 24.757812 4.226562 24.773438 4.570312 C 24.78125 4.722656 24.910156 4.84375 25.066406 4.835938 C 25.21875 4.828125 25.335938 4.699219 25.328125 4.546875 C 25.3125 4.207031 25.304688 3.871094 25.304688 3.535156 C 25.304688 3.382812 25.179688 3.257812 25.027344 3.257812 C 24.871094 3.257812 24.75 3.382812 24.75 3.535156 Z M 24.75 3.535156 " fill-opacity="1" fill-rule="evenodd"/></g></svg>