<svg xmlns="http://www.w3.org/2000/svg" xmlns:xlink="http://www.w3.org/1999/xlink" width="70" zoomAndPan="magnify" viewBox="0 0 52.5 52.499999" height="70" preserveAspectRatio="xMidYMid meet" version="1.0"><defs><clipPath id="74eef52958"><path d="M 2.957031 32.394531 L 48.996094 32.394531 L 48.996094 37.03125 L 2.957031 37.03125 Z M 2.957031 32.394531 " clip-rule="nonzero"/></clipPath><clipPath id="3b4b1b2e79"><path d="M 22 5.199219 L 30 5.199219 L 30 12 L 22 12 Z M 22 5.199219 " clip-rule="nonzero"/></clipPath></defs><g clip-path="url(#74eef52958)"><path fill="#996535" d="M 47.210938 36.128906 L 4.789062 36.128906 C 4.277344 36.128906 3.859375 35.710938 3.859375 35.199219 L 3.859375 34.273438 C 3.859375 33.761719 4.277344 33.347656 4.789062 33.347656 C 4.808594 33.347656 4.824219 33.347656 4.84375 33.34375 C 4.886719 33.34375 4.957031 33.34375 5.003906 33.34375 C 5.019531 33.34375 5.035156 33.34375 5.050781 33.34375 L 47.160156 33.34375 C 47.179688 33.347656 47.195312 33.347656 47.210938 33.347656 C 47.722656 33.347656 48.140625 33.761719 48.140625 34.273438 L 48.140625 35.199219 C 48.140625 35.210938 48.140625 35.226562 48.140625 35.238281 C 48.121094 35.734375 47.710938 36.128906 47.210938 36.128906 Z M 49.042969 35.148438 L 49.042969 34.273438 C 49.042969 33.285156 48.25 32.472656 47.265625 32.445312 C 47.25 32.441406 47.230469 32.441406 47.210938 32.441406 L 5.050781 32.441406 C 5.039062 32.441406 5.027344 32.441406 5.011719 32.441406 C 4.929688 32.4375 4.855469 32.4375 4.789062 32.445312 C 3.777344 32.445312 2.957031 33.265625 2.957031 34.273438 L 2.957031 35.199219 C 2.957031 36.210938 3.777344 37.03125 4.789062 37.03125 L 47.210938 37.03125 C 48.222656 37.03125 49.046875 36.210938 49.046875 35.199219 C 49.046875 35.183594 49.042969 35.167969 49.042969 35.148438 " fill-opacity="1" fill-rule="nonzero"/></g><path fill="#996535" d="M 30.265625 22.132812 L 26 26.691406 L 21.734375 22.132812 C 21.367188 21.746094 21.164062 21.21875 21.164062 20.652344 C 21.164062 19.515625 22 18.59375 23.023438 18.59375 C 23.832031 18.59375 24.320312 19.136719 24.886719 19.765625 L 25.148438 20.050781 C 25.339844 20.304688 25.632812 20.457031 25.949219 20.472656 C 26.269531 20.484375 26.566406 20.363281 26.78125 20.132812 L 27.492188 19.367188 C 27.695312 19.152344 27.710938 19.132812 27.773438 19.074219 C 28.105469 18.765625 28.53125 18.59375 28.972656 18.59375 C 29.703125 18.59375 30.328125 19.027344 30.644531 19.75 C 31 20.574219 30.851562 21.511719 30.265625 22.132812 Z M 28.972656 17.6875 C 28.300781 17.6875 27.65625 17.949219 27.15625 18.414062 C 27.085938 18.480469 27.066406 18.503906 26.832031 18.753906 L 26.121094 19.515625 C 26.074219 19.566406 26.015625 19.566406 25.992188 19.570312 C 25.964844 19.566406 25.90625 19.558594 25.835938 19.46875 L 25.558594 19.160156 C 24.9375 18.472656 24.234375 17.6875 23.023438 17.6875 C 21.5 17.6875 20.261719 19.015625 20.261719 20.652344 C 20.261719 21.449219 20.550781 22.195312 21.074219 22.753906 L 25.671875 27.660156 C 25.757812 27.753906 25.875 27.804688 26 27.804688 C 26.125 27.804688 26.246094 27.753906 26.328125 27.660156 L 30.925781 22.753906 C 31.757812 21.863281 31.972656 20.542969 31.472656 19.390625 C 31.015625 18.339844 30.058594 17.6875 28.972656 17.6875 " fill-opacity="1" fill-rule="nonzero"/><g clip-path="url(#3b4b1b2e79)"><path fill="#996535" d="M 26 6.105469 C 27.160156 6.105469 28.101562 7.046875 28.101562 8.207031 C 28.101562 9.367188 27.160156 10.3125 26 10.3125 C 24.839844 10.3125 23.894531 9.371094 23.894531 8.207031 C 23.894531 7.046875 24.839844 6.105469 26 6.105469 Z M 26 11.21875 C 27.65625 11.214844 29.007812 9.867188 29.007812 8.207031 C 29.007812 6.550781 27.65625 5.199219 26 5.199219 C 24.339844 5.199219 22.988281 6.550781 22.988281 8.207031 C 22.988281 9.867188 24.339844 11.21875 26 11.21875 " fill-opacity="1" fill-rule="nonzero"/></g><path fill="#996535" d="M 11.984375 18.257812 C 19.710938 10.53125 32.285156 10.53125 40.015625 18.257812 C 43.492188 21.738281 45.53125 26.320312 45.789062 31.207031 L 6.207031 31.207031 C 6.464844 26.320312 8.507812 21.738281 11.984375 18.257812 Z M 5.734375 32.109375 L 46.261719 32.109375 C 46.382812 32.109375 46.5 32.058594 46.585938 31.972656 C 46.671875 31.886719 46.71875 31.765625 46.714844 31.644531 C 46.554688 26.351562 44.402344 21.371094 40.652344 17.621094 C 32.574219 9.539062 19.425781 9.539062 11.34375 17.621094 C 7.59375 21.371094 5.441406 26.351562 5.285156 31.644531 C 5.28125 31.765625 5.324219 31.886719 5.410156 31.972656 C 5.496094 32.058594 5.613281 32.109375 5.734375 32.109375 " fill-opacity="1" fill-rule="nonzero"/><path fill="#996535" d="M 31.164062 22.972656 C 30.644531 23.53125 30.097656 24.140625 29.539062 24.761719 C 28.394531 26.03125 27.207031 27.347656 26.113281 28.375 C 26.046875 28.4375 25.941406 28.433594 25.875 28.367188 L 20.832031 22.972656 C 20.246094 22.351562 19.925781 21.523438 19.925781 20.648438 C 19.925781 18.832031 21.316406 17.351562 23.023438 17.351562 C 23.773438 17.351562 24.5 17.644531 25.066406 18.171875 C 25.15625 18.261719 25.210938 18.320312 25.363281 18.480469 L 25.667969 18.808594 C 25.753906 18.898438 25.875 18.953125 26 18.953125 C 26.121094 18.953125 26.242188 18.902344 26.328125 18.808594 L 26.636719 18.480469 C 26.785156 18.320312 26.839844 18.261719 26.933594 18.175781 C 27.5 17.644531 28.222656 17.351562 28.972656 17.351562 C 30.683594 17.351562 32.070312 18.832031 32.070312 20.648438 C 32.070312 21.523438 31.75 22.351562 31.164062 22.972656 Z M 28.972656 16.449219 C 27.992188 16.449219 27.050781 16.828125 26.316406 17.515625 C 26.214844 17.609375 26.152344 17.671875 26 17.839844 C 25.84375 17.675781 25.785156 17.609375 25.683594 17.515625 C 24.949219 16.828125 24.003906 16.449219 23.023438 16.449219 C 20.816406 16.449219 19.023438 18.335938 19.023438 20.648438 C 19.023438 21.753906 19.429688 22.800781 20.171875 23.589844 L 25.214844 28.984375 C 25.425781 29.210938 25.710938 29.324219 26 29.324219 C 26.261719 29.324219 26.523438 29.226562 26.730469 29.035156 C 27.855469 27.980469 29.050781 26.652344 30.210938 25.363281 C 30.765625 24.746094 31.308594 24.144531 31.824219 23.589844 C 32.566406 22.800781 32.976562 21.753906 32.976562 20.648438 C 32.976562 18.335938 31.179688 16.449219 28.972656 16.449219 " fill-opacity="1" fill-rule="nonzero"/></svg>