<svg xmlns="http://www.w3.org/2000/svg" xmlns:xlink="http://www.w3.org/1999/xlink" width="70" zoomAndPan="magnify" viewBox="0 0 52.5 52.499999" height="70" preserveAspectRatio="xMidYMid meet" version="1.0"><defs><clipPath id="34d48e6a72"><path d="M 8.101562 3.078125 L 43.761719 3.078125 L 43.761719 49 L 8.101562 49 Z M 8.101562 3.078125 " clip-rule="nonzero"/></clipPath></defs><g clip-path="url(#34d48e6a72)"><path fill="#996535" d="M 27.71875 3.316406 C 27.667969 3.410156 27.675781 3.453125 27.757812 3.542969 C 27.867188 3.664062 28.257812 3.917969 28.664062 4.132812 C 28.808594 4.207031 29.042969 4.359375 29.183594 4.46875 C 29.757812 4.917969 29.855469 4.976562 29.945312 4.917969 C 29.992188 4.886719 30.042969 4.828125 30.058594 4.789062 C 30.082031 4.710938 29.347656 3.988281 28.867188 3.621094 C 28.316406 3.203125 27.84375 3.078125 27.71875 3.316406 M 26.8125 3.652344 C 26.402344 3.941406 26.292969 4.082031 26.257812 4.382812 C 26.226562 4.679688 26.347656 4.898438 26.546875 4.898438 C 26.699219 4.898438 26.792969 4.730469 26.792969 4.453125 C 26.792969 4.28125 26.96875 4.074219 27.222656 3.953125 C 27.394531 3.871094 27.433594 3.667969 27.304688 3.527344 C 27.253906 3.46875 27.195312 3.421875 27.175781 3.421875 C 27.15625 3.421875 26.996094 3.527344 26.8125 3.652344 M 28.222656 4.089844 C 28.109375 4.203125 28.144531 4.273438 28.566406 4.777344 C 28.972656 5.265625 29.140625 5.382812 29.246094 5.253906 C 29.351562 5.125 29.128906 4.773438 28.632812 4.28125 C 28.351562 4.003906 28.320312 3.988281 28.222656 4.089844 M 27.515625 4.199219 C 27.417969 4.320312 27.34375 4.773438 27.410156 4.839844 C 27.515625 4.945312 27.613281 4.898438 27.691406 4.714844 C 27.828125 4.386719 27.6875 3.984375 27.515625 4.199219 M 37.992188 4.660156 C 37.726562 4.953125 37.707031 4.964844 37.613281 4.878906 C 37.257812 4.558594 36.726562 4.855469 36.726562 5.375 C 36.726562 5.535156 36.648438 5.570312 36.441406 5.496094 C 36.160156 5.394531 35.722656 5.566406 35.511719 5.859375 C 35.285156 6.179688 35.25 6.519531 35.425781 6.761719 C 35.542969 6.929688 35.550781 6.992188 35.542969 7.570312 C 35.535156 8.082031 35.507812 8.285156 35.390625 8.65625 C 35.222656 9.179688 35.238281 9.320312 35.484375 9.578125 C 35.820312 9.925781 36.097656 9.714844 35.957031 9.222656 C 35.914062 9.058594 35.902344 8.761719 35.929688 8.265625 C 35.949219 7.867188 35.96875 7.410156 35.976562 7.246094 L 35.992188 6.949219 L 36.304688 6.871094 C 36.476562 6.832031 36.652344 6.808594 36.691406 6.824219 C 36.738281 6.839844 36.777344 6.984375 36.800781 7.1875 C 36.855469 7.699219 37.058594 8.007812 37.339844 8.007812 C 37.515625 8.007812 37.84375 7.722656 37.980469 7.445312 C 38.035156 7.339844 38.085938 7.304688 38.144531 7.332031 C 38.355469 7.425781 38.527344 7.414062 38.6875 7.304688 C 38.777344 7.238281 38.863281 7.210938 38.878906 7.238281 C 38.910156 7.285156 38.925781 7.527344 38.988281 8.679688 C 39.015625 9.195312 39.109375 9.375 39.359375 9.375 C 39.585938 9.375 39.902344 9.042969 40.050781 8.644531 C 40.429688 7.628906 40.390625 5.503906 39.988281 5.070312 C 39.761719 4.828125 39.609375 4.78125 39.261719 4.851562 C 38.949219 4.914062 38.949219 4.914062 38.824219 4.757812 C 38.578125 4.441406 38.476562 4.351562 38.375 4.351562 C 38.320312 4.351562 38.148438 4.492188 37.992188 4.660156 M 27.828125 5.265625 C 27.828125 5.371094 28.449219 5.949219 28.667969 6.050781 C 28.789062 6.105469 28.828125 6.097656 28.921875 6.015625 C 28.980469 5.960938 29.03125 5.886719 29.03125 5.851562 C 29.03125 5.78125 28.804688 5.550781 28.734375 5.550781 C 28.710938 5.550781 28.546875 5.464844 28.375 5.359375 C 28.027344 5.148438 27.828125 5.113281 27.828125 5.265625 M 30.144531 5.351562 C 29.917969 5.4375 29.390625 5.761719 29.160156 5.953125 C 28.96875 6.113281 28.921875 6.296875 29.039062 6.414062 C 29.128906 6.503906 29.355469 6.496094 29.390625 6.40625 C 29.4375 6.28125 30.269531 5.714844 30.40625 5.714844 C 30.867188 5.714844 30.675781 6.320312 30.085938 6.726562 C 29.910156 6.847656 29.761719 6.988281 29.75 7.039062 C 29.707031 7.269531 30.113281 7.203125 30.546875 6.90625 C 30.820312 6.714844 30.996094 6.40625 31.03125 6.023438 C 31.058594 5.789062 31.042969 5.71875 30.9375 5.585938 C 30.816406 5.433594 30.523438 5.273438 30.382812 5.28125 C 30.34375 5.285156 30.238281 5.316406 30.144531 5.351562 M 37.96875 5.742188 C 37.816406 5.933594 37.59375 6 37.519531 5.878906 C 37.472656 5.804688 37.234375 5.8125 37.1875 5.886719 C 37.164062 5.921875 37.132812 6.027344 37.113281 6.121094 C 37.085938 6.253906 37.097656 6.300781 37.1875 6.34375 C 37.308594 6.40625 37.414062 6.589844 37.46875 6.835938 L 37.503906 7 L 37.617188 6.765625 C 37.742188 6.515625 37.871094 6.472656 38.0625 6.617188 C 38.21875 6.738281 38.355469 6.714844 38.582031 6.535156 C 38.695312 6.445312 38.839844 6.371094 38.902344 6.371094 C 39.03125 6.371094 39.351562 6.738281 39.472656 7.027344 L 39.554688 7.21875 L 39.523438 6.972656 C 39.472656 6.523438 39.304688 5.824219 39.214844 5.6875 C 39.109375 5.527344 38.933594 5.511719 38.707031 5.644531 C 38.558594 5.726562 38.535156 5.726562 38.367188 5.644531 C 38.265625 5.59375 38.167969 5.550781 38.152344 5.550781 C 38.132812 5.550781 38.050781 5.636719 37.96875 5.742188 M 26.652344 5.683594 C 26.519531 5.78125 26.539062 6.023438 26.699219 6.359375 C 26.789062 6.542969 26.8125 6.652344 26.777344 6.691406 C 26.703125 6.765625 26.773438 7.027344 26.867188 7.027344 C 27.03125 7.027344 27.078125 6.871094 27.054688 6.382812 C 27.023438 5.769531 26.878906 5.519531 26.652344 5.683594 M 31.359375 6.488281 C 31.285156 6.53125 31.269531 6.582031 31.296875 6.691406 C 31.339844 6.875 31.46875 7.039062 32.113281 7.734375 C 32.527344 8.179688 32.691406 8.40625 32.851562 8.746094 C 33.09375 9.257812 33.148438 9.3125 33.617188 9.527344 C 33.8125 9.613281 34.042969 9.765625 34.128906 9.859375 C 34.242188 9.976562 34.339844 10.027344 34.460938 10.027344 C 34.554688 10.027344 34.773438 10.078125 34.953125 10.140625 C 35.527344 10.34375 35.726562 10.097656 35.28125 9.730469 C 35.117188 9.597656 35.019531 9.464844 34.980469 9.324219 C 34.917969 9.09375 34.832031 9.03125 34.351562 8.890625 C 33.996094 8.785156 34.035156 8.832031 33.429688 7.863281 C 33.0625 7.277344 32.417969 6.644531 32.058594 6.519531 C 31.753906 6.414062 31.507812 6.402344 31.359375 6.488281 M 27.878906 6.597656 C 27.789062 6.761719 27.84375 7.253906 28.042969 8.144531 C 28.375 9.605469 28.398438 9.804688 28.300781 10.367188 C 28.203125 10.96875 28.015625 11.363281 27.371094 12.339844 C 26.605469 13.496094 26.535156 13.6875 26.875 13.6875 C 26.980469 13.6875 27.066406 13.664062 27.066406 13.636719 C 27.066406 13.605469 27.21875 13.355469 27.410156 13.074219 C 28.097656 12.054688 28.464844 11.339844 28.59375 10.761719 C 28.808594 9.804688 28.597656 7.488281 28.238281 6.808594 C 28.199219 6.734375 28.152344 6.628906 28.136719 6.574219 C 28.09375 6.445312 27.953125 6.457031 27.878906 6.597656 M 29.339844 7.117188 C 29.320312 7.136719 29.304688 7.183594 29.304688 7.222656 C 29.304688 7.316406 29.851562 8.109375 30.253906 8.605469 C 30.554688 8.972656 30.707031 9.144531 31.324219 9.839844 C 31.511719 10.054688 32.089844 10.605469 32.714844 11.171875 C 33.09375 11.511719 33.484375 11.773438 33.898438 11.957031 C 34.058594 12.027344 34.269531 12.152344 34.363281 12.234375 L 34.539062 12.382812 L 34.300781 12.757812 C 33.6875 13.710938 33.417969 14.476562 32.984375 16.496094 C 32.796875 17.375 32.648438 18.042969 32.519531 18.570312 C 32.460938 18.8125 32.355469 19.429688 32.28125 19.945312 C 32.128906 21.023438 32.15625 21.484375 32.390625 21.964844 C 32.546875 22.292969 32.726562 22.425781 33.042969 22.460938 C 33.355469 22.496094 33.640625 22.339844 34.019531 21.921875 C 34.332031 21.574219 34.417969 21.402344 34.359375 21.238281 C 34.316406 21.136719 34.042969 21.160156 33.769531 21.296875 C 33.675781 21.34375 33.527344 21.382812 33.445312 21.382812 C 33.289062 21.382812 33.289062 21.382812 33.289062 21.042969 C 33.289062 20.855469 33.359375 20.183594 33.445312 19.554688 C 33.535156 18.925781 33.621094 18.199219 33.636719 17.945312 C 33.703125 17.03125 33.730469 16.765625 33.792969 16.496094 C 33.828125 16.347656 33.859375 16.210938 33.863281 16.199219 C 33.867188 16.183594 33.914062 16.023438 33.96875 15.847656 C 34.042969 15.59375 34.078125 15.542969 34.117188 15.613281 C 34.222656 15.804688 34.355469 15.703125 34.746094 15.117188 C 35.433594 14.097656 36.167969 12.421875 36.015625 12.234375 C 35.855469 12.042969 35.757812 12.144531 35.335938 12.945312 C 34.644531 14.253906 34.632812 14.128906 35.3125 12.714844 C 35.6875 11.9375 35.722656 11.824219 35.636719 11.671875 C 35.550781 11.503906 35.199219 11.515625 35 11.6875 L 34.847656 11.816406 L 34.628906 11.640625 C 34.507812 11.539062 34.210938 11.351562 33.96875 11.21875 C 33.222656 10.804688 33.054688 10.679688 32.578125 10.175781 C 31.828125 9.382812 29.683594 7.28125 29.523438 7.175781 C 29.441406 7.125 29.359375 7.097656 29.339844 7.117188 M 26.792969 7.347656 C 26.753906 7.425781 26.761719 7.480469 26.839844 7.574219 C 26.953125 7.714844 27.066406 7.679688 27.066406 7.496094 C 27.066406 7.378906 26.972656 7.246094 26.890625 7.246094 C 26.867188 7.246094 26.824219 7.292969 26.792969 7.347656 M 24.019531 7.488281 C 23.570312 7.703125 23.324219 7.910156 23.066406 8.285156 C 22.957031 8.453125 22.847656 8.550781 22.777344 8.554688 C 22.621094 8.558594 22.574219 8.601562 22.378906 8.949219 C 22.164062 9.335938 22.15625 9.550781 22.351562 9.730469 C 22.429688 9.804688 22.519531 9.863281 22.550781 9.863281 C 22.582031 9.863281 22.589844 9.960938 22.570312 10.113281 C 22.527344 10.417969 22.613281 10.644531 22.886719 10.949219 C 23.148438 11.238281 23.324219 11.289062 23.992188 11.261719 C 24.609375 11.234375 24.710938 11.195312 24.933594 10.863281 C 25.011719 10.753906 25.136719 10.648438 25.214844 10.625 C 25.292969 10.605469 25.453125 10.523438 25.570312 10.445312 C 25.683594 10.367188 25.796875 10.300781 25.816406 10.300781 C 25.832031 10.300781 25.878906 10.410156 25.917969 10.546875 C 26.003906 10.851562 25.953125 11.210938 25.769531 11.625 C 25.65625 11.882812 25.644531 11.953125 25.699219 12.019531 C 25.804688 12.148438 25.898438 12.121094 26.042969 11.925781 C 26.347656 11.519531 26.523438 10.515625 26.347656 10.21875 C 26.273438 10.101562 26.242188 9.820312 26.296875 9.785156 C 26.328125 9.765625 26.378906 9.648438 26.414062 9.519531 C 26.449219 9.394531 26.5625 9.175781 26.664062 9.03125 C 26.863281 8.761719 26.875 8.554688 26.691406 8.554688 C 26.5625 8.554688 25.621094 8.90625 25.457031 9.011719 C 25.296875 9.117188 25.285156 9.167969 25.402344 9.289062 C 25.457031 9.34375 25.535156 9.363281 25.621094 9.339844 L 25.753906 9.308594 L 25.636719 9.574219 C 25.503906 9.886719 25.398438 9.980469 25.023438 10.109375 C 24.847656 10.171875 24.644531 10.304688 24.46875 10.472656 C 24.25 10.683594 24.15625 10.738281 24.011719 10.738281 C 23.808594 10.738281 23.148438 10.398438 23.097656 10.269531 C 23.082031 10.226562 23.109375 10.03125 23.164062 9.839844 C 23.230469 9.585938 23.25 9.390625 23.222656 9.15625 L 23.191406 8.828125 L 23.378906 8.703125 C 23.484375 8.636719 23.605469 8.492188 23.648438 8.382812 C 23.710938 8.226562 23.777344 8.167969 23.9375 8.117188 C 24.164062 8.042969 24.5625 7.765625 24.660156 7.609375 C 24.75 7.46875 24.679688 7.300781 24.535156 7.300781 C 24.46875 7.300781 24.238281 7.382812 24.019531 7.488281 M 25.261719 7.738281 C 25.128906 7.800781 24.960938 7.902344 24.894531 7.96875 C 24.792969 8.0625 24.773438 8.066406 24.773438 7.996094 C 24.773438 7.867188 24.570312 7.820312 24.429688 7.914062 C 24.195312 8.066406 23.953125 8.359375 23.953125 8.484375 C 23.953125 8.6875 24.144531 8.636719 24.457031 8.351562 C 24.6875 8.140625 24.722656 8.121094 24.636719 8.253906 C 24.578125 8.34375 24.460938 8.566406 24.371094 8.746094 C 24.261719 8.972656 24.082031 9.203125 23.777344 9.492188 C 23.34375 9.910156 23.292969 10.027344 23.550781 10.027344 C 23.820312 10.027344 24.515625 9.410156 24.746094 8.964844 C 25.085938 8.308594 25.132812 8.253906 25.371094 8.136719 C 25.675781 7.992188 26.199219 7.925781 26.359375 8.011719 C 26.453125 8.0625 26.496094 8.054688 26.566406 7.984375 C 26.648438 7.902344 26.644531 7.886719 26.519531 7.792969 C 26.257812 7.59375 25.644531 7.566406 25.261719 7.738281 M 37.964844 7.773438 C 37.898438 7.839844 37.929688 7.945312 38.066406 8.109375 C 38.144531 8.203125 38.203125 8.339844 38.203125 8.441406 C 38.203125 8.566406 38.226562 8.609375 38.300781 8.609375 C 38.453125 8.609375 38.527344 8.496094 38.527344 8.261719 C 38.527344 8.097656 38.492188 8.003906 38.382812 7.890625 C 38.246094 7.746094 38.046875 7.691406 37.964844 7.773438 M 27.074219 8.402344 C 26.980469 8.5 26.996094 8.597656 27.121094 8.664062 C 27.207031 8.710938 27.226562 8.777344 27.226562 9.023438 C 27.226562 9.34375 27.316406 9.449219 27.496094 9.335938 C 27.59375 9.273438 27.617188 8.851562 27.535156 8.589844 C 27.472656 8.382812 27.203125 8.273438 27.074219 8.402344 M 36.074219 9.644531 C 36.003906 9.6875 36.003906 9.726562 36.058594 9.867188 C 36.109375 10.011719 36.109375 10.054688 36.042969 10.121094 C 35.9375 10.226562 35.941406 10.515625 36.046875 10.554688 C 36.09375 10.574219 36.125 10.65625 36.125 10.765625 C 36.125 10.894531 36.175781 10.996094 36.292969 11.117188 C 36.476562 11.300781 36.617188 11.320312 36.972656 11.222656 C 37.257812 11.144531 37.382812 11.03125 37.382812 10.84375 C 37.382812 10.714844 37.34375 10.679688 37.074219 10.570312 C 36.824219 10.46875 36.753906 10.410156 36.6875 10.25 C 36.605469 10.050781 36.257812 9.589844 36.191406 9.59375 C 36.171875 9.59375 36.117188 9.617188 36.074219 9.644531 M 27.007812 10.058594 C 26.972656 10.152344 26.980469 10.289062 27.039062 10.5 C 27.085938 10.6875 27.105469 10.941406 27.089844 11.140625 C 27.011719 12.148438 26.945312 12.308594 26.554688 12.457031 C 26.320312 12.546875 26.238281 12.652344 26.285156 12.800781 C 26.300781 12.835938 26.34375 12.867188 26.386719 12.867188 C 26.539062 12.867188 27.007812 12.527344 27.128906 12.332031 C 27.277344 12.09375 27.472656 11.554688 27.527344 11.242188 C 27.5625 11.019531 27.433594 10.214844 27.328125 10.015625 C 27.253906 9.871094 27.070312 9.894531 27.007812 10.058594 M 39.082031 10.15625 C 39.015625 10.230469 38.820312 10.382812 38.648438 10.496094 C 38.167969 10.820312 37.386719 11.449219 37.328125 11.558594 C 37.296875 11.613281 37.289062 11.855469 37.308594 12.109375 C 37.347656 12.621094 37.457031 12.8125 37.707031 12.8125 C 37.867188 12.8125 37.960938 12.761719 38.414062 12.445312 L 38.746094 12.214844 L 38.4375 12.71875 C 38.066406 13.328125 37.949219 13.585938 37.574219 14.621094 C 37.242188 15.53125 37.152344 15.84375 37 16.578125 C 36.871094 17.207031 36.867188 17.335938 36.976562 17.378906 C 37.074219 17.417969 37.273438 17.253906 37.273438 17.136719 C 37.273438 17.027344 37.804688 15.648438 38.382812 14.257812 C 38.515625 13.945312 38.527344 13.933594 38.703125 13.945312 C 38.902344 13.960938 39.066406 13.835938 39.402344 13.410156 C 40.140625 12.480469 40.515625 11.636719 40.308594 11.367188 C 40.246094 11.28125 40.207031 11.269531 40.132812 11.316406 C 40.023438 11.382812 40.046875 11.339844 39.621094 12.207031 C 39.320312 12.828125 38.722656 13.734375 38.65625 13.667969 C 38.640625 13.652344 38.679688 13.546875 38.738281 13.433594 C 38.90625 13.101562 39.015625 12.667969 38.984375 12.464844 C 38.960938 12.320312 38.972656 12.277344 39.054688 12.253906 C 39.113281 12.238281 39.375 11.863281 39.671875 11.371094 C 40.152344 10.570312 40.179688 10.507812 40.09375 10.421875 C 40.023438 10.351562 39.976562 10.34375 39.90625 10.390625 C 39.78125 10.464844 39.28125 11.125 39.078125 11.484375 C 38.953125 11.699219 38.875 11.773438 38.75 11.800781 C 38.585938 11.839844 38.128906 12.0625 37.996094 12.171875 C 37.910156 12.242188 37.882812 12.214844 37.820312 12.003906 C 37.75 11.746094 37.984375 11.46875 38.652344 11.019531 C 39.207031 10.644531 39.621094 10.289062 39.621094 10.1875 C 39.621094 10.132812 39.390625 10.027344 39.273438 10.027344 C 39.234375 10.027344 39.148438 10.085938 39.082031 10.15625 M 33.6875 10.601562 C 33.667969 10.65625 33.753906 10.796875 33.921875 10.980469 C 34.195312 11.28125 34.335938 11.371094 34.433594 11.3125 C 34.554688 11.238281 34.476562 11.046875 34.21875 10.789062 C 33.945312 10.515625 33.75 10.449219 33.6875 10.601562 M 22.238281 10.886719 C 22.164062 11 22.085938 11.183594 22.066406 11.296875 C 22.035156 11.472656 22.050781 11.519531 22.195312 11.664062 C 22.386719 11.855469 22.558594 11.875 22.84375 11.742188 C 22.996094 11.667969 23.027344 11.625 23.015625 11.507812 C 23 11.382812 22.96875 11.363281 22.769531 11.347656 C 22.5 11.328125 22.417969 11.195312 22.558594 11 C 22.6875 10.8125 22.667969 10.683594 22.507812 10.683594 C 22.410156 10.683594 22.332031 10.742188 22.238281 10.886719 M 40.253906 10.835938 C 40.195312 11.011719 40.398438 11.449219 41.046875 12.550781 C 41.480469 13.285156 41.71875 13.644531 41.984375 13.972656 C 42.089844 14.101562 42.210938 14.28125 42.257812 14.371094 C 42.386719 14.625 42.558594 15.34375 42.652344 16.035156 C 42.742188 16.679688 42.808594 16.863281 43 17.039062 C 43.128906 17.152344 43.195312 17.375 43.25 17.847656 L 43.285156 18.164062 L 43.09375 18.164062 C 42.871094 18.164062 42.765625 18.296875 42.777344 18.578125 C 42.78125 18.675781 42.746094 18.785156 42.699219 18.820312 C 42.550781 18.945312 42.503906 19.082031 42.574219 19.207031 C 42.671875 19.390625 42.90625 19.574219 43.128906 19.644531 C 43.304688 19.699219 43.347656 19.695312 43.441406 19.609375 C 43.582031 19.484375 43.660156 19.191406 43.652344 18.835938 C 43.648438 18.625 43.675781 18.519531 43.769531 18.390625 C 43.886719 18.234375 43.894531 18.1875 43.863281 17.660156 C 43.84375 17.351562 43.753906 16.71875 43.667969 16.25 C 43.578125 15.785156 43.488281 15.300781 43.472656 15.171875 C 43.414062 14.792969 43.023438 13.246094 42.898438 12.914062 C 42.816406 12.691406 42.699219 12.523438 42.460938 12.300781 C 42.285156 12.132812 42.117188 11.992188 42.085938 11.992188 C 41.984375 11.992188 41.121094 11.328125 40.875 11.0625 C 40.59375 10.75 40.3125 10.648438 40.253906 10.835938 M 24.824219 11.125 C 24.773438 11.21875 24.777344 11.261719 24.847656 11.328125 C 24.929688 11.410156 24.941406 11.410156 25.023438 11.328125 C 25.09375 11.261719 25.097656 11.21875 25.046875 11.125 C 25.015625 11.0625 24.964844 11.011719 24.933594 11.011719 C 24.90625 11.011719 24.855469 11.0625 24.824219 11.125 M 23.425781 11.40625 C 23.398438 11.445312 23.378906 11.566406 23.375 11.679688 C 23.375 11.839844 23.332031 11.925781 23.199219 12.046875 C 23.101562 12.132812 23.023438 12.242188 23.023438 12.289062 C 23.023438 12.359375 22.984375 12.355469 22.777344 12.253906 C 22.570312 12.152344 22.519531 12.144531 22.480469 12.207031 C 22.414062 12.320312 22.464844 12.40625 22.695312 12.566406 C 22.96875 12.753906 23.179688 12.738281 23.296875 12.511719 C 23.34375 12.421875 23.40625 12.324219 23.441406 12.296875 C 23.679688 12.074219 23.765625 11.59375 23.59375 11.425781 C 23.492188 11.320312 23.480469 11.320312 23.425781 11.40625 M 23.816406 11.429688 C 23.757812 11.578125 23.683594 12.214844 23.71875 12.300781 C 23.734375 12.34375 23.804688 12.375 23.875 12.375 C 24.027344 12.375 24.078125 12.191406 24.050781 11.695312 C 24.039062 11.445312 24.015625 11.363281 23.945312 11.351562 C 23.898438 11.339844 23.839844 11.378906 23.816406 11.429688 M 24.792969 11.746094 C 24.773438 11.796875 24.785156 11.863281 24.816406 11.894531 C 24.898438 11.980469 25.054688 11.902344 25.035156 11.789062 C 25.011719 11.664062 24.835938 11.632812 24.792969 11.746094 M 36.742188 11.707031 C 36.667969 11.730469 36.648438 11.925781 36.707031 12.070312 C 36.746094 12.179688 36.9375 12.183594 36.980469 12.074219 C 37.054688 11.878906 36.90625 11.648438 36.742188 11.707031 M 22.015625 11.980469 C 21.796875 12.140625 21.726562 12.789062 21.894531 13.050781 C 22.019531 13.238281 22.222656 13.289062 22.398438 13.171875 C 22.5625 13.0625 22.570312 12.960938 22.417969 12.746094 C 22.351562 12.65625 22.273438 12.449219 22.238281 12.28125 C 22.179688 11.980469 22.121094 11.902344 22.015625 11.980469 M 24.753906 12.25 C 24.675781 12.328125 24.71875 12.484375 24.820312 12.484375 C 24.929688 12.484375 25.011719 12.347656 24.960938 12.261719 C 24.925781 12.203125 24.804688 12.195312 24.753906 12.25 M 23.53125 12.46875 C 23.492188 12.484375 23.460938 12.542969 23.460938 12.601562 C 23.460938 12.664062 23.40625 12.726562 23.324219 12.757812 C 23.183594 12.8125 23.128906 13.027344 23.257812 13.039062 C 23.582031 13.066406 23.761719 12.898438 23.742188 12.585938 C 23.734375 12.488281 23.636719 12.433594 23.53125 12.46875 M 25.589844 13.035156 C 25.507812 13.1875 25.503906 13.632812 25.582031 13.78125 C 25.617188 13.84375 25.640625 13.976562 25.636719 14.082031 C 25.625 14.3125 25.671875 14.394531 25.808594 14.394531 C 25.980469 14.394531 26.046875 14.199219 26.007812 13.773438 C 25.953125 13.085938 25.75 12.734375 25.589844 13.035156 M 36.339844 13.042969 C 36.230469 13.242188 35.769531 14.917969 35.617188 15.652344 C 35.355469 16.902344 35.140625 18.363281 35.121094 19.015625 C 35.09375 19.773438 35.214844 21.003906 35.351562 21.363281 C 35.476562 21.703125 35.59375 21.777344 35.753906 21.617188 C 35.867188 21.503906 35.875 21.457031 35.855469 20.933594 C 35.800781 19.5625 35.835938 17.898438 35.929688 17.125 C 36.074219 15.925781 36.28125 14.679688 36.523438 13.558594 C 36.621094 13.097656 36.625 13.015625 36.558594 12.972656 C 36.441406 12.898438 36.410156 12.910156 36.339844 13.042969 M 22.03125 13.714844 C 21.367188 14.414062 20.898438 15.210938 20.597656 16.144531 C 20.351562 16.90625 20.175781 17.132812 19.351562 17.773438 C 18.984375 18.058594 18.25 18.800781 17.992188 19.144531 C 17.894531 19.28125 17.640625 19.648438 17.433594 19.964844 C 16.984375 20.644531 16.449219 21.1875 15.8125 21.609375 C 15.136719 22.058594 14.90625 22.355469 14.953125 22.703125 C 14.980469 22.871094 15.308594 22.980469 15.714844 22.953125 L 16.019531 22.933594 L 15.609375 23.140625 C 15.066406 23.410156 14.792969 23.691406 14.511719 24.257812 C 14.273438 24.734375 14.046875 24.996094 12.820312 26.242188 C 11.582031 27.496094 11.113281 28.144531 10.929688 28.859375 C 10.800781 29.359375 10.65625 29.753906 10.433594 30.207031 C 10.226562 30.628906 10.210938 30.847656 10.386719 30.867188 C 10.585938 30.890625 10.898438 30.507812 11.085938 30.007812 C 11.238281 29.597656 11.796875 28.640625 12.136719 28.203125 C 13.332031 26.667969 13.851562 26.089844 14.972656 25.03125 C 15.15625 24.859375 15.402344 24.585938 15.519531 24.421875 C 15.640625 24.257812 15.855469 24.042969 16 23.941406 C 16.261719 23.765625 16.503906 23.519531 16.667969 23.273438 C 16.835938 23.011719 16.574219 22.746094 16.265625 22.863281 C 16.128906 22.914062 16.128906 22.914062 16.21875 22.816406 C 16.347656 22.667969 16.332031 22.5 16.171875 22.375 L 16.035156 22.269531 L 16.574219 21.882812 C 17.226562 21.417969 17.558594 21.0625 18.117188 20.230469 C 18.570312 19.554688 18.988281 19.015625 19.171875 18.863281 C 19.234375 18.816406 19.347656 18.722656 19.421875 18.65625 C 19.496094 18.589844 19.875 18.324219 20.257812 18.070312 C 21.144531 17.480469 21.121094 17.511719 21.667969 15.980469 C 21.835938 15.511719 21.941406 15.277344 22.351562 14.476562 C 22.601562 13.988281 22.675781 13.6875 22.589844 13.523438 C 22.492188 13.34375 22.332031 13.394531 22.03125 13.714844 M 40.710938 13.882812 C 40.296875 14.4375 40.300781 14.417969 40.3125 15.605469 C 40.324219 16.511719 40.496094 18.871094 40.578125 19.226562 C 40.59375 19.289062 40.652344 19.730469 40.707031 20.214844 C 40.824219 21.214844 40.804688 21.460938 40.546875 22.207031 C 40.296875 22.941406 40.339844 23.269531 40.671875 23.132812 C 40.933594 23.019531 41.164062 22.742188 41.261719 22.414062 C 41.507812 21.601562 41.597656 20.363281 41.484375 19.417969 C 41.453125 19.164062 41.398438 18.707031 41.367188 18.410156 C 41.332031 18.109375 41.246094 17.542969 41.167969 17.152344 C 40.921875 15.878906 40.910156 14.488281 41.144531 13.886719 C 41.21875 13.699219 41.183594 13.632812 41.019531 13.632812 C 40.9375 13.632812 40.835938 13.714844 40.710938 13.882812 M 26.109375 14.949219 C 25.847656 15.050781 24.925781 15.679688 24.546875 16.019531 C 23.582031 16.890625 23.085938 17.492188 22.933594 17.976562 L 22.839844 18.273438 L 22.710938 18.136719 C 22.558594 17.972656 22.523438 17.96875 22.40625 18.097656 C 22.335938 18.175781 22.328125 18.25 22.363281 18.476562 C 22.414062 18.804688 22.515625 18.972656 22.78125 19.183594 C 22.890625 19.269531 23.011719 19.421875 23.058594 19.523438 C 23.179688 19.8125 23.503906 21.109375 23.546875 21.480469 C 23.59375 21.894531 23.628906 21.953125 23.8125 21.90625 C 23.988281 21.863281 24.0625 21.6875 24 21.464844 C 23.949219 21.300781 23.894531 20.933594 23.78125 20.046875 C 23.707031 19.464844 23.59375 19.179688 23.324219 18.878906 L 23.121094 18.65625 L 23.742188 17.992188 C 24.832031 16.828125 25.8125 16.007812 26.300781 15.863281 C 26.496094 15.804688 26.53125 15.8125 26.769531 15.96875 C 27.0625 16.164062 27.304688 16.226562 27.605469 16.175781 C 27.957031 16.121094 27.96875 16.160156 27.953125 17.453125 C 27.9375 18.507812 27.945312 18.589844 28.042969 18.675781 C 28.144531 18.769531 28.152344 18.765625 28.257812 18.660156 C 28.402344 18.515625 28.460938 18.28125 28.5625 17.453125 C 28.667969 16.601562 28.667969 16.476562 28.558594 16.101562 C 28.457031 15.746094 28.304688 15.574219 28.023438 15.496094 C 27.914062 15.464844 27.726562 15.355469 27.609375 15.25 C 27.496094 15.144531 27.304688 15.03125 27.191406 15 C 26.863281 14.910156 26.289062 14.882812 26.109375 14.949219 M 23.3125 15.539062 C 23.128906 15.734375 22.265625 17.335938 22.261719 17.488281 C 22.261719 17.519531 22.292969 17.574219 22.332031 17.609375 C 22.492188 17.742188 23.132812 17.160156 23.554688 16.496094 C 23.742188 16.199219 23.832031 15.996094 23.902344 15.710938 C 24.003906 15.277344 23.65625 15.175781 23.3125 15.539062 M 21.519531 18.070312 C 21.070312 18.328125 20.425781 19.097656 20 19.871094 C 19.699219 20.417969 19.464844 20.617188 18.644531 21.023438 C 17.824219 21.429688 17.402344 21.75 17.402344 21.96875 C 17.402344 22.097656 17.417969 22.105469 17.609375 22.078125 C 17.722656 22.066406 17.925781 22 18.054688 21.9375 C 18.1875 21.871094 18.316406 21.820312 18.339844 21.820312 C 18.363281 21.820312 18.542969 21.746094 18.738281 21.65625 C 18.9375 21.566406 19.109375 21.492188 19.121094 21.492188 C 19.21875 21.492188 19.992188 21.082031 20.21875 20.910156 C 20.765625 20.492188 20.996094 20.15625 21.597656 18.867188 C 21.875 18.277344 21.917969 18.113281 21.816406 18.046875 C 21.71875 17.984375 21.65625 17.988281 21.519531 18.070312 M 26.285156 18.140625 C 25.960938 18.246094 25.863281 18.300781 25.863281 18.375 C 25.863281 18.515625 26.175781 18.578125 26.300781 18.464844 C 26.351562 18.417969 26.488281 18.382812 26.609375 18.382812 C 26.851562 18.382812 27.179688 18.285156 27.238281 18.199219 C 27.390625 17.964844 26.917969 17.9375 26.285156 18.140625 M 25.722656 19.257812 C 25.675781 19.335938 25.753906 20.660156 25.8125 20.824219 C 25.875 20.988281 26.015625 20.980469 26.082031 20.8125 C 26.136719 20.667969 26.050781 19.550781 25.964844 19.324219 C 25.917969 19.191406 25.785156 19.160156 25.722656 19.257812 M 28.132812 19.292969 C 28.097656 19.382812 28.136719 20.636719 28.1875 21.132812 C 28.25 21.707031 28.476562 21.9375 28.679688 21.628906 C 28.84375 21.378906 28.792969 20.710938 28.546875 19.910156 C 28.488281 19.714844 28.421875 19.476562 28.402344 19.378906 C 28.363281 19.183594 28.195312 19.128906 28.132812 19.292969 M 36.21875 19.40625 C 36.183594 19.675781 36.226562 20.96875 36.292969 21.546875 C 36.320312 21.800781 36.371094 22.238281 36.398438 22.515625 C 36.484375 23.308594 36.8125 24.703125 36.949219 24.847656 C 36.976562 24.875 37 24.9375 37 24.984375 C 37 25.074219 37.425781 25.746094 37.617188 25.957031 C 37.679688 26.023438 37.785156 26.078125 37.855469 26.078125 C 38.058594 26.078125 38.019531 25.839844 37.707031 25.207031 C 37.296875 24.367188 37.109375 23.523438 36.976562 21.9375 C 36.960938 21.78125 36.9375 21.546875 36.921875 21.421875 C 36.90625 21.296875 36.878906 21.03125 36.863281 20.835938 C 36.820312 20.355469 36.679688 19.59375 36.589844 19.378906 C 36.535156 19.246094 36.480469 19.199219 36.382812 19.199219 C 36.269531 19.199219 36.242188 19.230469 36.21875 19.40625 M 25.101562 19.335938 C 24.980469 19.480469 25.105469 20.945312 25.25 21.089844 C 25.324219 21.164062 25.34375 21.164062 25.417969 21.089844 C 25.492188 21.011719 25.492188 20.929688 25.429688 20.335938 C 25.386719 19.964844 25.351562 19.601562 25.347656 19.523438 C 25.328125 19.265625 25.222656 19.1875 25.101562 19.335938 M 43.125 19.980469 C 43.089844 20.023438 43.039062 20.28125 43.007812 20.554688 C 42.953125 21.105469 42.875 21.316406 42.464844 22.007812 C 42.105469 22.613281 41.941406 23.023438 41.859375 23.507812 C 41.824219 23.722656 41.753906 23.945312 41.699219 24.011719 L 41.605469 24.125 L 41.242188 24.003906 C 40.882812 23.882812 40.757812 23.796875 40.503906 23.492188 C 40.386719 23.351562 40.367188 23.347656 40.257812 23.417969 C 40.191406 23.460938 40.132812 23.550781 40.121094 23.613281 C 40.078125 23.90625 40.726562 24.632812 41.164062 24.78125 C 41.46875 24.886719 41.992188 24.851562 42.214844 24.714844 C 42.429688 24.582031 42.515625 24.398438 42.515625 24.066406 C 42.515625 23.871094 42.574219 23.683594 42.75 23.316406 C 43.25 22.292969 43.414062 21.597656 43.414062 20.539062 C 43.414062 19.96875 43.410156 19.9375 43.300781 19.921875 C 43.238281 19.910156 43.160156 19.9375 43.125 19.980469 M 37.328125 20.941406 C 37.242188 21.105469 37.429688 22.945312 37.625 23.851562 C 37.734375 24.371094 37.886719 24.972656 37.917969 25.015625 C 37.9375 25.046875 38.035156 25.113281 38.128906 25.164062 C 38.300781 25.257812 38.308594 25.257812 38.410156 25.144531 C 38.628906 24.914062 38.539062 23.765625 38.234375 22.886719 C 37.921875 21.976562 37.707031 21.339844 37.644531 21.109375 C 37.566406 20.839844 37.425781 20.765625 37.328125 20.941406 M 22.691406 21.910156 C 22.207031 22.316406 21.5 23.089844 21.199219 23.542969 C 20.9375 23.9375 20.304688 25.136719 20.007812 25.804688 C 18.949219 28.179688 17.851562 30.28125 17.269531 31.058594 C 17.207031 31.140625 17.082031 31.308594 16.992188 31.429688 C 16.726562 31.792969 16.0625 32.59375 15.9375 32.707031 C 15.8125 32.816406 15.78125 32.980469 15.871094 33.039062 C 15.980469 33.105469 16.398438 32.859375 16.667969 32.570312 C 17.035156 32.175781 17.566406 31.359375 18.085938 30.390625 C 18.316406 29.957031 18.699219 29.269531 18.929688 28.863281 C 19.480469 27.902344 19.582031 27.699219 20.210938 26.269531 C 20.5 25.609375 20.8125 24.910156 20.902344 24.714844 C 21.171875 24.132812 21.632812 23.503906 22.191406 22.960938 C 23.082031 22.09375 23.132812 22.035156 23.132812 21.867188 C 23.132812 21.648438 22.988281 21.664062 22.691406 21.910156 M 13.105469 22.054688 C 12.585938 22.296875 12.328125 22.480469 11.941406 22.894531 C 11.289062 23.59375 10.832031 24.871094 10.832031 25.996094 C 10.832031 26.457031 10.859375 26.617188 10.992188 27.007812 C 11.132812 27.417969 11.167969 27.46875 11.285156 27.46875 C 11.445312 27.46875 11.472656 27.386719 11.59375 26.464844 C 11.796875 24.882812 12.070312 24.304688 13.175781 23.128906 C 13.894531 22.371094 14.015625 22.148438 13.800781 21.976562 C 13.632812 21.839844 13.5625 21.847656 13.105469 22.054688 M 27.730469 22.324219 C 27.601562 22.488281 27.550781 22.910156 27.507812 24.195312 C 27.429688 26.550781 27.464844 27.828125 27.632812 28.78125 C 27.96875 30.671875 27.960938 30.59375 27.960938 32.382812 C 27.957031 33.503906 27.925781 34.445312 27.863281 35.167969 C 27.8125 35.769531 27.746094 36.554688 27.71875 36.914062 C 27.65625 37.679688 27.632812 37.878906 27.519531 38.582031 C 27.421875 39.164062 27.453125 39.585938 27.59375 39.640625 C 27.738281 39.695312 27.941406 39.515625 28.078125 39.214844 C 28.402344 38.507812 28.808594 36.375 29.003906 34.347656 C 29.019531 34.199219 29.039062 33.375 29.050781 32.519531 C 29.078125 30.628906 29.066406 30.523438 28.5625 28.453125 C 28.246094 27.152344 28.25 27.203125 28.382812 25.414062 C 28.488281 23.996094 28.375 22.636719 28.125 22.359375 C 28.015625 22.242188 27.816406 22.222656 27.730469 22.324219 M 28.90625 22.371094 C 28.746094 22.464844 28.796875 22.578125 29.183594 23.042969 C 29.390625 23.285156 29.714844 23.714844 29.910156 23.996094 C 30.101562 24.28125 30.34375 24.636719 30.449219 24.789062 C 30.960938 25.53125 31.226562 26.019531 31.484375 26.667969 C 32.222656 28.546875 32.652344 30.308594 32.851562 32.320312 C 32.882812 32.625 32.917969 32.960938 32.933594 33.066406 C 32.949219 33.171875 32.984375 33.429688 33.015625 33.640625 C 33.066406 34.011719 33.144531 34.515625 33.3125 35.578125 C 33.410156 36.207031 33.550781 36.679688 33.804688 37.238281 C 33.910156 37.464844 34.109375 37.929688 34.246094 38.265625 C 34.382812 38.605469 34.570312 39.003906 34.660156 39.152344 C 34.839844 39.453125 35.171875 39.738281 35.304688 39.714844 C 35.496094 39.679688 35.429688 39.367188 35.074219 38.578125 C 34.496094 37.300781 33.945312 35.171875 33.507812 32.519531 C 33.277344 31.128906 33.171875 30.519531 33.097656 30.144531 C 33.054688 29.933594 33.003906 29.640625 32.988281 29.492188 C 32.796875 27.902344 32.679688 27.308594 32.429688 26.707031 C 32.277344 26.335938 31.742188 25.40625 31.578125 25.21875 C 31.515625 25.148438 31.414062 25.011719 31.355469 24.910156 C 30.71875 23.859375 29.894531 22.875 29.320312 22.472656 C 29.070312 22.296875 29.046875 22.289062 28.90625 22.371094 M 35.488281 22.539062 C 35.398438 22.65625 35.09375 24.300781 35.011719 25.152344 C 34.890625 26.351562 34.851562 27.902344 34.921875 28.894531 C 35 30.042969 35.035156 30.328125 35.371094 32.410156 C 35.5625 33.613281 35.640625 34.011719 35.824219 34.714844 C 35.996094 35.378906 36.09375 35.628906 36.351562 36.050781 C 36.464844 36.238281 36.621094 36.507812 36.691406 36.65625 C 36.867188 36.996094 36.972656 37.089844 37.082031 36.996094 C 37.261719 36.847656 37.167969 36.464844 36.71875 35.523438 C 36.402344 34.859375 36.308594 34.425781 36.210938 33.167969 C 36.164062 32.558594 36.101562 31.871094 36.074219 31.648438 C 36.042969 31.421875 36.007812 31.125 35.996094 30.992188 C 35.980469 30.855469 35.902344 30.292969 35.820312 29.734375 C 35.707031 28.976562 35.671875 28.503906 35.667969 27.824219 C 35.660156 26.648438 35.722656 25.339844 35.828125 24.523438 C 35.910156 23.855469 35.925781 22.882812 35.859375 22.640625 C 35.816406 22.484375 35.582031 22.421875 35.488281 22.539062 M 23.792969 22.929688 C 23.707031 23.117188 23.621094 23.332031 23.597656 23.40625 C 23.492188 23.738281 22.78125 25.070312 22.597656 25.277344 C 22.339844 25.5625 22.097656 25.941406 22.097656 26.050781 C 22.097656 26.183594 22.34375 26.148438 22.542969 25.984375 C 23.191406 25.4375 23.566406 24.734375 24.035156 23.171875 C 24.117188 22.910156 24.164062 22.671875 24.144531 22.640625 C 24.0625 22.503906 23.9375 22.605469 23.792969 22.929688 M 24.8125 23.515625 C 24.761719 23.546875 24.71875 23.617188 24.71875 23.667969 C 24.71875 24.132812 23.957031 25.769531 23.164062 27.007812 C 23.09375 27.113281 22.847656 27.523438 22.609375 27.921875 C 22.371094 28.320312 22.140625 28.703125 22.097656 28.777344 C 22.050781 28.847656 21.933594 29.050781 21.832031 29.226562 C 21.253906 30.222656 20.277344 31.488281 19.3125 32.484375 C 18.648438 33.171875 18.257812 33.492188 17.648438 33.855469 C 17.40625 33.996094 17.140625 34.15625 17.058594 34.203125 C 16.851562 34.328125 16.871094 34.542969 17.101562 34.605469 C 17.363281 34.679688 17.71875 34.609375 18.164062 34.394531 C 18.515625 34.222656 18.683594 34.085938 19.328125 33.4375 C 19.738281 33.019531 20.078125 32.65625 20.078125 32.628906 C 20.078125 32.597656 20.15625 32.484375 20.257812 32.371094 C 20.355469 32.257812 20.527344 32.03125 20.644531 31.863281 C 20.757812 31.699219 20.933594 31.453125 21.035156 31.320312 C 21.332031 30.917969 22.011719 29.894531 22.199219 29.566406 C 22.292969 29.394531 22.40625 29.226562 22.453125 29.191406 C 22.496094 29.152344 22.535156 29.097656 22.535156 29.066406 C 22.535156 29 22.941406 28.378906 23.347656 27.828125 C 23.507812 27.605469 23.757812 27.164062 23.898438 26.847656 C 24.042969 26.53125 24.246094 26.09375 24.355469 25.878906 C 24.464844 25.664062 24.554688 25.472656 24.554688 25.453125 C 24.554688 25.4375 24.652344 25.210938 24.769531 24.957031 C 25.132812 24.175781 25.203125 23.898438 25.121094 23.582031 C 25.085938 23.449219 24.96875 23.425781 24.8125 23.515625 M 17.765625 23.964844 C 17.675781 24.03125 17.679688 24.058594 17.839844 24.378906 C 18.140625 24.984375 18.074219 25.460938 17.550781 26.542969 C 17.230469 27.207031 16.988281 27.984375 16.933594 28.535156 C 16.902344 28.832031 16.917969 28.921875 17.003906 29.082031 C 17.0625 29.1875 17.148438 29.28125 17.199219 29.289062 C 17.304688 29.308594 17.363281 29.117188 17.484375 28.339844 C 17.582031 27.707031 17.699219 27.375 18.035156 26.757812 C 18.371094 26.136719 18.441406 25.90625 18.449219 25.371094 C 18.457031 24.851562 18.445312 24.785156 18.207031 24.261719 C 18.035156 23.882812 17.953125 23.828125 17.765625 23.964844 M 39.769531 24.5625 C 39.449219 24.902344 38.628906 26.023438 38.496094 26.296875 C 38.347656 26.605469 38.328125 26.90625 38.449219 27.007812 C 38.5 27.050781 38.605469 27.0625 38.726562 27.042969 C 38.921875 27.011719 38.921875 27.011719 38.890625 27.1875 C 38.796875 27.71875 38.789062 27.835938 38.859375 27.964844 C 38.960938 28.15625 39.144531 28.132812 39.40625 27.898438 L 39.628906 27.699219 L 39.613281 27.980469 C 39.597656 28.34375 39.71875 28.484375 40.039062 28.488281 C 40.574219 28.496094 40.667969 28.40625 41.328125 27.226562 C 41.402344 27.089844 41.554688 26.820312 41.664062 26.625 C 41.992188 26.054688 42.140625 25.695312 42.121094 25.511719 C 42.105469 25.363281 42.082031 25.339844 41.941406 25.339844 C 41.804688 25.339844 41.734375 25.402344 41.480469 25.734375 C 41.3125 25.953125 41.015625 26.425781 40.820312 26.789062 C 40.492188 27.398438 40.097656 27.996094 40.1875 27.742188 C 40.480469 26.945312 40.539062 26.492188 40.371094 26.386719 C 40.257812 26.3125 40.121094 26.386719 39.800781 26.679688 C 39.492188 26.96875 39.480469 26.96875 39.503906 26.726562 C 39.527344 26.480469 39.453125 26.367188 39.234375 26.308594 L 39.082031 26.269531 L 39.492188 25.722656 C 39.996094 25.058594 40.214844 24.640625 40.132812 24.511719 C 40.035156 24.355469 39.949219 24.367188 39.769531 24.5625 M 26.722656 25.554688 C 26.679688 25.597656 26.628906 25.789062 26.605469 25.980469 C 26.378906 28.019531 26.359375 28.691406 26.5 29.398438 C 26.59375 29.867188 26.679688 29.984375 26.820312 29.839844 C 26.882812 29.777344 26.90625 29.351562 26.933594 27.6875 C 26.964844 25.859375 26.960938 25.605469 26.886719 25.542969 C 26.820312 25.488281 26.789062 25.488281 26.722656 25.554688 M 29.859375 26.214844 C 29.792969 26.359375 29.804688 26.449219 30.015625 27.226562 C 30.070312 27.421875 30.128906 27.664062 30.148438 27.769531 C 30.171875 27.875 30.292969 28.402344 30.421875 28.945312 C 30.550781 29.484375 30.695312 30.148438 30.742188 30.417969 C 30.847656 31.003906 31.238281 33.226562 31.316406 33.695312 C 31.347656 33.875 31.398438 34.167969 31.429688 34.347656 C 31.492188 34.710938 31.625 35.609375 31.703125 36.210938 C 31.730469 36.421875 31.820312 36.851562 31.898438 37.164062 C 31.976562 37.476562 32.054688 37.796875 32.066406 37.871094 C 32.082031 37.945312 32.292969 38.40625 32.53125 38.894531 C 32.871094 39.585938 32.992188 39.78125 33.074219 39.78125 C 33.238281 39.78125 33.207031 39.535156 32.933594 38.726562 C 32.675781 37.96875 32.539062 37.234375 32.386719 35.851562 C 32.339844 35.414062 32.242188 34.652344 32.167969 34.15625 C 32.097656 33.664062 32.019531 33.023438 32 32.738281 C 31.957031 32.066406 31.78125 30.746094 31.671875 30.226562 C 31.546875 29.644531 31.332031 28.925781 30.917969 27.71875 C 30.480469 26.433594 30.289062 26.078125 30.039062 26.078125 C 29.964844 26.078125 29.898438 26.128906 29.859375 26.214844 M 14.425781 26.851562 C 13.96875 27.179688 13.109375 28.199219 12.84375 28.726562 C 12.785156 28.847656 12.71875 28.957031 12.703125 28.972656 C 12.683594 28.988281 12.511719 29.320312 12.316406 29.707031 C 11.832031 30.679688 11.179688 32.476562 11.011719 33.3125 C 10.945312 33.640625 10.933594 34.460938 10.988281 35.167969 C 11.027344 35.679688 11.054688 35.75 11.195312 35.730469 C 11.296875 35.714844 11.324219 35.636719 11.433594 35.003906 C 11.5 34.613281 11.582031 34.207031 11.609375 34.101562 C 11.640625 34 11.761719 33.535156 11.882812 33.074219 C 12.003906 32.617188 12.167969 32.0625 12.246094 31.847656 C 12.378906 31.472656 13.054688 30.085938 13.496094 29.273438 C 13.746094 28.8125 14.484375 27.6875 14.65625 27.5 C 14.84375 27.296875 15.023438 26.925781 14.984375 26.824219 C 14.933594 26.695312 14.625 26.710938 14.425781 26.851562 M 36.847656 27.507812 C 36.804688 27.554688 36.78125 27.8125 36.78125 28.3125 C 36.78125 29.222656 36.917969 32.308594 36.972656 32.648438 C 36.984375 32.714844 37.019531 33 37.054688 33.285156 C 37.148438 34.082031 37.261719 34.742188 37.328125 34.867188 C 37.40625 35.011719 37.523438 35.007812 37.613281 34.855469 C 37.757812 34.601562 37.667969 30.960938 37.492188 29.980469 C 37.421875 29.589844 37.390625 29.363281 37.296875 28.507812 C 37.253906 28.085938 37.1875 27.675781 37.15625 27.59375 C 37.09375 27.433594 36.957031 27.398438 36.847656 27.507812 M 40.761719 29.613281 C 40.578125 30.035156 40.386719 30.65625 40.273438 31.183594 C 40.179688 31.628906 40.171875 31.855469 40.191406 33.722656 C 40.214844 35.980469 40.277344 36.945312 40.457031 37.925781 C 40.519531 38.273438 40.539062 39.878906 40.503906 41.445312 C 40.492188 41.867188 40.503906 42.429688 40.523438 42.695312 C 40.5625 43.160156 40.558594 43.183594 40.460938 43.144531 C 40.347656 43.097656 40.167969 43.074219 39.578125 43.03125 C 39.023438 42.988281 38.816406 42.894531 38.777344 42.664062 C 38.761719 42.566406 38.742188 41.796875 38.730469 40.953125 C 38.710938 39.65625 38.691406 39.335938 38.589844 38.824219 C 38.464844 38.207031 38.402344 37.859375 38.308594 37.308594 C 38.21875 36.78125 37.988281 36.128906 37.875 36.070312 C 37.789062 36.023438 37.753906 36.035156 37.679688 36.148438 C 37.507812 36.410156 37.660156 37.648438 38.125 39.78125 C 38.214844 40.195312 38.214844 40.683594 38.113281 42.433594 C 38.09375 42.769531 38.09375 43.105469 38.113281 43.183594 C 38.15625 43.359375 38.351562 43.464844 38.777344 43.542969 C 38.957031 43.574219 39.25 43.675781 39.429688 43.765625 C 39.730469 43.914062 39.8125 43.929688 40.453125 43.945312 C 41.273438 43.972656 41.324219 43.949219 41.425781 43.539062 C 41.503906 43.199219 41.46875 42.019531 41.347656 40.980469 C 41.242188 40.097656 41.210938 39.652344 41.175781 38.363281 C 41.128906 36.632812 41.054688 35.765625 40.886719 35.03125 C 40.816406 34.714844 40.800781 34.390625 40.808594 33.613281 C 40.820312 32.679688 40.835938 32.523438 41.03125 31.566406 C 41.273438 30.382812 41.304688 29.757812 41.132812 29.5 C 40.992188 29.285156 40.886719 29.320312 40.761719 29.613281 M 9.898438 32.265625 C 9.71875 32.398438 8.9375 33.90625 8.703125 34.582031 C 8.554688 35.003906 8.367188 35.863281 8.320312 36.316406 C 8.304688 36.46875 8.265625 36.660156 8.234375 36.742188 C 8.105469 37.082031 8.230469 38.164062 8.476562 38.851562 C 8.699219 39.472656 9.320312 40.660156 9.515625 40.84375 C 9.546875 40.875 9.640625 40.992188 9.722656 41.105469 C 9.964844 41.433594 10.320312 41.761719 10.75 42.046875 C 10.972656 42.195312 11.316406 42.46875 11.515625 42.660156 C 11.929688 43.042969 12.117188 43.101562 12.226562 42.867188 C 12.402344 42.476562 11.78125 41.589844 10.625 40.566406 C 10.007812 40.023438 9.589844 39.148438 9.351562 37.898438 C 9.253906 37.386719 9.234375 36.074219 9.320312 35.632812 C 9.351562 35.46875 9.390625 35.257812 9.40625 35.167969 C 9.484375 34.730469 9.65625 34.140625 9.828125 33.722656 C 10.097656 33.066406 10.261719 32.542969 10.242188 32.40625 C 10.21875 32.257812 10.019531 32.175781 9.898438 32.265625 M 29.828125 32.328125 C 29.699219 32.457031 29.488281 33.191406 29.410156 33.777344 C 29.335938 34.316406 29.320312 36.265625 29.378906 37.234375 C 29.398438 37.539062 29.425781 38.035156 29.441406 38.335938 C 29.601562 41.304688 29.855469 42.472656 30.722656 44.230469 C 30.992188 44.773438 31.21875 45.277344 31.226562 45.351562 C 31.242188 45.511719 31.179688 45.515625 30.695312 45.382812 C 30.519531 45.335938 30.265625 45.292969 30.140625 45.292969 C 29.683594 45.292969 29.019531 45.636719 28.757812 46.003906 C 28.59375 46.234375 28.554688 46.558594 28.671875 46.675781 C 28.816406 46.820312 28.945312 46.785156 29.257812 46.515625 C 29.417969 46.378906 29.632812 46.226562 29.738281 46.183594 C 29.996094 46.070312 30.441406 46.117188 30.871094 46.296875 C 31.058594 46.375 31.273438 46.441406 31.351562 46.441406 C 31.558594 46.441406 32.007812 46.195312 32.140625 46.003906 C 32.382812 45.667969 32.1875 45.027344 31.277344 43.160156 C 30.476562 41.523438 30.25 40.277344 30.324219 37.875 C 30.402344 35.34375 30.375 34.40625 30.167969 32.886719 C 30.09375 32.351562 29.984375 32.171875 29.828125 32.328125 M 9.929688 35.074219 C 9.902344 35.125 9.863281 35.304688 9.839844 35.46875 C 9.820312 35.632812 9.757812 35.988281 9.699219 36.261719 C 9.503906 37.214844 9.515625 37.984375 9.726562 38.027344 C 9.878906 38.054688 9.921875 37.9375 9.921875 37.488281 C 9.921875 37.261719 9.996094 36.644531 10.085938 36.109375 C 10.175781 35.578125 10.234375 35.105469 10.214844 35.058594 C 10.171875 34.945312 9.992188 34.957031 9.929688 35.074219 M 15.375 36.394531 C 15.148438 36.515625 14.765625 36.855469 14.039062 37.578125 C 13.527344 38.085938 12.757812 38.683594 12.050781 39.125 C 11.625 39.390625 11.496094 39.542969 11.644531 39.597656 C 11.765625 39.644531 13.214844 39.097656 13.582031 38.863281 C 14.1875 38.484375 14.542969 38.152344 15.246094 37.3125 C 15.777344 36.675781 15.863281 36.535156 15.78125 36.40625 C 15.703125 36.277344 15.601562 36.273438 15.375 36.394531 M 36.90625 37.71875 C 36.847656 37.792969 36.800781 38.355469 36.753906 39.589844 C 36.71875 40.460938 36.628906 41.871094 36.582031 42.238281 C 36.527344 42.695312 36.542969 43.214844 36.617188 43.304688 C 36.722656 43.429688 36.996094 43.382812 37.117188 43.21875 C 37.210938 43.085938 37.238281 42.996094 37.300781 42.542969 C 37.359375 42.109375 37.375 40.839844 37.324219 40.246094 C 37.296875 39.914062 37.261719 39.4375 37.246094 39.179688 C 37.230469 38.925781 37.203125 38.523438 37.1875 38.285156 C 37.152344 37.730469 37.054688 37.535156 36.90625 37.71875 M 9.707031 38.410156 C 9.542969 38.515625 9.863281 39.148438 10.027344 39.046875 C 10.136719 38.980469 10.089844 38.714844 9.9375 38.535156 C 9.828125 38.410156 9.765625 38.375 9.707031 38.410156 M 13.363281 42.972656 C 13.28125 43.074219 13.320312 43.261719 13.566406 43.929688 C 13.996094 45.09375 14.207031 45.445312 14.863281 46.09375 C 15.621094 46.835938 16.417969 47.148438 18.492188 47.507812 C 18.777344 47.558594 19.367188 47.683594 19.804688 47.785156 C 20.238281 47.886719 20.765625 48.007812 20.976562 48.054688 C 21.4375 48.160156 21.773438 48.269531 22.535156 48.554688 C 23.316406 48.847656 23.691406 48.921875 24.269531 48.882812 C 25.171875 48.824219 26.246094 48.519531 26.660156 48.203125 C 27.375 47.65625 27.71875 45.722656 27.402344 44.027344 C 27.335938 43.675781 27.257812 43.328125 27.230469 43.25 C 27.15625 43.058594 26.988281 43.074219 26.835938 43.289062 C 26.710938 43.464844 26.710938 43.46875 26.726562 45.054688 C 26.746094 46.851562 26.742188 46.878906 26.355469 47.253906 C 25.808594 47.785156 25.152344 48.078125 24.515625 48.078125 C 23.949219 48.078125 23.109375 47.886719 22.125 47.53125 C 21.882812 47.445312 21.441406 47.285156 21.140625 47.179688 C 20.300781 46.878906 19.429688 46.675781 18.410156 46.554688 C 16.472656 46.316406 16.4375 46.308594 16.019531 46.019531 C 15.90625 45.941406 15.65625 45.6875 15.464844 45.457031 C 15.273438 45.222656 15.015625 44.925781 14.890625 44.796875 C 14.585938 44.472656 14.234375 43.976562 14.011719 43.554688 C 13.824219 43.199219 13.578125 42.894531 13.484375 42.894531 C 13.453125 42.894531 13.398438 42.929688 13.363281 42.972656 M 36.457031 44.132812 C 36.265625 44.425781 36 44.800781 35.859375 44.964844 C 34.546875 46.515625 34.214844 46.996094 34.214844 47.359375 C 34.214844 47.605469 34.414062 47.796875 34.761719 47.890625 C 35.210938 48.007812 35.367188 47.992188 35.867188 47.78125 C 35.933594 47.753906 35.964844 47.765625 35.964844 47.816406 C 35.964844 47.859375 36.019531 47.949219 36.085938 48.011719 C 36.230469 48.148438 36.890625 48.269531 37.242188 48.226562 C 37.707031 48.171875 40.195312 46.832031 40.664062 46.386719 C 40.976562 46.089844 41.007812 45.878906 40.851562 45.1875 C 40.679688 44.433594 40.632812 44.3125 40.496094 44.3125 C 40.367188 44.3125 40.265625 44.488281 40.140625 44.941406 C 39.824219 46.070312 39.5625 46.441406 39.085938 46.441406 C 38.769531 46.4375 38.761719 46.355469 39.042969 46.09375 C 39.308594 45.847656 39.332031 45.757812 39.167969 45.65625 C 39.074219 45.59375 38.886719 45.671875 38.324219 46.007812 C 38.167969 46.101562 38.039062 46.167969 38.039062 46.152344 C 38.039062 46.140625 38.113281 46.03125 38.207031 45.917969 C 38.601562 45.425781 38.71875 45.003906 38.574219 44.601562 C 38.503906 44.410156 38.417969 44.375 38.300781 44.496094 C 37.753906 45.046875 36.71875 46.171875 36.550781 46.398438 C 36.371094 46.636719 36.285156 46.703125 36.050781 46.773438 C 35.730469 46.871094 35.59375 46.855469 35.695312 46.734375 C 35.730469 46.695312 35.789062 46.660156 35.832031 46.660156 C 35.871094 46.660156 36.113281 46.449219 36.371094 46.195312 C 36.828125 45.742188 37.164062 45.214844 37.164062 44.953125 C 37.164062 44.800781 37.007812 44.777344 36.832031 44.90625 C 36.746094 44.972656 36.671875 45.015625 36.671875 45.003906 C 36.671875 44.988281 36.75 44.8125 36.84375 44.609375 C 37.113281 44.035156 37.121094 43.605469 36.859375 43.601562 C 36.828125 43.601562 36.644531 43.84375 36.457031 44.132812 M 14.875 43.726562 C 14.832031 43.839844 15.566406 44.980469 15.9375 45.378906 C 16.261719 45.722656 16.515625 45.878906 16.664062 45.820312 C 16.855469 45.746094 16.746094 45.542969 16.261719 45.078125 C 15.996094 44.820312 15.632812 44.410156 15.460938 44.160156 C 15.285156 43.914062 15.125 43.710938 15.105469 43.710938 C 15.082031 43.710938 15.027344 43.699219 14.984375 43.679688 C 14.941406 43.664062 14.890625 43.683594 14.875 43.726562 M 15.804688 43.726562 C 15.777344 43.804688 16.1875 44.421875 16.296875 44.460938 C 16.398438 44.5 16.527344 44.371094 16.488281 44.265625 C 16.46875 44.21875 16.371094 44.058594 16.265625 43.917969 C 16.082031 43.65625 15.859375 43.566406 15.804688 43.726562 " fill-opacity="1" fill-rule="evenodd"/></g></svg>