<svg xmlns="http://www.w3.org/2000/svg" xmlns:xlink="http://www.w3.org/1999/xlink" width="70" zoomAndPan="magnify" viewBox="0 0 52.5 52.499999" height="70" preserveAspectRatio="xMidYMid meet" version="1.0"><defs><clipPath id="9af00b583f"><path d="M 2.632812 3.648438 L 49.371094 3.648438 L 49.371094 45.667969 L 2.632812 45.667969 Z M 2.632812 3.648438 " clip-rule="nonzero"/></clipPath></defs><g clip-path="url(#9af00b583f)"><path fill="#996535" d="M 48.785156 29.78125 C 48.683594 29.980469 48.542969 30.125 48.320312 30.15625 C 48.074219 30.191406 47.824219 30.222656 47.578125 30.21875 C 45.542969 30.207031 43.511719 30.183594 41.480469 30.167969 C 40.320312 30.160156 39.164062 30.167969 38.003906 30.167969 C 37.914062 30.167969 37.824219 30.167969 37.695312 30.167969 C 37.921875 29.234375 37.890625 28.308594 37.945312 27.371094 C 38.0625 27.371094 38.160156 27.371094 38.257812 27.371094 C 40.910156 27.378906 43.558594 27.386719 46.207031 27.394531 C 46.65625 27.398438 47.109375 27.378906 47.554688 27.421875 C 47.828125 27.449219 48.097656 27.5625 48.359375 27.664062 C 48.582031 27.75 48.703125 27.957031 48.792969 28.164062 C 49.023438 28.699219 49.054688 29.242188 48.785156 29.78125 Z M 47.398438 30.910156 C 47.351562 31.390625 47.308594 31.871094 47.25 32.347656 C 47.160156 33.074219 47.066406 33.800781 46.960938 34.527344 C 46.871094 35.128906 46.527344 35.542969 45.957031 35.761719 C 45.40625 35.96875 44.832031 36.054688 44.246094 36.070312 C 44.214844 36.070312 44.179688 36.0625 44.140625 36.058594 C 44.136719 35.804688 44.152344 35.550781 43.972656 35.3125 C 43.769531 35.535156 43.796875 35.808594 43.75 36.070312 C 43.515625 36.070312 43.28125 36.089844 43.050781 36.070312 C 42.472656 36.015625 41.894531 35.949219 41.316406 35.878906 C 40.746094 35.808594 40.453125 35.4375 40.363281 34.90625 C 40.261719 34.289062 40.167969 33.671875 40.117188 33.050781 C 40.054688 32.335938 40.042969 31.621094 40.011719 30.902344 C 40.007812 30.824219 40.011719 30.742188 40.011719 30.644531 C 40.550781 30.644531 41.0625 30.644531 41.605469 30.644531 C 41.59375 30.746094 41.585938 30.808594 41.574219 30.875 C 41.523438 31.179688 41.53125 31.488281 41.5625 31.796875 C 41.570312 31.84375 41.582031 31.894531 41.601562 31.941406 C 41.632812 32.027344 41.691406 32.078125 41.789062 32.074219 C 41.886719 32.070312 41.9375 32.003906 41.953125 31.917969 C 42.019531 31.585938 42.03125 31.253906 41.984375 30.921875 C 41.976562 30.839844 41.964844 30.757812 41.953125 30.660156 C 42.613281 30.660156 43.257812 30.660156 43.894531 30.660156 C 43.894531 30.867188 43.890625 31.058594 43.894531 31.246094 C 43.898438 31.527344 43.902344 31.8125 43.910156 32.09375 C 43.910156 32.125 43.910156 32.167969 43.929688 32.191406 C 43.964844 32.238281 44.015625 32.3125 44.0625 32.3125 C 44.121094 32.308594 44.210938 32.261719 44.238281 32.210938 C 44.28125 32.113281 44.304688 32 44.304688 31.894531 C 44.3125 31.496094 44.308594 31.097656 44.308594 30.664062 C 44.828125 30.632812 45.378906 30.65625 45.964844 30.644531 C 45.953125 30.796875 45.945312 30.925781 45.9375 31.054688 C 45.929688 31.28125 45.925781 31.503906 45.917969 31.730469 C 45.917969 31.761719 45.925781 31.792969 45.933594 31.828125 C 45.953125 31.921875 45.988281 32.007812 46.101562 32.011719 C 46.21875 32.015625 46.257812 31.933594 46.273438 31.835938 C 46.324219 31.539062 46.378906 31.246094 46.335938 30.945312 C 46.324219 30.863281 46.320312 30.78125 46.308594 30.664062 C 46.683594 30.683594 47.035156 30.703125 47.398438 30.722656 C 47.398438 30.796875 47.402344 30.851562 47.398438 30.910156 Z M 37.144531 26.679688 C 37.0625 26.78125 36.976562 26.796875 36.867188 26.792969 C 35.5 26.78125 34.132812 26.773438 32.765625 26.761719 C 29.699219 26.738281 26.632812 26.710938 23.566406 26.6875 C 20.730469 26.664062 17.898438 26.636719 15.066406 26.613281 C 15.03125 26.613281 15 26.613281 14.957031 26.613281 C 14.65625 26.152344 14.394531 26.148438 14.054688 26.589844 C 13.738281 26.589844 13.414062 26.59375 13.089844 26.585938 C 13.03125 26.585938 12.964844 26.550781 12.914062 26.511719 C 12.820312 26.441406 12.730469 26.367188 12.652344 26.277344 C 12.097656 25.636719 11.546875 24.988281 10.992188 24.347656 C 10.890625 24.230469 10.867188 24.117188 10.890625 23.960938 C 11.0625 22.835938 10.421875 21.726562 9.359375 21.324219 C 9.210938 21.265625 9.132812 21.183594 9.074219 21.042969 C 8.453125 19.625 8.214844 18.140625 8.351562 16.601562 C 8.488281 15.050781 9.183594 13.773438 10.3125 12.722656 C 10.394531 12.648438 10.507812 12.59375 10.617188 12.558594 C 11.453125 12.304688 12.28125 12.03125 13.128906 11.8125 C 14.871094 11.363281 16.652344 11.097656 18.441406 10.894531 C 21.335938 10.570312 24.238281 10.445312 27.148438 10.519531 C 28.53125 10.554688 29.914062 10.636719 31.292969 10.75 C 32.519531 10.851562 33.746094 10.988281 34.964844 11.167969 C 37.167969 11.492188 39.328125 11.992188 41.4375 12.722656 C 41.890625 12.878906 42.21875 13.125 42.503906 13.488281 C 43.398438 14.632812 43.789062 15.933594 43.785156 17.375 C 43.78125 18.636719 43.535156 19.839844 43.046875 21 C 42.980469 21.15625 42.890625 21.25 42.726562 21.308594 C 41.65625 21.691406 40.996094 22.835938 41.191406 23.960938 C 41.21875 24.113281 41.203125 24.230469 41.101562 24.355469 C 40.550781 25.046875 39.976562 25.714844 39.332031 26.320312 C 39.195312 26.445312 39.070312 26.578125 38.949219 26.714844 C 38.882812 26.789062 38.808594 26.820312 38.707031 26.816406 C 38.492188 26.808594 38.273438 26.808594 38.058594 26.8125 C 37.949219 26.8125 37.878906 26.777344 37.804688 26.6875 C 37.605469 26.453125 37.328125 26.445312 37.144531 26.679688 Z M 36.945312 30.152344 C 36.871094 30.15625 36.796875 30.164062 36.726562 30.164062 C 35.175781 30.160156 33.628906 30.152344 32.078125 30.148438 C 31.941406 30.148438 31.851562 30.109375 31.769531 29.992188 C 31.136719 29.085938 30.328125 28.355469 29.402344 27.761719 C 29.136719 27.59375 28.851562 27.460938 28.574219 27.3125 C 28.574219 27.304688 28.574219 27.292969 28.574219 27.28125 C 31.386719 27.3125 34.199219 27.339844 37.039062 27.371094 C 37.050781 28.300781 37.070312 29.21875 36.945312 30.152344 Z M 29.5625 30.128906 C 29.4375 29.039062 28.914062 28.195312 28.046875 27.546875 C 28.058594 27.53125 28.070312 27.519531 28.082031 27.503906 C 28.195312 27.546875 28.3125 27.582031 28.421875 27.632812 C 28.832031 27.820312 29.207031 28.066406 29.558594 28.347656 C 30.132812 28.808594 30.65625 29.316406 31.109375 29.898438 C 31.160156 29.960938 31.203125 30.03125 31.273438 30.128906 C 30.675781 30.128906 30.132812 30.128906 29.5625 30.128906 Z M 27.757812 30.117188 C 27.800781 29.210938 27.816406 28.316406 27.367188 27.488281 C 28.207031 27.738281 29.167969 29.113281 29.195312 30.117188 C 28.710938 30.117188 28.246094 30.117188 27.757812 30.117188 Z M 27.339844 30.109375 C 26.753906 30.109375 26.171875 30.109375 25.550781 30.109375 C 25.597656 30.015625 25.636719 29.9375 25.675781 29.863281 C 25.953125 29.355469 26.175781 28.828125 26.269531 28.253906 C 26.316406 27.96875 26.34375 27.679688 26.386719 27.371094 C 26.429688 27.367188 26.492188 27.375 26.554688 27.359375 C 26.863281 27.296875 27.011719 27.472656 27.125 27.71875 C 27.265625 28.035156 27.34375 28.363281 27.371094 28.707031 C 27.410156 29.171875 27.425781 29.632812 27.339844 30.109375 Z M 25.035156 30.105469 C 24.566406 30.105469 24.109375 30.105469 23.648438 30.105469 C 24.117188 29.300781 25.582031 27.355469 26.011719 27.273438 C 26.125 27.734375 25.574219 29.324219 25.035156 30.105469 Z M 23.148438 29.941406 C 23.054688 30.074219 22.953125 30.117188 22.792969 30.117188 C 20.9375 30.105469 19.078125 30.101562 17.21875 30.097656 C 16.554688 30.09375 15.886719 30.089844 15.21875 30.089844 C 15.140625 30.085938 15.058594 30.082031 14.980469 30.078125 C 14.980469 29.09375 14.980469 28.144531 14.980469 27.203125 C 15.207031 27.148438 24.773438 27.214844 25.378906 27.273438 C 25.363281 27.304688 25.355469 27.335938 25.335938 27.351562 C 24.816406 27.800781 24.375 28.324219 23.957031 28.863281 C 23.683594 29.222656 23.410156 29.578125 23.148438 29.941406 Z M 13.710938 30.082031 C 10.621094 30.078125 7.527344 30.074219 4.4375 30.066406 C 4.289062 30.066406 4.132812 30.078125 3.992188 30.039062 C 3.511719 29.898438 3.308594 29.523438 3.253906 29.066406 C 3.191406 28.558594 3.296875 28.074219 3.511719 27.609375 C 3.574219 27.480469 3.664062 27.398438 3.789062 27.335938 C 4.226562 27.125 4.6875 27.042969 5.167969 27.046875 C 6.761719 27.070312 8.351562 27.089844 9.945312 27.109375 C 11.179688 27.125 12.410156 27.136719 13.644531 27.152344 C 13.734375 27.152344 13.824219 27.152344 13.929688 27.152344 C 13.832031 28.152344 13.933594 29.097656 13.984375 30.070312 C 13.890625 30.074219 13.800781 30.082031 13.710938 30.082031 Z M 11.890625 34.730469 C 11.851562 34.941406 11.773438 35.148438 11.691406 35.347656 C 11.601562 35.554688 11.4375 35.703125 11.21875 35.761719 C 10.9375 35.835938 10.652344 35.90625 10.363281 35.9375 C 9.800781 35.996094 9.238281 36.023438 8.671875 36.0625 C 8.609375 36.066406 8.542969 36.058594 8.457031 36.050781 C 8.441406 35.777344 8.449219 35.523438 8.265625 35.296875 C 8.046875 35.507812 8.101562 35.777344 8.082031 36.046875 C 7.878906 36.035156 7.691406 36.035156 7.503906 36.015625 C 7.0625 35.972656 6.628906 35.882812 6.21875 35.714844 C 5.710938 35.507812 5.378906 35.140625 5.285156 34.597656 C 5.175781 33.941406 5.085938 33.28125 5.003906 32.621094 C 4.921875 31.976562 4.867188 31.332031 4.796875 30.683594 C 4.796875 30.652344 4.796875 30.621094 4.796875 30.578125 C 5.171875 30.578125 5.53125 30.578125 5.882812 30.578125 C 5.882812 30.792969 5.875 30.992188 5.882812 31.1875 C 5.894531 31.386719 5.917969 31.585938 5.941406 31.785156 C 5.953125 31.890625 5.988281 31.984375 6.117188 31.988281 C 6.222656 31.988281 6.292969 31.910156 6.292969 31.753906 C 6.292969 31.4375 6.277344 31.121094 6.265625 30.808594 C 6.265625 30.742188 6.253906 30.675781 6.242188 30.574219 C 6.816406 30.5625 7.375 30.566406 7.945312 30.570312 C 7.929688 30.886719 7.902344 31.175781 7.898438 31.464844 C 7.898438 31.664062 7.925781 31.863281 7.941406 32.058594 C 7.949219 32.109375 7.960938 32.164062 7.992188 32.199219 C 8.035156 32.242188 8.105469 32.304688 8.148438 32.292969 C 8.207031 32.277344 8.285156 32.207031 8.289062 32.152344 C 8.320312 31.890625 8.339844 31.621094 8.339844 31.355469 C 8.339844 31.109375 8.3125 30.859375 8.296875 30.613281 C 8.464844 30.558594 9.890625 30.546875 10.269531 30.59375 C 10.257812 30.707031 10.257812 30.820312 10.234375 30.929688 C 10.175781 31.214844 10.214844 31.496094 10.246094 31.773438 C 10.265625 31.964844 10.332031 32.054688 10.4375 32.058594 C 10.546875 32.058594 10.636719 31.972656 10.648438 31.792969 C 10.664062 31.511719 10.660156 31.230469 10.65625 30.949219 C 10.652344 30.832031 10.628906 30.71875 10.609375 30.585938 C 11.132812 30.585938 11.648438 30.585938 12.175781 30.585938 C 12.183594 30.636719 12.199219 30.683594 12.199219 30.730469 C 12.207031 32.074219 12.140625 33.410156 11.890625 34.730469 Z M 8.542969 21.464844 C 9.691406 21.492188 10.578125 22.414062 10.550781 23.546875 C 10.5625 24.613281 9.65625 25.664062 8.386719 25.617188 C 7.261719 25.574219 6.367188 24.628906 6.394531 23.476562 C 6.417969 22.339844 7.386719 21.433594 8.542969 21.464844 Z M 3.957031 22.351562 C 4.085938 21.707031 4.242188 21.070312 4.488281 20.453125 C 4.84375 19.558594 5.367188 18.792969 6.1875 18.257812 C 6.582031 17.996094 7.007812 17.8125 7.492188 17.8125 C 7.550781 17.808594 7.605469 17.8125 7.695312 17.8125 C 7.75 18.957031 7.96875 20.0625 8.410156 21.136719 C 6.925781 21.292969 6.226562 22.324219 6.105469 23.308594 C 5.988281 24.265625 6.476562 25.265625 7.457031 25.75 C 8.265625 26.148438 9.574219 26.175781 10.5625 24.898438 C 11.039062 25.441406 11.515625 25.980469 11.988281 26.519531 C 11.980469 26.539062 11.976562 26.546875 11.972656 26.554688 C 11.96875 26.558594 11.960938 26.566406 11.957031 26.566406 C 9.28125 26.5625 6.605469 26.554688 3.929688 26.546875 C 3.890625 26.546875 3.851562 26.53125 3.785156 26.519531 C 3.753906 26.222656 3.714844 25.929688 3.691406 25.628906 C 3.601562 24.523438 3.738281 23.433594 3.957031 22.351562 Z M 13.128906 11.160156 C 14.335938 10.773438 15.566406 10.480469 16.824219 10.300781 C 18.191406 10.109375 19.5625 9.933594 20.9375 9.769531 C 21.589844 9.695312 22.246094 9.652344 22.90625 9.613281 C 23.851562 9.5625 24.800781 9.503906 25.75 9.488281 C 26.96875 9.46875 28.183594 9.515625 29.398438 9.632812 C 30.09375 9.699219 30.792969 9.726562 31.488281 9.808594 C 32.707031 9.949219 33.917969 10.105469 35.132812 10.273438 C 36.207031 10.425781 37.261719 10.664062 38.304688 10.957031 C 39.230469 11.214844 40.128906 11.542969 40.941406 12.070312 C 41.011719 12.113281 41.078125 12.160156 41.128906 12.242188 C 40.980469 12.195312 40.832031 12.148438 40.6875 12.101562 C 38.957031 11.527344 37.1875 11.136719 35.390625 10.863281 C 34.113281 10.667969 32.832031 10.492188 31.546875 10.367188 C 29.007812 10.117188 26.457031 10.03125 23.90625 10.101562 C 22.699219 10.136719 21.488281 10.179688 20.285156 10.265625 C 18.171875 10.421875 16.074219 10.703125 14.003906 11.15625 C 13.378906 11.296875 12.761719 11.464844 12.140625 11.617188 C 12.085938 11.632812 12.035156 11.640625 11.984375 11.652344 C 11.976562 11.632812 11.972656 11.617188 11.96875 11.601562 C 12.355469 11.453125 12.734375 11.289062 13.128906 11.160156 Z M 37.949219 10.207031 C 37.628906 10.132812 37.324219 10.0625 37.019531 9.992188 C 35.921875 9.75 34.8125 9.574219 33.695312 9.449219 C 32.941406 9.363281 32.191406 9.261719 31.433594 9.199219 C 30.464844 9.117188 29.488281 9.070312 28.515625 9.003906 C 27.941406 8.96875 27.371094 8.9375 26.796875 8.890625 C 26.011719 8.828125 25.230469 8.863281 24.449219 8.917969 C 23.320312 8.996094 22.1875 9.066406 21.058594 9.160156 C 20.253906 9.226562 19.449219 9.3125 18.648438 9.417969 C 17.683594 9.542969 16.71875 9.675781 15.761719 9.859375 C 14.953125 10.011719 14.160156 10.238281 13.359375 10.433594 C 13.261719 10.457031 13.167969 10.484375 13.039062 10.519531 C 13.246094 9.097656 13.527344 7.726562 13.886719 6.363281 C 14.476562 6.277344 15.050781 6.183594 15.628906 6.105469 C 16.46875 5.992188 17.3125 5.871094 18.15625 5.78125 C 19.074219 5.6875 19.996094 5.609375 20.917969 5.558594 C 22.308594 5.476562 23.699219 5.414062 25.089844 5.363281 C 26.523438 5.3125 27.953125 5.316406 29.386719 5.390625 C 30.972656 5.472656 32.535156 5.6875 34.085938 6.019531 C 35.175781 6.253906 36.269531 6.484375 37.359375 6.71875 C 37.433594 6.734375 37.503906 6.753906 37.605469 6.777344 C 37.730469 7.921875 37.941406 9.042969 37.949219 10.207031 Z M 13.214844 5.671875 C 14.023438 5.453125 14.835938 5.214844 15.660156 5.011719 C 16.832031 4.71875 18.027344 4.535156 19.226562 4.390625 C 20.632812 4.222656 22.042969 4.125 23.460938 4.078125 C 24.921875 4.027344 26.378906 4.042969 27.835938 4.109375 C 29.824219 4.203125 31.804688 4.398438 33.773438 4.707031 C 35.316406 4.945312 36.839844 5.261719 38.34375 5.65625 C 38.410156 5.671875 38.472656 5.695312 38.554688 5.71875 C 38.671875 6.507812 38.816406 7.292969 38.859375 8.089844 C 38.902344 8.875 38.917969 9.664062 38.945312 10.488281 C 38.695312 10.417969 38.484375 10.355469 38.3125 10.304688 C 38.265625 9.722656 38.234375 9.175781 38.183594 8.628906 C 38.136719 8.164062 38.074219 7.703125 38.003906 7.242188 C 37.972656 7.039062 37.898438 6.839844 37.847656 6.640625 C 37.8125 6.503906 37.722656 6.433594 37.589844 6.398438 C 37.203125 6.304688 36.816406 6.191406 36.425781 6.113281 C 35.175781 5.859375 33.929688 5.605469 32.675781 5.375 C 31.617188 5.183594 30.546875 5.085938 29.472656 5.027344 C 28.089844 4.957031 26.707031 4.921875 25.324219 4.988281 C 24.019531 5.046875 22.710938 5.082031 21.402344 5.160156 C 19.796875 5.253906 18.195312 5.378906 16.605469 5.640625 C 15.6875 5.789062 14.765625 5.945312 13.847656 6.09375 C 13.742188 6.109375 13.703125 6.171875 13.675781 6.25 C 13.546875 6.609375 13.394531 6.960938 13.300781 7.332031 C 13.023438 8.414062 12.789062 9.503906 12.691406 10.644531 C 12.46875 10.734375 12.25 10.820312 12.011719 10.910156 C 12.316406 9.140625 12.789062 7.429688 13.214844 5.671875 Z M 41.457031 23.480469 C 41.480469 22.34375 42.449219 21.4375 43.605469 21.464844 C 44.75 21.488281 45.640625 22.410156 45.617188 23.542969 C 45.628906 24.613281 44.722656 25.664062 43.453125 25.617188 C 42.332031 25.578125 41.433594 24.632812 41.457031 23.480469 Z M 44.398438 17.816406 C 44.757812 17.796875 45.089844 17.835938 45.40625 17.980469 C 46.207031 18.34375 46.804688 18.929688 47.242188 19.6875 C 47.625 20.351562 47.851562 21.070312 48.023438 21.8125 C 48.257812 22.820312 48.4375 23.839844 48.429688 24.878906 C 48.425781 25.394531 48.359375 25.90625 48.320312 26.421875 C 48.296875 26.699219 48.125 26.851562 47.875 26.933594 C 47.773438 26.964844 47.664062 26.984375 47.558594 26.980469 C 45.191406 26.933594 42.824219 26.878906 40.460938 26.828125 C 40.285156 26.824219 40.109375 26.828125 39.9375 26.828125 C 39.921875 26.808594 39.910156 26.789062 39.898438 26.769531 C 40.4375 26.148438 40.976562 25.53125 41.53125 24.894531 C 41.59375 24.964844 41.648438 25.03125 41.703125 25.097656 C 42.742188 26.359375 44.683594 26.265625 45.589844 24.910156 C 46.441406 23.640625 45.851562 21.84375 44.402344 21.3125 C 44.183594 21.234375 43.953125 21.191406 43.695312 21.121094 C 44.117188 20.078125 44.351562 18.976562 44.398438 17.816406 Z M 41.367188 39.824219 C 41.597656 39.78125 41.824219 39.738281 42.054688 39.695312 C 42.125 39.683594 42.199219 39.675781 42.273438 39.667969 C 42.023438 39.917969 41.828125 40.171875 41.707031 40.480469 C 41.660156 40.601562 41.5625 40.601562 41.464844 40.617188 C 40.980469 40.6875 40.496094 40.75 40.011719 40.820312 C 39.722656 40.863281 39.441406 40.914062 39.132812 40.960938 C 39.152344 40.667969 39.277344 40.429688 39.457031 40.222656 C 39.511719 40.164062 39.617188 40.136719 39.703125 40.121094 C 40.257812 40.015625 40.8125 39.921875 41.367188 39.824219 Z M 43.902344 40.117188 C 44.125 40.4375 44.199219 40.671875 44.214844 41.191406 C 44.257812 41.597656 44.070312 41.976562 43.714844 42.265625 C 43.332031 42.574219 42.953125 42.613281 42.5625 42.289062 C 42.007812 41.824219 41.667969 40.910156 42.308594 40.074219 C 42.757812 39.488281 43.480469 39.511719 43.902344 40.117188 Z M 42.3125 42.660156 C 41.515625 42.703125 40.71875 42.742188 39.917969 42.78125 C 39.910156 42.78125 39.902344 42.78125 39.894531 42.78125 C 39.507812 42.78125 39.441406 42.734375 39.304688 42.332031 C 40.148438 42.167969 41.007812 42.148438 41.832031 42.035156 C 42.027344 42.238281 42.207031 42.429688 42.398438 42.628906 C 42.367188 42.640625 42.339844 42.660156 42.3125 42.660156 Z M 39.183594 42.101562 C 39.03125 41.824219 39.011719 41.535156 39.070312 41.246094 C 39.917969 41.113281 40.753906 40.980469 41.570312 40.851562 C 41.621094 41.167969 41.675781 41.492188 41.730469 41.835938 C 40.886719 41.875 40.03125 41.898438 39.183594 42.101562 Z M 33.292969 40.945312 C 33.347656 41.003906 33.40625 41.074219 33.480469 41.105469 C 33.539062 41.128906 33.632812 41.121094 33.683594 41.089844 C 33.753906 41.042969 33.746094 40.953125 33.699219 40.886719 C 33.636719 40.796875 33.5625 40.714844 33.496094 40.632812 C 33.382812 40.488281 33.269531 40.347656 33.140625 40.1875 C 33.261719 40.125 33.363281 40.074219 33.46875 40.019531 C 33.644531 40.277344 33.796875 40.523438 33.972656 40.757812 C 34.140625 40.992188 34.332031 41.210938 34.523438 41.449219 C 34.167969 41.574219 33.894531 41.773438 33.699219 42.082031 C 33.292969 41.625 32.90625 41.1875 32.507812 40.734375 C 32.597656 40.636719 32.691406 40.539062 32.800781 40.425781 C 32.972656 40.609375 33.132812 40.777344 33.292969 40.945312 Z M 34.074219 40.058594 C 34.394531 40.429688 34.722656 40.796875 35.042969 41.164062 C 35.097656 41.226562 35.144531 41.292969 35.226562 41.394531 C 35.054688 41.394531 34.941406 41.394531 34.800781 41.394531 C 34.421875 40.9375 34.03125 40.46875 33.636719 39.992188 C 33.910156 39.867188 33.910156 39.871094 34.074219 40.058594 Z M 35.820312 43.035156 C 35.667969 43.277344 35.460938 43.445312 35.207031 43.566406 C 34.523438 43.894531 33.738281 43.269531 33.792969 42.644531 C 33.773438 42.441406 33.855469 42.261719 33.972656 42.09375 C 34.230469 41.71875 34.621094 41.574219 35.054688 41.582031 C 35.703125 41.589844 36.21875 42.417969 35.820312 43.035156 Z M 33.519531 42.929688 C 33.042969 42.34375 32.605469 41.804688 32.160156 41.253906 C 32.242188 41.121094 32.316406 40.996094 32.40625 40.851562 C 32.808594 41.339844 33.195312 41.808594 33.582031 42.28125 C 33.5625 42.472656 33.542969 42.671875 33.519531 42.929688 Z M 28.441406 42.132812 C 28.679688 42.109375 28.863281 42.164062 29.019531 42.34375 C 29.140625 42.480469 29.25 42.621094 29.320312 42.792969 C 28.796875 42.855469 28.296875 42.914062 27.796875 42.972656 C 27.507812 43.007812 27.21875 43.046875 26.929688 43.070312 C 26.863281 43.078125 26.761719 43.066406 26.726562 43.023438 C 26.511719 42.753906 26.253906 42.539062 25.941406 42.367188 C 26.027344 42.355469 26.117188 42.339844 26.207031 42.332031 C 26.953125 42.265625 27.699219 42.207031 28.441406 42.132812 Z M 29.453125 43.058594 C 29.582031 43.3125 29.625 43.59375 29.578125 43.910156 C 28.710938 43.945312 27.871094 44.125 27.003906 44.332031 C 27.003906 44.15625 27.019531 43.992188 27.003906 43.832031 C 26.984375 43.667969 26.941406 43.507812 26.90625 43.332031 C 27.742188 43.242188 28.582031 43.152344 29.453125 43.058594 Z M 29.390625 44.597656 C 29.359375 44.660156 29.261719 44.699219 29.1875 44.71875 C 28.855469 44.804688 28.527344 44.886719 28.191406 44.960938 C 27.714844 45.0625 27.230469 45.15625 26.75 45.25 C 26.695312 45.261719 26.640625 45.265625 26.582031 45.269531 C 26.71875 45.027344 26.84375 44.796875 26.988281 44.539062 C 27.796875 44.414062 28.640625 44.28125 29.507812 44.144531 C 29.519531 44.335938 29.464844 44.472656 29.390625 44.597656 Z M 26.324219 44.996094 C 26.0625 45.339844 25.742188 45.449219 25.335938 45.292969 C 24.910156 45.128906 24.601562 44.847656 24.476562 44.386719 C 24.363281 43.972656 24.339844 43.566406 24.507812 43.164062 C 24.613281 42.910156 24.78125 42.710938 25.039062 42.597656 C 25.347656 42.464844 25.640625 42.527344 25.898438 42.691406 C 26.371094 42.988281 26.644531 43.421875 26.65625 43.984375 C 26.644531 44.359375 26.554688 44.699219 26.324219 44.996094 Z M 19.105469 41.183594 C 19.097656 41.195312 19.089844 41.207031 19.082031 41.21875 C 18.9375 41.164062 18.792969 41.113281 18.640625 41.054688 C 18.675781 40.976562 18.703125 40.910156 18.734375 40.84375 C 18.757812 40.800781 18.78125 40.757812 18.824219 40.683594 C 18.925781 40.867188 19.015625 41.023438 19.105469 41.183594 Z M 19.398438 42.5 C 19.398438 43.207031 18.777344 43.882812 18.132812 43.863281 C 17.335938 43.835938 16.769531 43.171875 16.78125 42.554688 C 16.792969 41.957031 17.292969 41.269531 18.109375 41.273438 C 18.816406 41.277344 19.398438 41.828125 19.398438 42.5 Z M 15.929688 39.902344 C 16.046875 39.820312 16.171875 39.734375 16.304688 39.640625 C 16.507812 40.28125 16.699219 40.894531 16.90625 41.542969 C 16.804688 41.6875 16.691406 41.84375 16.5625 42.023438 C 16.347656 41.308594 16.144531 40.621094 15.929688 39.902344 Z M 17.246094 39.28125 C 17.414062 39.859375 17.582031 40.4375 17.75 41.027344 C 17.542969 41.125 17.328125 41.230469 17.113281 41.332031 C 16.914062 40.734375 16.714844 40.140625 16.515625 39.535156 C 16.730469 39.390625 16.964844 39.320312 17.246094 39.28125 Z M 18.183594 39.421875 C 18.210938 39.429688 18.234375 39.460938 18.253906 39.484375 C 18.269531 39.511719 18.28125 39.542969 18.292969 39.574219 C 18.375 39.765625 18.511719 39.953125 18.523438 40.144531 C 18.53125 40.339844 18.414062 40.539062 18.351562 40.734375 C 18.324219 40.820312 18.296875 40.90625 18.269531 41.007812 C 18.191406 41.007812 18.113281 41.007812 18.058594 41.007812 C 17.847656 40.429688 17.644531 39.863281 17.4375 39.285156 C 17.714844 39.257812 17.945312 39.355469 18.183594 39.421875 Z M 13.804688 40.484375 C 14.039062 40.460938 14.222656 40.503906 14.382812 40.683594 C 14.503906 40.824219 14.613281 40.964844 14.691406 41.140625 C 13.953125 41.230469 13.242188 41.3125 12.53125 41.398438 C 12.433594 41.410156 12.332031 41.425781 12.234375 41.425781 C 12.183594 41.421875 12.117188 41.398438 12.085938 41.363281 C 11.875 41.089844 11.609375 40.886719 11.242188 40.722656 C 11.398438 40.703125 11.496094 40.6875 11.59375 40.679688 C 12.328125 40.613281 13.066406 40.558594 13.804688 40.484375 Z M 14.820312 41.40625 C 14.960938 41.65625 14.980469 41.941406 14.941406 42.257812 C 14.074219 42.292969 13.226562 42.480469 12.402344 42.671875 C 12.367188 42.332031 12.335938 42.015625 12.304688 41.679688 C 13.117188 41.589844 13.960938 41.5 14.820312 41.40625 Z M 14.882812 42.574219 C 14.859375 42.898438 14.691406 43.070312 14.363281 43.128906 C 13.585938 43.277344 12.816406 43.453125 12.042969 43.617188 C 12.019531 43.621094 11.996094 43.617188 11.953125 43.617188 C 12.085938 43.375 12.214844 43.140625 12.351562 42.890625 C 13.175781 42.785156 14.007812 42.582031 14.878906 42.519531 C 14.882812 42.558594 14.882812 42.566406 14.882812 42.574219 Z M 11.558594 43.503906 C 11.417969 43.648438 11.253906 43.707031 11.058594 43.699219 C 10.589844 43.679688 10.214844 43.46875 9.992188 43.066406 C 9.71875 42.574219 9.65625 42.042969 9.882812 41.503906 C 9.984375 41.265625 10.136719 41.078125 10.375 40.964844 C 10.695312 40.808594 11.003906 40.871094 11.277344 41.046875 C 12.242188 41.664062 12.207031 42.835938 11.558594 43.503906 Z M 49.335938 28.730469 C 49.238281 28.238281 49.09375 27.757812 48.796875 27.34375 C 48.746094 27.277344 48.71875 27.210938 48.75 27.117188 C 49.003906 26.328125 49.058594 25.515625 49.035156 24.695312 C 49.007812 23.742188 48.855469 22.804688 48.648438 21.878906 C 48.472656 21.085938 48.242188 20.3125 47.851562 19.597656 C 47.394531 18.769531 46.777344 18.09375 45.945312 17.632812 C 45.488281 17.382812 45.015625 17.269531 44.5 17.398438 C 44.476562 17.402344 44.453125 17.394531 44.398438 17.390625 C 44.398438 17.257812 44.402344 17.125 44.398438 16.996094 C 44.394531 16.863281 44.378906 16.730469 44.367188 16.597656 C 44.226562 14.878906 43.484375 13.453125 42.234375 12.289062 C 41.453125 11.5625 40.535156 11.0625 39.539062 10.699219 C 39.453125 10.667969 39.371094 10.636719 39.300781 10.605469 C 39.316406 10.285156 39.34375 9.988281 39.34375 9.6875 C 39.355469 8.898438 39.289062 8.109375 39.191406 7.324219 C 39.117188 6.710938 39.019531 6.101562 38.839844 5.511719 C 38.816406 5.445312 38.75 5.375 38.6875 5.332031 C 38.628906 5.292969 38.546875 5.28125 38.476562 5.261719 C 37.078125 4.910156 35.667969 4.625 34.246094 4.386719 C 32.648438 4.125 31.046875 3.933594 29.433594 3.8125 C 27.5625 3.671875 25.6875 3.601562 23.8125 3.679688 C 22.886719 3.71875 21.964844 3.769531 21.042969 3.847656 C 20.277344 3.910156 19.519531 4.011719 18.757812 4.105469 C 17.582031 4.242188 16.414062 4.40625 15.261719 4.695312 C 14.625 4.859375 13.992188 5.035156 13.375 5.269531 C 13.105469 5.371094 12.957031 5.542969 12.882812 5.808594 C 12.652344 6.632812 12.390625 7.449219 12.1875 8.28125 C 11.972656 9.171875 11.8125 10.074219 11.636719 10.972656 C 11.617188 11.082031 11.554688 11.125 11.476562 11.171875 C 11.183594 11.34375 10.878906 11.507812 10.601562 11.707031 C 8.929688 12.894531 7.9375 14.492188 7.734375 16.554688 C 7.707031 16.835938 7.695312 17.117188 7.675781 17.40625 C 7.5625 17.386719 7.464844 17.371094 7.367188 17.359375 C 6.898438 17.292969 6.476562 17.445312 6.082031 17.675781 C 5.210938 18.179688 4.585938 18.910156 4.140625 19.804688 C 3.78125 20.527344 3.570312 21.296875 3.40625 22.082031 C 3.085938 23.609375 2.902344 25.140625 3.226562 26.691406 C 3.253906 26.8125 3.21875 26.894531 3.136719 26.980469 C 2.882812 27.234375 2.703125 27.539062 2.664062 27.898438 C 2.597656 28.492188 2.632812 29.089844 2.867188 29.644531 C 3.09375 30.179688 3.496094 30.542969 4.128906 30.542969 C 4.226562 30.542969 4.324219 30.554688 4.441406 30.566406 C 4.441406 30.691406 4.433594 30.808594 4.441406 30.921875 C 4.492188 31.71875 4.53125 32.519531 4.605469 33.3125 C 4.652344 33.792969 4.742188 34.269531 4.84375 34.742188 C 4.984375 35.378906 5.351562 35.867188 5.957031 36.128906 C 6.292969 36.269531 6.644531 36.378906 7 36.46875 C 7.535156 36.601562 8.089844 36.601562 8.640625 36.605469 C 9.484375 36.617188 10.320312 36.542969 11.140625 36.332031 C 11.753906 36.171875 12.128906 35.785156 12.300781 35.179688 C 12.554688 34.28125 12.644531 33.363281 12.679688 32.4375 C 12.703125 31.898438 12.683594 31.355469 12.683594 30.8125 C 12.683594 30.742188 12.695312 30.671875 12.699219 30.609375 C 16.003906 30.609375 19.285156 30.609375 22.609375 30.609375 C 22.550781 30.699219 22.519531 30.746094 22.484375 30.789062 C 21.914062 31.519531 21.347656 32.25 20.769531 32.972656 C 20.253906 33.617188 19.683594 34.210938 19.085938 34.785156 C 18.164062 35.671875 17.144531 36.4375 16.117188 37.195312 C 15.09375 37.953125 14.136719 38.773438 13.363281 39.789062 C 13.25 39.9375 13.152344 40.117188 13.003906 40.195312 C 12.851562 40.277344 12.644531 40.246094 12.464844 40.277344 C 11.824219 40.390625 11.183594 40.484375 10.550781 40.625 C 10.050781 40.738281 9.730469 41.066406 9.582031 41.566406 C 9.4375 42.046875 9.503906 42.5 9.636719 42.964844 C 9.796875 43.519531 10.535156 44.0625 11.160156 44.015625 C 11.386719 44 11.613281 43.984375 11.832031 43.945312 C 12.496094 43.828125 13.15625 43.699219 13.816406 43.566406 C 14.121094 43.503906 14.421875 43.441406 14.71875 43.355469 C 14.835938 43.320312 14.984375 43.242188 15.039062 43.140625 C 15.261719 42.726562 15.40625 42.277344 15.363281 41.800781 C 15.304688 41.183594 14.980469 40.707031 14.503906 40.332031 C 14.324219 40.195312 14.121094 40.140625 13.890625 40.164062 C 13.800781 40.171875 13.699219 40.195312 13.597656 40.128906 C 13.78125 39.9375 13.949219 39.757812 14.128906 39.582031 C 14.542969 39.171875 14.9375 38.734375 15.386719 38.367188 C 16.09375 37.785156 16.84375 37.253906 17.570312 36.699219 C 18.875 35.703125 20.070312 34.59375 21.109375 33.324219 C 21.789062 32.492188 22.441406 31.636719 23.097656 30.785156 C 23.203125 30.648438 23.3125 30.597656 23.472656 30.601562 C 23.832031 30.613281 24.191406 30.605469 24.550781 30.609375 C 24.601562 30.609375 24.652344 30.625 24.726562 30.632812 C 24.667969 30.730469 24.632812 30.804688 24.585938 30.871094 C 24.269531 31.332031 23.96875 31.800781 23.632812 32.25 C 22.6875 33.519531 21.71875 34.773438 20.78125 36.046875 C 19.957031 37.171875 19.269531 38.382812 18.734375 39.671875 C 18.71875 39.707031 18.695312 39.730469 18.652344 39.792969 C 18.589844 39.644531 18.550781 39.527344 18.488281 39.421875 C 18.441406 39.335938 18.382812 39.238281 18.304688 39.199219 C 17.574219 38.835938 16.558594 38.929688 15.921875 39.636719 C 15.765625 39.8125 15.707031 39.996094 15.777344 40.230469 C 15.921875 40.734375 16.042969 41.246094 16.175781 41.753906 C 16.292969 42.179688 16.40625 42.601562 16.53125 43.023438 C 16.796875 43.921875 17.71875 44.320312 18.367188 44.203125 C 19.21875 44.054688 19.859375 43.210938 19.730469 42.355469 C 19.65625 41.867188 19.5625 41.371094 19.308594 40.929688 C 19.21875 40.777344 19.148438 40.617188 19.058594 40.464844 C 18.996094 40.363281 18.996094 40.273438 19.046875 40.164062 C 19.222656 39.804688 19.390625 39.441406 19.5625 39.082031 C 20.28125 37.558594 21.21875 36.171875 22.222656 34.828125 C 23.230469 33.480469 24.289062 32.167969 25.171875 30.730469 C 25.234375 30.628906 25.3125 30.605469 25.417969 30.609375 C 25.96875 30.609375 26.519531 30.609375 27.070312 30.613281 C 27.128906 30.613281 27.183594 30.621094 27.25 30.628906 C 27.238281 30.695312 27.234375 30.753906 27.222656 30.808594 C 27.089844 31.34375 26.972656 31.878906 26.820312 32.40625 C 26.398438 33.863281 25.992188 35.320312 25.828125 36.835938 C 25.714844 37.875 25.742188 38.898438 25.976562 39.914062 C 26.121094 40.554688 26.410156 41.136719 26.667969 41.734375 C 26.699219 41.804688 26.726562 41.878906 26.761719 41.964844 C 26.617188 41.988281 26.503906 42 26.390625 42.023438 C 25.980469 42.105469 25.570312 42.171875 25.167969 42.277344 C 24.671875 42.40625 24.351562 42.730469 24.207031 43.230469 C 24.070312 43.707031 24.132812 44.164062 24.273438 44.628906 C 24.429688 45.167969 25.160156 45.710938 25.78125 45.667969 C 26.015625 45.652344 26.25 45.636719 26.476562 45.59375 C 27.132812 45.476562 27.785156 45.347656 28.4375 45.21875 C 28.75 45.15625 29.054688 45.082031 29.363281 45.003906 C 29.550781 44.957031 29.6875 44.84375 29.75 44.648438 C 29.800781 44.480469 29.867188 44.320312 29.914062 44.152344 C 30.136719 43.316406 29.839844 42.492188 29.144531 41.988281 C 28.96875 41.863281 28.777344 41.796875 28.558594 41.8125 C 28.269531 41.828125 27.976562 41.84375 27.6875 41.867188 C 27.496094 41.878906 27.308594 41.898438 27.113281 41.917969 C 26.964844 41.484375 26.8125 41.0625 26.679688 40.632812 C 26.371094 39.648438 26.191406 38.644531 26.238281 37.605469 C 26.292969 36.539062 26.480469 35.488281 26.734375 34.453125 C 26.972656 33.492188 27.234375 32.535156 27.480469 31.574219 C 27.558594 31.261719 27.617188 30.945312 27.683594 30.636719 C 28.007812 30.585938 29.113281 30.605469 29.3125 30.664062 C 29.359375 31.394531 29.40625 32.132812 29.453125 32.875 C 29.503906 33.6875 29.570312 34.5 29.753906 35.300781 C 30.011719 36.441406 30.417969 37.523438 31.121094 38.464844 C 31.542969 39.03125 32.035156 39.550781 32.492188 40.085938 C 32.550781 40.15625 32.609375 40.21875 32.664062 40.28125 C 32.4375 40.539062 32.210938 40.761719 32.09375 41.066406 C 32.039062 41.207031 32.042969 41.324219 32.132812 41.460938 C 32.628906 42.1875 33.164062 42.875 33.78125 43.5 C 34.425781 44.15625 35.195312 44.066406 35.78125 43.589844 C 36.390625 43.089844 36.363281 42.359375 35.96875 41.875 C 35.621094 41.449219 35.242188 41.046875 34.871094 40.644531 C 34.617188 40.367188 34.347656 40.109375 34.09375 39.832031 C 33.992188 39.726562 33.878906 39.699219 33.753906 39.738281 C 33.503906 39.8125 33.253906 39.902344 32.988281 39.992188 C 32.777344 39.738281 32.539062 39.46875 32.316406 39.1875 C 31.960938 38.746094 31.585938 38.320312 31.273438 37.851562 C 30.433594 36.59375 30.039062 35.183594 29.898438 33.695312 C 29.84375 33.089844 29.808594 32.480469 29.761719 31.875 C 29.730469 31.46875 29.695312 31.0625 29.65625 30.613281 C 29.757812 30.613281 29.839844 30.613281 29.921875 30.613281 C 30.394531 30.613281 30.871094 30.621094 31.34375 30.605469 C 31.542969 30.601562 31.652344 30.664062 31.734375 30.835938 C 32.085938 31.582031 32.457031 32.320312 32.808594 33.066406 C 33.128906 33.742188 33.476562 34.40625 33.914062 35.019531 C 34.65625 36.066406 35.585938 36.917969 36.621094 37.664062 C 37.652344 38.402344 38.753906 39.027344 39.894531 39.578125 C 39.949219 39.601562 40 39.640625 40.085938 39.695312 C 39.894531 39.738281 39.742188 39.757812 39.609375 39.8125 C 39.457031 39.871094 39.28125 39.929688 39.179688 40.046875 C 38.746094 40.519531 38.558594 41.085938 38.640625 41.726562 C 38.6875 42.105469 38.902344 42.417969 39.097656 42.742188 C 39.273438 43.023438 39.515625 43.132812 39.832031 43.109375 C 39.875 43.109375 39.917969 43.109375 39.957031 43.109375 C 40.464844 43.082031 40.972656 43.070312 41.480469 43.023438 C 42.058594 42.972656 42.640625 42.917969 43.214844 42.820312 C 43.863281 42.707031 44.277344 42.273438 44.429688 41.664062 C 44.585938 41.03125 44.46875 40.414062 44.0625 39.886719 C 43.871094 39.636719 43.625 39.441406 43.292969 39.421875 C 43.011719 39.402344 42.730469 39.378906 42.449219 39.398438 C 42.027344 39.421875 41.601562 39.464844 41.183594 39.53125 C 40.953125 39.566406 40.753906 39.53125 40.5625 39.417969 C 40.503906 39.382812 40.441406 39.359375 40.386719 39.324219 C 39.582031 38.851562 38.769531 38.390625 37.976562 37.902344 C 37.480469 37.59375 37 37.257812 36.535156 36.90625 C 35.21875 35.90625 34.195312 34.664062 33.472656 33.171875 C 33.085938 32.371094 32.675781 31.578125 32.277344 30.78125 C 32.253906 30.734375 32.234375 30.683594 32.214844 30.636719 C 34.664062 30.636719 37.09375 30.636719 39.535156 30.636719 C 39.539062 30.707031 39.546875 30.753906 39.546875 30.804688 C 39.539062 31.128906 39.507812 31.453125 39.523438 31.777344 C 39.558594 32.519531 39.597656 33.257812 39.675781 33.996094 C 39.722656 34.492188 39.824219 34.984375 40.011719 35.453125 C 40.171875 35.863281 40.464844 36.148438 40.882812 36.289062 C 41.113281 36.363281 41.347656 36.417969 41.585938 36.46875 C 42.441406 36.644531 43.308594 36.640625 44.175781 36.617188 C 44.835938 36.597656 45.480469 36.484375 46.101562 36.234375 C 46.835938 35.9375 47.257812 35.398438 47.414062 34.628906 C 47.605469 33.664062 47.691406 32.683594 47.75 31.703125 C 47.765625 31.390625 47.78125 31.074219 47.796875 30.738281 C 47.910156 30.730469 48.007812 30.714844 48.105469 30.71875 C 48.566406 30.746094 48.890625 30.519531 49.097656 30.132812 C 49.332031 29.699219 49.429688 29.222656 49.335938 28.730469 " fill-opacity="1" fill-rule="nonzero"/></g><path fill="#996535" d="M 33.117188 24.101562 C 32.957031 24.128906 32.792969 24.179688 32.601562 24.085938 C 32.601562 23.847656 32.59375 23.601562 32.601562 23.355469 C 32.613281 23.097656 32.632812 22.839844 32.660156 22.582031 C 32.703125 22.089844 32.714844 21.601562 32.625 21.109375 C 33.320312 20.777344 33.988281 20.421875 34.71875 20.214844 C 34.960938 20.148438 35.195312 20.070312 35.433594 19.996094 C 35.640625 19.929688 35.691406 19.855469 35.644531 19.644531 C 35.605469 19.464844 35.546875 19.289062 35.5 19.113281 C 35.488281 19.078125 35.484375 19.039062 35.476562 18.988281 C 36.207031 19.082031 36.902344 18.941406 37.589844 18.789062 C 38.296875 18.632812 38.996094 18.449219 39.699219 18.277344 C 39.84375 18.242188 39.984375 18.195312 40.148438 18.1875 C 40.074219 18.273438 40.003906 18.367188 39.929688 18.449219 C 39.5 18.925781 39.058594 19.390625 38.644531 19.878906 C 38.429688 20.132812 38.261719 20.421875 38.078125 20.699219 C 38.03125 20.765625 38.003906 20.847656 37.980469 20.929688 C 37.90625 21.179688 37.980469 21.375 38.199219 21.507812 C 38.320312 21.578125 38.449219 21.640625 38.578125 21.699219 C 39.015625 21.90625 39.453125 22.109375 39.890625 22.3125 C 39.957031 22.34375 40.019531 22.382812 40.082031 22.417969 C 40.082031 22.4375 40.082031 22.453125 40.082031 22.472656 C 39.5 22.652344 38.925781 22.835938 38.34375 23.011719 C 37.226562 23.34375 36.085938 23.582031 34.9375 23.789062 C 34.332031 23.894531 33.726562 24.003906 33.117188 24.101562 Z M 31.222656 20.226562 C 30.28125 20.40625 29.328125 20.414062 28.382812 20.28125 C 27.378906 20.136719 26.378906 19.953125 25.378906 19.78125 C 24.1875 19.578125 22.988281 19.40625 21.777344 19.425781 C 20.59375 19.445312 19.414062 19.527344 18.257812 19.808594 C 17.804688 19.917969 17.367188 20.078125 16.898438 20.222656 C 16.941406 19.53125 17.011719 18.863281 17.164062 18.203125 C 17.394531 17.195312 17.757812 16.226562 18.066406 15.242188 C 18.164062 14.917969 18.335938 14.769531 18.648438 14.65625 C 19.867188 14.210938 21.132812 13.980469 22.414062 13.804688 C 23.488281 13.660156 24.566406 13.554688 25.652344 13.601562 C 26.546875 13.640625 27.425781 13.796875 28.28125 14.042969 C 29.703125 14.449219 31.144531 14.585938 32.609375 14.449219 C 33.132812 14.398438 33.648438 14.304688 34.167969 14.230469 C 34.222656 14.222656 34.277344 14.21875 34.34375 14.210938 C 34.492188 16.019531 34.746094 17.792969 35.25 19.546875 C 35.175781 19.554688 35.113281 19.566406 35.050781 19.566406 C 34.539062 19.550781 34.042969 19.628906 33.542969 19.742188 C 32.773438 19.914062 31.996094 20.078125 31.222656 20.226562 Z M 18.058594 23.476562 C 16.691406 23.863281 13.667969 23.945312 12.917969 23.597656 C 12.988281 23.53125 13.046875 23.46875 13.109375 23.40625 C 13.414062 23.089844 13.730469 22.78125 14.019531 22.449219 C 14.144531 22.308594 14.230469 22.128906 14.296875 21.953125 C 14.394531 21.703125 14.324219 21.484375 14.101562 21.339844 C 13.925781 21.226562 13.734375 21.140625 13.542969 21.0625 C 13 20.847656 12.429688 20.730469 11.847656 20.636719 C 13.492188 20.175781 15.085938 19.578125 16.644531 18.800781 C 16.617188 19.027344 16.582031 19.230469 16.570312 19.433594 C 16.550781 19.769531 16.527344 20.109375 16.539062 20.449219 C 16.550781 20.683594 16.585938 20.671875 16.820312 20.6875 C 17.28125 20.726562 17.753906 20.660156 18.238281 20.789062 C 17.976562 21.675781 18.007812 22.582031 18.058594 23.476562 Z M 40.203125 22.824219 C 40.351562 22.773438 40.496094 22.707031 40.632812 22.625 C 40.785156 22.539062 40.804688 22.382812 40.683594 22.273438 C 40.609375 22.207031 40.519531 22.15625 40.429688 22.117188 C 39.832031 21.84375 39.230469 21.574219 38.628906 21.308594 C 38.257812 21.144531 38.246094 21.101562 38.433594 20.734375 C 38.621094 20.367188 38.894531 20.066406 39.167969 19.761719 C 39.527344 19.355469 39.878906 18.945312 40.226562 18.53125 C 40.316406 18.421875 40.390625 18.296875 40.453125 18.171875 C 40.566406 17.960938 40.503906 17.839844 40.261719 17.816406 C 40.140625 17.804688 40.011719 17.808594 39.890625 17.835938 C 39.445312 17.941406 39.007812 18.070312 38.558594 18.171875 C 37.757812 18.355469 36.953125 18.535156 36.144531 18.691406 C 35.914062 18.738281 35.667969 18.699219 35.410156 18.699219 C 35.386719 18.621094 35.363281 18.550781 35.347656 18.480469 C 35.148438 17.46875 34.964844 16.453125 34.890625 15.421875 C 34.863281 15 34.785156 14.578125 34.707031 14.160156 C 34.65625 13.898438 34.570312 13.84375 34.304688 13.855469 C 33.90625 13.871094 33.503906 13.878906 33.109375 13.921875 C 31.464844 14.105469 29.851562 14 28.253906 13.546875 C 27.332031 13.28125 26.386719 13.125 25.421875 13.105469 C 24.738281 13.089844 24.058594 13.128906 23.378906 13.203125 C 22.367188 13.3125 21.363281 13.464844 20.378906 13.738281 C 19.667969 13.9375 18.960938 14.15625 18.25 14.367188 C 18.0625 14.421875 17.941406 14.546875 17.875 14.734375 C 17.457031 15.902344 17.011719 17.0625 16.753906 18.28125 C 16.730469 18.394531 16.675781 18.449219 16.570312 18.484375 C 16.367188 18.554688 16.164062 18.628906 15.960938 18.707031 C 14.808594 19.167969 13.660156 19.625 12.476562 20.003906 C 12.113281 20.121094 11.757812 20.269531 11.402344 20.410156 C 11.3125 20.445312 11.21875 20.496094 11.144531 20.558594 C 11.023438 20.660156 11.058594 20.824219 11.207031 20.875 C 11.277344 20.898438 11.355469 20.898438 11.429688 20.910156 C 11.574219 20.933594 11.726562 20.949219 11.867188 20.988281 C 12.285156 21.109375 12.699219 21.238281 13.109375 21.371094 C 13.347656 21.449219 13.578125 21.542969 13.808594 21.640625 C 13.972656 21.710938 14 21.773438 13.917969 21.933594 C 13.835938 22.09375 13.738281 22.253906 13.617188 22.386719 C 13.316406 22.710938 12.996094 23.015625 12.6875 23.332031 C 12.617188 23.402344 12.546875 23.476562 12.496094 23.5625 C 12.414062 23.695312 12.441406 23.800781 12.574219 23.878906 C 12.675781 23.9375 12.785156 23.976562 12.898438 24.007812 C 13.367188 24.128906 13.839844 24.195312 14.328125 24.226562 C 15.675781 24.3125 17.003906 24.167969 18.328125 23.929688 C 18.566406 23.886719 18.5625 23.878906 18.554688 23.636719 C 18.546875 23.3125 18.519531 22.988281 18.539062 22.664062 C 18.589844 21.796875 18.761719 20.949219 19.097656 20.117188 C 19.921875 19.96875 20.753906 19.914062 21.589844 19.921875 C 22.851562 19.929688 24.097656 20.101562 25.335938 20.335938 C 26.414062 20.539062 27.488281 20.777344 28.585938 20.882812 C 29.441406 20.96875 30.296875 20.964844 31.152344 20.828125 C 31.496094 20.777344 31.835938 20.707031 32.199219 20.636719 C 32.21875 20.757812 32.234375 20.871094 32.246094 20.984375 C 32.332031 21.828125 32.222656 22.664062 32.179688 23.503906 C 32.167969 23.726562 32.191406 23.953125 32.242188 24.171875 C 32.296875 24.417969 32.445312 24.511719 32.695312 24.511719 C 32.847656 24.511719 32.996094 24.5 33.144531 24.476562 C 33.660156 24.394531 34.175781 24.292969 34.695312 24.21875 C 35.890625 24.042969 37.078125 23.832031 38.234375 23.464844 C 38.890625 23.253906 39.546875 23.042969 40.203125 22.824219 " fill-opacity="1" fill-rule="nonzero"/><path fill="#996535" d="M 8.378906 33.140625 C 8.355469 33.082031 8.277344 33.023438 8.21875 33.015625 C 8.179688 33.011719 8.101562 33.082031 8.082031 33.132812 C 7.933594 33.5625 7.976562 33.984375 8.171875 34.390625 C 8.199219 34.441406 8.289062 34.492188 8.347656 34.496094 C 8.445312 34.496094 8.484375 34.410156 8.488281 34.320312 C 8.492188 34.1875 8.488281 34.054688 8.488281 33.921875 C 8.511719 33.652344 8.488281 33.386719 8.378906 33.140625 " fill-opacity="1" fill-rule="nonzero"/><path fill="#996535" d="M 10.398438 32.90625 C 10.335938 32.925781 10.261719 32.984375 10.242188 33.039062 C 10.1875 33.210938 10.15625 33.390625 10.121094 33.546875 C 10.144531 33.714844 10.164062 33.855469 10.191406 33.992188 C 10.214844 34.089844 10.285156 34.152344 10.386719 34.160156 C 10.488281 34.167969 10.5625 34.109375 10.59375 34.015625 C 10.699219 33.6875 10.699219 33.363281 10.582031 33.039062 C 10.550781 32.953125 10.492188 32.882812 10.398438 32.90625 " fill-opacity="1" fill-rule="nonzero"/><path fill="#996535" d="M 6.101562 32.828125 C 6.058594 32.828125 5.984375 32.898438 5.972656 32.949219 C 5.871094 33.332031 5.871094 33.71875 5.984375 34.101562 C 6.011719 34.199219 6.070312 34.269531 6.179688 34.253906 C 6.289062 34.242188 6.324219 34.152344 6.332031 34.054688 C 6.339844 33.949219 6.34375 33.839844 6.347656 33.730469 C 6.359375 33.730469 6.371094 33.726562 6.378906 33.726562 C 6.332031 33.464844 6.292969 33.207031 6.234375 32.949219 C 6.222656 32.898438 6.148438 32.832031 6.101562 32.828125 " fill-opacity="1" fill-rule="nonzero"/><path fill="#996535" d="M 44.105469 33.085938 C 44.046875 33.003906 43.953125 33 43.894531 33.078125 C 43.851562 33.128906 43.820312 33.191406 43.808594 33.253906 C 43.761719 33.492188 43.726562 33.726562 43.6875 33.964844 C 43.695312 33.964844 43.703125 33.96875 43.710938 33.96875 C 43.722656 34.109375 43.726562 34.253906 43.75 34.390625 C 43.757812 34.4375 43.8125 34.503906 43.851562 34.511719 C 43.90625 34.519531 43.976562 34.488281 44.023438 34.453125 C 44.0625 34.425781 44.082031 34.371094 44.101562 34.324219 C 44.230469 33.988281 44.25 33.644531 44.1875 33.292969 C 44.175781 33.222656 44.144531 33.148438 44.105469 33.085938 " fill-opacity="1" fill-rule="nonzero"/><path fill="#996535" d="M 41.808594 32.925781 C 41.742188 32.949219 41.660156 33.015625 41.640625 33.078125 C 41.585938 33.234375 41.566406 33.402344 41.535156 33.554688 C 41.5625 33.714844 41.582031 33.863281 41.617188 34.011719 C 41.640625 34.117188 41.714844 34.183594 41.832031 34.183594 C 41.9375 34.179688 42.007812 34.117188 42.03125 34.019531 C 42.113281 33.699219 42.109375 33.378906 41.988281 33.066406 C 41.957031 32.984375 41.902344 32.898438 41.808594 32.925781 " fill-opacity="1" fill-rule="nonzero"/><path fill="#996535" d="M 46.121094 32.847656 C 46.070312 32.894531 46.015625 32.941406 45.972656 32.996094 C 45.953125 33.019531 45.957031 33.058594 45.949219 33.089844 C 45.871094 33.414062 45.847656 33.742188 45.898438 34.074219 C 45.910156 34.171875 45.925781 34.261719 46.042969 34.273438 C 46.164062 34.289062 46.226562 34.210938 46.246094 34.105469 C 46.28125 33.917969 46.304688 33.730469 46.332031 33.546875 C 46.308594 33.355469 46.292969 33.175781 46.253906 33 C 46.242188 32.941406 46.167969 32.898438 46.121094 32.847656 " fill-opacity="1" fill-rule="nonzero"/><path fill="#996535" d="M 8.433594 22.027344 C 9.273438 22.027344 9.941406 22.710938 9.941406 23.570312 C 9.9375 24.410156 9.269531 25.074219 8.429688 25.070312 C 7.589844 25.070312 6.902344 24.371094 6.914062 23.53125 C 6.921875 22.703125 7.609375 22.027344 8.433594 22.027344 Z M 8.460938 25.332031 C 9.429688 25.335938 10.230469 24.546875 10.242188 23.578125 C 10.25 22.621094 9.441406 21.8125 8.46875 21.8125 C 7.496094 21.8125 6.699219 22.601562 6.699219 23.570312 C 6.699219 24.550781 7.472656 25.328125 8.460938 25.332031 " fill-opacity="1" fill-rule="nonzero"/><path fill="#996535" d="M 43.507812 22.027344 C 44.351562 22.035156 45.007812 22.71875 45.003906 23.574219 C 45 24.414062 44.328125 25.078125 43.484375 25.070312 C 42.660156 25.066406 41.980469 24.382812 41.976562 23.550781 C 41.972656 22.71875 42.675781 22.019531 43.507812 22.027344 Z M 43.527344 25.332031 C 44.496094 25.335938 45.296875 24.546875 45.304688 23.574219 C 45.316406 22.621094 44.503906 21.8125 43.535156 21.8125 C 42.558594 21.8125 41.765625 22.601562 41.761719 23.570312 C 41.761719 24.554688 42.539062 25.332031 43.527344 25.332031 " fill-opacity="1" fill-rule="nonzero"/><path fill="#996535" d="M 25.824219 44.457031 C 25.648438 44.632812 25.398438 44.625 25.230469 44.441406 C 24.941406 44.128906 24.960938 43.582031 25.269531 43.289062 C 25.511719 43.058594 25.796875 43.117188 25.921875 43.425781 C 25.953125 43.496094 25.976562 43.566406 25.992188 43.636719 C 26.007812 43.71875 26.011719 43.804688 26.019531 43.851562 C 26.023438 44.101562 25.980469 44.300781 25.824219 44.457031 Z M 26.132812 43.175781 C 25.863281 42.816406 25.375 42.8125 25.085938 43.152344 C 24.738281 43.558594 24.710938 44.007812 24.902344 44.480469 C 25.101562 44.96875 25.671875 45.078125 26.050781 44.710938 C 26.273438 44.496094 26.367188 44.230469 26.363281 43.925781 C 26.363281 43.652344 26.296875 43.398438 26.132812 43.175781 " fill-opacity="1" fill-rule="nonzero"/><path fill="#996535" d="M 11.207031 42.792969 C 11.027344 42.984375 10.765625 42.980469 10.59375 42.789062 C 10.308594 42.460938 10.328125 41.925781 10.644531 41.636719 C 10.886719 41.40625 11.167969 41.46875 11.292969 41.78125 C 11.328125 41.867188 11.355469 41.953125 11.375 42.042969 C 11.390625 42.117188 11.386719 42.191406 11.390625 42.226562 C 11.394531 42.464844 11.34375 42.644531 11.207031 42.792969 Z M 11.488281 41.507812 C 11.21875 41.167969 10.730469 41.167969 10.457031 41.5 C 10.121094 41.894531 10.074219 42.332031 10.257812 42.804688 C 10.46875 43.328125 11.066406 43.4375 11.457031 43.027344 C 11.652344 42.816406 11.730469 42.558594 11.742188 42.25 C 11.726562 41.996094 11.664062 41.730469 11.488281 41.507812 " fill-opacity="1" fill-rule="nonzero"/><path fill="#996535" d="M 42.574219 40.660156 C 42.621094 40.351562 42.867188 40.234375 43.148438 40.375 C 43.4375 40.519531 43.566406 40.742188 43.578125 41.101562 C 43.5625 41.210938 43.5625 41.320312 43.527344 41.421875 C 43.433594 41.714844 43.140625 41.8125 42.894531 41.625 C 42.804688 41.558594 42.722656 41.460938 42.671875 41.363281 C 42.558594 41.144531 42.53125 40.902344 42.574219 40.660156 Z M 42.308594 41.398438 C 42.40625 41.65625 42.566406 41.859375 42.820312 41.980469 C 43.25 42.1875 43.699219 41.976562 43.8125 41.515625 C 43.835938 41.429688 43.839844 41.335938 43.851562 41.246094 C 43.867188 40.75 43.628906 40.402344 43.226562 40.15625 C 43.132812 40.097656 43.007812 40.054688 42.898438 40.0625 C 42.578125 40.085938 42.328125 40.316406 42.261719 40.636719 C 42.203125 40.894531 42.214844 41.148438 42.308594 41.398438 " fill-opacity="1" fill-rule="nonzero"/><path fill="#996535" d="M 18.222656 43.296875 C 17.769531 43.375 17.398438 43.058594 17.402344 42.550781 C 17.449219 42.292969 17.460938 41.984375 17.75 41.777344 C 18.160156 41.492188 18.707031 41.667969 18.859375 42.144531 C 19.027344 42.667969 18.730469 43.207031 18.222656 43.296875 Z M 18.070312 41.429688 C 17.953125 41.441406 17.828125 41.488281 17.730469 41.550781 C 17.425781 41.753906 17.292969 42.058594 17.226562 42.40625 C 17.15625 42.789062 17.292969 43.210938 17.597656 43.398438 C 17.929688 43.605469 18.28125 43.582031 18.617188 43.394531 C 18.992188 43.183594 19.097656 42.824219 19.109375 42.332031 C 19.148438 41.75 18.613281 41.375 18.070312 41.429688 " fill-opacity="1" fill-rule="nonzero"/><path fill="#996535" d="M 35.253906 41.964844 C 35.441406 42.0625 35.507812 42.238281 35.507812 42.445312 C 35.503906 42.742188 35.128906 43.15625 34.828125 43.171875 C 34.746094 43.179688 34.640625 43.148438 34.578125 43.097656 C 34.191406 42.769531 34.238281 42.253906 34.636719 41.972656 C 34.816406 41.847656 35.050781 41.859375 35.253906 41.964844 Z M 34.113281 42.59375 C 34.164062 42.757812 34.195312 42.933594 34.273438 43.082031 C 34.386719 43.304688 34.582031 43.433594 34.839844 43.410156 C 35.199219 43.378906 35.589844 43.03125 35.683594 42.683594 C 35.789062 42.273438 35.574219 41.851562 35.207031 41.777344 C 35.082031 41.753906 34.941406 41.777344 34.8125 41.796875 C 34.378906 41.871094 34.144531 42.148438 34.113281 42.59375 " fill-opacity="1" fill-rule="nonzero"/><path fill="#996535" d="M 22.222656 16.425781 C 22.09375 16.367188 21.976562 16.414062 21.878906 16.507812 C 21.722656 16.664062 21.566406 16.828125 21.414062 16.992188 C 21.347656 17.066406 21.289062 17.152344 21.199219 17.265625 C 21.15625 17.113281 21.128906 17.011719 21.09375 16.910156 C 21.046875 16.769531 21.011719 16.621094 20.945312 16.488281 C 20.832031 16.273438 20.59375 16.277344 20.472656 16.488281 C 20.441406 16.546875 20.417969 16.609375 20.398438 16.671875 C 20.179688 17.273438 19.960938 17.875 19.742188 18.476562 C 19.722656 18.53125 19.699219 18.585938 19.695312 18.644531 C 19.695312 18.785156 19.824219 18.851562 19.9375 18.773438 C 19.972656 18.75 19.996094 18.714844 20.027344 18.6875 C 20.269531 18.425781 20.429688 18.117188 20.558594 17.789062 C 20.601562 17.675781 20.652344 17.566406 20.710938 17.425781 C 20.769531 17.585938 20.800781 17.707031 20.855469 17.816406 C 20.960938 18.03125 21.164062 18.050781 21.316406 17.867188 C 21.371094 17.804688 21.410156 17.730469 21.457031 17.664062 C 21.578125 17.5 21.703125 17.335938 21.828125 17.171875 C 21.839844 17.183594 21.855469 17.195312 21.867188 17.207031 C 21.832031 17.519531 21.78125 17.832031 21.761719 18.144531 C 21.753906 18.296875 21.792969 18.457031 21.828125 18.609375 C 21.851562 18.699219 21.929688 18.761719 22.035156 18.757812 C 22.144531 18.757812 22.207031 18.6875 22.230469 18.59375 C 22.261719 18.484375 22.285156 18.367188 22.292969 18.253906 C 22.320312 17.894531 22.335938 17.539062 22.359375 17.179688 C 22.367188 17.039062 22.382812 16.898438 22.390625 16.757812 C 22.398438 16.617188 22.367188 16.488281 22.222656 16.425781 " fill-opacity="1" fill-rule="nonzero"/><path fill="#996535" d="M 32.996094 17.949219 C 32.929688 18.464844 32.648438 18.714844 32.082031 18.738281 C 32.09375 18.242188 32.109375 17.75 32.125 17.269531 C 32.65625 17.113281 33.058594 17.449219 32.996094 17.949219 Z M 32.265625 16.8125 C 32.15625 16.824219 32.046875 16.824219 31.898438 16.832031 C 31.875 16.886719 31.820312 16.972656 31.8125 17.066406 C 31.757812 17.675781 31.710938 18.289062 31.660156 18.902344 C 31.65625 18.949219 31.65625 19.003906 31.667969 19.050781 C 31.699219 19.195312 31.84375 19.261719 31.945312 19.160156 C 32.039062 19.066406 32.117188 19.09375 32.214844 19.105469 C 32.304688 19.113281 32.398438 19.117188 32.488281 19.101562 C 32.933594 19.019531 33.242188 18.773438 33.375 18.328125 C 33.511719 17.855469 33.414062 17.441406 33.058594 17.097656 C 32.839844 16.886719 32.578125 16.78125 32.265625 16.8125 " fill-opacity="1" fill-rule="nonzero"/><path fill="#996535" d="M 27.328125 17.324219 C 27.207031 17.40625 27.070312 17.46875 26.910156 17.453125 C 26.910156 17.238281 26.910156 17.035156 26.910156 16.789062 C 27.070312 16.835938 27.195312 16.855469 27.300781 16.910156 C 27.492188 17.007812 27.503906 17.207031 27.328125 17.324219 Z M 27.625 16.707031 C 27.40625 16.527344 27.160156 16.464844 26.878906 16.535156 C 26.625 16.597656 26.621094 16.589844 26.589844 16.839844 C 26.519531 17.367188 26.441406 17.890625 26.382812 18.421875 C 26.363281 18.574219 26.386719 18.734375 26.417969 18.886719 C 26.429688 18.941406 26.515625 19 26.574219 19.015625 C 26.609375 19.019531 26.6875 18.941406 26.699219 18.890625 C 26.742188 18.730469 26.765625 18.566406 26.796875 18.402344 C 26.808594 18.339844 26.824219 18.273438 26.847656 18.160156 C 27.019531 18.414062 27.160156 18.621094 27.300781 18.824219 C 27.351562 18.898438 27.40625 18.976562 27.472656 19.039062 C 27.542969 19.105469 27.628906 19.128906 27.722656 19.066406 C 27.8125 19.007812 27.835938 18.917969 27.804688 18.828125 C 27.769531 18.734375 27.71875 18.644531 27.660156 18.566406 C 27.464844 18.320312 27.265625 18.078125 27.058594 17.820312 C 27.21875 17.761719 27.375 17.722656 27.515625 17.652344 C 27.910156 17.449219 27.964844 16.992188 27.625 16.707031 " fill-opacity="1" fill-rule="nonzero"/><path fill="#996535" d="M 25.542969 17.207031 C 25.421875 17.28125 25.277344 17.316406 25.097656 17.386719 C 25.117188 17.167969 25.136719 17 25.15625 16.785156 C 25.300781 16.8125 25.421875 16.816406 25.519531 16.863281 C 25.691406 16.941406 25.703125 17.113281 25.542969 17.207031 Z M 25.90625 17.304688 C 26.160156 16.964844 25.988281 16.511719 25.566406 16.453125 C 25.429688 16.429688 25.285156 16.484375 25.148438 16.472656 C 24.945312 16.453125 24.878906 16.570312 24.84375 16.726562 C 24.726562 17.222656 24.609375 17.714844 24.507812 18.210938 C 24.476562 18.355469 24.492188 18.507812 24.492188 18.660156 C 24.492188 18.757812 24.527344 18.84375 24.640625 18.855469 C 24.75 18.871094 24.804688 18.792969 24.835938 18.703125 C 24.855469 18.65625 24.871094 18.609375 24.882812 18.5625 C 24.925781 18.371094 24.96875 18.175781 25.019531 17.949219 C 25.074219 18.027344 25.109375 18.078125 25.148438 18.128906 C 25.316406 18.375 25.488281 18.621094 25.664062 18.863281 C 25.699219 18.917969 25.75 18.972656 25.808594 18.996094 C 25.863281 19.015625 25.941406 19.007812 25.988281 18.980469 C 26.019531 18.960938 26.023438 18.875 26.011719 18.828125 C 25.988281 18.75 25.945312 18.675781 25.898438 18.605469 C 25.703125 18.308594 25.5 18.015625 25.289062 17.699219 C 25.53125 17.601562 25.753906 17.507812 25.90625 17.304688 " fill-opacity="1" fill-rule="nonzero"/><path fill="#996535" d="M 23.644531 17.398438 C 23.558594 17.398438 23.488281 17.398438 23.398438 17.398438 C 23.425781 17.222656 23.503906 17.097656 23.644531 16.980469 C 23.644531 17.136719 23.644531 17.265625 23.644531 17.398438 Z M 24.035156 16.886719 C 24.023438 16.773438 23.976562 16.660156 23.921875 16.558594 C 23.8125 16.347656 23.621094 16.320312 23.453125 16.488281 C 23.382812 16.554688 23.3125 16.632812 23.265625 16.71875 C 22.949219 17.269531 22.707031 17.851562 22.574219 18.472656 C 22.558594 18.542969 22.558594 18.625 22.578125 18.691406 C 22.589844 18.738281 22.648438 18.804688 22.6875 18.804688 C 22.742188 18.808594 22.824219 18.773438 22.847656 18.730469 C 22.898438 18.648438 22.917969 18.546875 22.953125 18.453125 C 23.035156 18.203125 23.121094 17.953125 23.207031 17.699219 C 23.371094 17.71875 23.503906 17.738281 23.652344 17.757812 C 23.652344 17.992188 23.648438 18.199219 23.652344 18.40625 C 23.65625 18.480469 23.660156 18.554688 23.679688 18.625 C 23.703125 18.722656 23.777344 18.785156 23.875 18.792969 C 23.988281 18.796875 24.066406 18.730469 24.097656 18.625 C 24.117188 18.546875 24.136719 18.460938 24.132812 18.378906 C 24.105469 17.882812 24.074219 17.382812 24.035156 16.886719 " fill-opacity="1" fill-rule="nonzero"/><path fill="#996535" d="M 31.027344 16.8125 C 30.761719 16.792969 30.496094 16.769531 30.234375 16.765625 C 30.109375 16.761719 30.011719 16.828125 29.984375 16.964844 C 29.957031 17.105469 29.917969 17.242188 29.898438 17.378906 C 29.863281 17.667969 29.839844 17.957031 29.808594 18.246094 C 29.785156 18.492188 29.75 18.742188 29.738281 18.988281 C 29.730469 19.210938 29.828125 19.304688 30.054688 19.316406 C 30.167969 19.320312 30.285156 19.34375 30.398438 19.335938 C 30.546875 19.328125 30.695312 19.304688 30.839844 19.269531 C 30.945312 19.242188 31.007812 19.15625 30.992188 19.042969 C 30.972656 18.921875 30.878906 18.882812 30.769531 18.878906 C 30.730469 18.878906 30.6875 18.886719 30.648438 18.886719 C 30.5 18.886719 30.355469 18.878906 30.203125 18.875 C 30.222656 18.601562 30.242188 18.367188 30.257812 18.113281 C 30.453125 18.113281 30.636719 18.113281 30.816406 18.113281 C 30.933594 18.113281 31.035156 18.089844 31.0625 17.953125 C 31.082031 17.84375 31 17.753906 30.855469 17.71875 C 30.804688 17.707031 30.753906 17.707031 30.707031 17.699219 C 30.5625 17.675781 30.417969 17.652344 30.269531 17.625 C 30.28125 17.449219 30.292969 17.292969 30.304688 17.128906 C 30.359375 17.125 30.410156 17.117188 30.457031 17.117188 C 30.640625 17.113281 30.824219 17.113281 31.003906 17.109375 C 31.101562 17.105469 31.167969 17.0625 31.167969 16.957031 C 31.167969 16.871094 31.113281 16.820312 31.027344 16.8125 " fill-opacity="1" fill-rule="nonzero"/><path fill="#996535" d="M 24.839844 14.164062 C 24.84375 14.160156 24.84375 14.160156 24.847656 14.15625 C 24.84375 14.15625 24.84375 14.15625 24.839844 14.15625 C 24.839844 14.160156 24.839844 14.160156 24.839844 14.164062 " fill-opacity="1" fill-rule="nonzero"/><path fill="#996535" d="M 24.796875 15.222656 C 24.792969 15.328125 24.820312 15.4375 24.855469 15.539062 C 24.953125 15.824219 25.21875 15.90625 25.445312 15.710938 C 25.5625 15.601562 25.679688 15.464844 25.734375 15.316406 C 25.832031 15.0625 25.882812 14.789062 25.949219 14.523438 C 25.96875 14.429688 25.988281 14.324219 25.976562 14.230469 C 25.96875 14.167969 25.921875 14.085938 25.867188 14.058594 C 25.792969 14.015625 25.722656 14.078125 25.695312 14.152344 C 25.652344 14.261719 25.625 14.375 25.59375 14.484375 C 25.527344 14.699219 25.472656 14.917969 25.402344 15.128906 C 25.375 15.207031 25.355469 15.332031 25.234375 15.3125 C 25.105469 15.289062 25.121094 15.160156 25.117188 15.066406 C 25.105469 14.929688 25.117188 14.785156 25.125 14.644531 C 25.128906 14.519531 25.148438 14.394531 25.152344 14.273438 C 25.152344 14.171875 25.199219 14.039062 25.054688 13.996094 C 24.925781 13.957031 24.914062 14.09375 24.847656 14.15625 C 24.847656 14.199219 24.847656 14.238281 24.84375 14.277344 C 24.828125 14.59375 24.804688 14.90625 24.796875 15.222656 " fill-opacity="1" fill-rule="nonzero"/><path fill="#996535" d="M 25.902344 15.421875 C 25.890625 15.488281 25.902344 15.574219 25.941406 15.628906 C 26.058594 15.792969 26.214844 15.894531 26.429688 15.875 C 26.679688 15.855469 26.894531 15.761719 27.074219 15.585938 C 27.277344 15.378906 27.28125 15.074219 27.066406 14.875 C 26.972656 14.785156 26.847656 14.726562 26.734375 14.65625 C 26.664062 14.613281 26.585938 14.574219 26.46875 14.515625 C 26.574219 14.433594 26.644531 14.382812 26.722656 14.320312 C 26.804688 14.414062 26.859375 14.5 26.9375 14.558594 C 26.980469 14.59375 27.066406 14.613281 27.109375 14.59375 C 27.152344 14.570312 27.195312 14.480469 27.183594 14.429688 C 27.164062 14.34375 27.121094 14.253906 27.058594 14.195312 C 26.824219 13.96875 26.554688 13.988281 26.339844 14.234375 C 26.117188 14.488281 26.15625 14.722656 26.457031 14.882812 C 26.542969 14.929688 26.640625 14.960938 26.722656 15.019531 C 26.878906 15.132812 26.878906 15.304688 26.71875 15.40625 C 26.613281 15.472656 26.488281 15.53125 26.375 15.535156 C 26.300781 15.535156 26.222656 15.429688 26.148438 15.371094 C 26.132812 15.359375 26.121094 15.347656 26.109375 15.339844 C 26.019531 15.277344 25.914062 15.3125 25.902344 15.421875 " fill-opacity="1" fill-rule="nonzero"/><path fill="#996535" d="M 29.070312 18.558594 C 28.976562 18.625 28.882812 18.691406 28.75 18.785156 C 28.726562 18.613281 28.691406 18.484375 28.695312 18.359375 C 28.714844 18.078125 28.753906 17.796875 28.78125 17.519531 C 28.792969 17.394531 28.808594 17.269531 28.796875 17.148438 C 28.792969 17.097656 28.730469 17.03125 28.679688 17.011719 C 28.605469 16.980469 28.527344 17.019531 28.496094 17.097656 C 28.460938 17.191406 28.417969 17.285156 28.40625 17.378906 C 28.351562 17.757812 28.304688 18.136719 28.261719 18.515625 C 28.25 18.613281 28.253906 18.714844 28.273438 18.8125 C 28.339844 19.167969 28.605469 19.296875 28.917969 19.125 C 29.054688 19.050781 29.175781 18.949219 29.296875 18.84375 C 29.421875 18.738281 29.441406 18.628906 29.378906 18.542969 C 29.308594 18.457031 29.210938 18.460938 29.070312 18.558594 " fill-opacity="1" fill-rule="nonzero"/><path fill="#996535" d="M 24.648438 13.949219 C 24.277344 13.976562 23.90625 14.019531 23.535156 14.0625 C 23.496094 14.066406 23.453125 14.085938 23.421875 14.109375 C 23.355469 14.160156 23.367188 14.261719 23.449219 14.289062 C 23.5 14.308594 23.5625 14.308594 23.617188 14.308594 C 23.753906 14.3125 23.890625 14.308594 24.058594 14.308594 C 23.992188 14.589844 23.949219 14.835938 23.871094 15.070312 C 23.773438 15.355469 23.660156 15.390625 23.382812 15.265625 C 23.367188 15.261719 23.351562 15.246094 23.339844 15.25 C 23.292969 15.253906 23.226562 15.246094 23.203125 15.273438 C 23.171875 15.3125 23.148438 15.390625 23.167969 15.429688 C 23.226562 15.558594 23.3125 15.667969 23.460938 15.714844 C 23.707031 15.789062 23.988281 15.691406 24.121094 15.441406 C 24.207031 15.277344 24.257812 15.085938 24.296875 14.902344 C 24.335938 14.703125 24.34375 14.496094 24.363281 14.308594 C 24.535156 14.253906 24.6875 14.207031 24.839844 14.15625 C 24.816406 13.972656 24.800781 13.9375 24.648438 13.949219 " fill-opacity="1" fill-rule="nonzero"/><path fill="#996535" d="M 28.300781 15.429688 C 28.316406 15.140625 28.332031 14.851562 28.347656 14.558594 C 28.511719 14.539062 28.648438 14.523438 28.789062 14.511719 C 28.875 14.503906 28.945312 14.464844 28.9375 14.378906 C 28.933594 14.328125 28.863281 14.285156 28.824219 14.238281 C 28.8125 14.226562 28.792969 14.222656 28.777344 14.21875 C 28.40625 14.132812 28.035156 14.144531 27.664062 14.195312 C 27.570312 14.210938 27.5 14.277344 27.519531 14.367188 C 27.535156 14.421875 27.605469 14.484375 27.667969 14.507812 C 27.757812 14.539062 27.863281 14.539062 27.992188 14.558594 C 27.984375 14.625 27.976562 14.671875 27.972656 14.722656 C 27.949219 15.050781 27.921875 15.382812 27.90625 15.714844 C 27.898438 15.855469 27.976562 15.945312 28.078125 15.941406 C 28.199219 15.941406 28.257812 15.859375 28.273438 15.75 C 28.285156 15.644531 28.292969 15.539062 28.300781 15.429688 " fill-opacity="1" fill-rule="nonzero"/><path fill="#996535" d="M 28.417969 16.65625 C 28.417969 16.78125 28.527344 16.898438 28.65625 16.898438 C 28.777344 16.894531 28.894531 16.78125 28.898438 16.660156 C 28.902344 16.53125 28.792969 16.421875 28.664062 16.417969 C 28.539062 16.417969 28.421875 16.53125 28.417969 16.65625 " fill-opacity="1" fill-rule="nonzero"/><path fill="#996535" d="M 17.402344 19.175781 C 17.285156 19.183594 17.1875 19.292969 17.195312 19.410156 C 17.207031 19.535156 17.3125 19.625 17.4375 19.609375 C 17.546875 19.597656 17.636719 19.5 17.632812 19.390625 C 17.632812 19.273438 17.519531 19.167969 17.402344 19.175781 " fill-opacity="1" fill-rule="nonzero"/><path fill="#996535" d="M 34.503906 19.191406 C 34.621094 19.195312 34.730469 19.09375 34.734375 18.976562 C 34.734375 18.859375 34.632812 18.757812 34.511719 18.757812 C 34.398438 18.761719 34.308594 18.84375 34.296875 18.957031 C 34.289062 19.082031 34.382812 19.1875 34.503906 19.191406 " fill-opacity="1" fill-rule="nonzero"/><path fill="#996535" d="M 33.84375 14.996094 C 33.960938 14.996094 34.0625 14.894531 34.058594 14.773438 C 34.058594 14.660156 33.972656 14.570312 33.859375 14.566406 C 33.742188 14.566406 33.640625 14.667969 33.640625 14.789062 C 33.644531 14.898438 33.734375 14.992188 33.84375 14.996094 " fill-opacity="1" fill-rule="nonzero"/><path fill="#996535" d="M 18.496094 15.023438 C 18.410156 15.003906 18.332031 15.101562 18.339844 15.199219 C 18.347656 15.296875 18.402344 15.347656 18.496094 15.351562 C 18.589844 15.355469 18.664062 15.269531 18.65625 15.128906 C 18.617188 15.101562 18.5625 15.039062 18.496094 15.023438 " fill-opacity="1" fill-rule="nonzero"/></svg>