<svg xmlns="http://www.w3.org/2000/svg" xmlns:xlink="http://www.w3.org/1999/xlink" width="70" zoomAndPan="magnify" viewBox="0 0 52.5 52.499999" height="70" preserveAspectRatio="xMidYMid meet" version="1.0"><defs><clipPath id="296e7f1488"><path d="M 7.800781 14 L 21 14 L 21 38 L 7.800781 38 Z M 7.800781 14 " clip-rule="nonzero"/></clipPath><clipPath id="5d6173adbf"><path d="M 9 12.851562 L 43 12.851562 L 43 29 L 9 29 Z M 9 12.851562 " clip-rule="nonzero"/></clipPath><clipPath id="490aaf3b6e"><path d="M 31 14 L 44.203125 14 L 44.203125 38 L 31 38 Z M 31 14 " clip-rule="nonzero"/></clipPath><clipPath id="29811d95e7"><path d="M 9 26 L 43 26 L 43 38.855469 L 9 38.855469 Z M 9 26 " clip-rule="nonzero"/></clipPath></defs><g clip-path="url(#296e7f1488)"><path fill="#e6b4ab" d="M 20.417969 26 L 8.664062 14.566406 C 8.136719 15.273438 7.820312 16.15625 7.820312 17.105469 L 7.820312 34.898438 C 7.820312 35.847656 8.136719 36.726562 8.664062 37.4375 L 20.417969 26 " fill-opacity="1" fill-rule="nonzero"/></g><g clip-path="url(#5d6173adbf)"><path fill="#e6b4ab" d="M 23.910156 27.652344 C 25.082031 28.792969 26.921875 28.792969 28.09375 27.652344 L 42.449219 13.683594 C 41.746094 13.164062 40.875 12.855469 39.929688 12.855469 L 12.074219 12.855469 C 11.132812 12.855469 10.261719 13.164062 9.554688 13.683594 L 23.910156 27.652344 " fill-opacity="1" fill-rule="nonzero"/></g><g clip-path="url(#490aaf3b6e)"><path fill="#e6b4ab" d="M 43.339844 14.566406 L 31.585938 26 L 43.339844 37.4375 C 43.867188 36.726562 44.183594 35.847656 44.183594 34.898438 L 44.183594 17.105469 C 44.183594 16.15625 43.867188 15.273438 43.339844 14.566406 " fill-opacity="1" fill-rule="nonzero"/></g><g clip-path="url(#29811d95e7)"><path fill="#e6b4ab" d="M 30.6875 26.875 L 28.96875 28.546875 C 28.167969 29.324219 27.117188 29.753906 26.003906 29.753906 C 24.886719 29.753906 23.835938 29.324219 23.039062 28.546875 L 21.316406 26.875 L 9.554688 38.320312 C 10.261719 38.839844 11.132812 39.148438 12.074219 39.148438 L 39.929688 39.148438 C 40.875 39.148438 41.746094 38.839844 42.449219 38.320312 L 30.6875 26.875 " fill-opacity="1" fill-rule="nonzero"/></g></svg>