<svg xmlns="http://www.w3.org/2000/svg" xmlns:xlink="http://www.w3.org/1999/xlink" width="70" zoomAndPan="magnify" viewBox="0 0 52.5 52.499999" height="70" preserveAspectRatio="xMidYMid meet" version="1.0"><defs><clipPath id="ba7c715961"><path d="M 16 17 L 38 17 L 38 46.84375 L 16 46.84375 Z M 16 17 " clip-rule="nonzero"/></clipPath><clipPath id="7ed83aed04"><path d="M 15.777344 4 L 38.808594 4 L 38.808594 35 L 15.777344 35 Z M 15.777344 4 " clip-rule="nonzero"/></clipPath><clipPath id="ecd2fbf967"><path d="M 23 17 L 31 17 L 31 46.84375 L 23 46.84375 Z M 23 17 " clip-rule="nonzero"/></clipPath><clipPath id="f6da13c7ae"><path d="M 27 2.269531 L 28 2.269531 L 28 6 L 27 6 Z M 27 2.269531 " clip-rule="nonzero"/></clipPath><clipPath id="438bda2641"><path d="M 26 2.269531 L 29 2.269531 L 29 4 L 26 4 Z M 26 2.269531 " clip-rule="nonzero"/></clipPath></defs><g clip-path="url(#ba7c715961)"><path fill="#f7f3f0" d="M 30.835938 27.910156 L 30.835938 18.914062 L 31.113281 18.914062 L 31.113281 17.039062 L 23.519531 17.039062 L 23.519531 18.914062 L 23.796875 18.914062 L 23.796875 27.910156 L 16.875 34.21875 L 16.875 46.214844 L 23.785156 46.214844 L 23.785156 46.203125 L 23.796875 46.203125 L 23.796875 46.214844 L 23.785156 46.214844 L 23.785156 46.800781 L 30.84375 46.800781 L 30.84375 46.214844 L 30.835938 46.214844 L 30.835938 46.203125 L 30.84375 46.203125 L 30.84375 46.214844 L 37.757812 46.214844 L 37.757812 34.21875 Z M 27.070312 42.398438 L 26.84375 42.398438 L 26.84375 41.714844 L 27.070312 41.714844 Z M 27.925781 42.398438 L 27.699219 42.398438 L 27.699219 41.714844 L 27.925781 41.714844 Z M 27.925781 42.398438 " fill-opacity="1" fill-rule="evenodd"/></g><path fill="#abdbf7" d="M 26.285156 19.847656 L 27.308594 19.449219 L 28.3125 19.800781 L 28.621094 20.621094 L 28.621094 24.921875 L 26.011719 24.921875 L 26.011719 20.605469 Z M 26.011719 30.648438 L 26.011719 34.964844 L 28.621094 34.964844 L 28.621094 30.660156 L 28.3125 29.839844 L 27.308594 29.488281 L 26.285156 29.886719 Z M 18.566406 35.769531 L 18.566406 41.972656 L 22.3125 41.972656 L 22.3125 35.789062 L 21.875 34.609375 L 20.429688 34.101562 L 18.957031 34.679688 Z M 32.320312 35.769531 L 32.320312 41.972656 L 36.066406 41.972656 L 36.066406 35.789062 L 35.625 34.609375 L 34.183594 34.101562 L 32.707031 34.679688 Z M 32.320312 35.769531 " fill-opacity="1" fill-rule="evenodd"/><path fill="#f7ece1" d="M 25.839844 25.023438 L 28.792969 25.023438 L 28.792969 25.617188 L 25.839844 25.617188 Z M 25.839844 35.65625 L 28.792969 35.65625 L 28.792969 35.0625 L 25.839844 35.0625 Z M 18.316406 42.96875 L 22.5625 42.96875 L 22.5625 42.117188 L 18.316406 42.117188 Z M 32.070312 42.96875 L 36.316406 42.96875 L 36.316406 42.117188 L 32.070312 42.117188 Z M 32.070312 42.96875 " fill-opacity="1" fill-rule="evenodd"/><path fill="#e6b4ab" d="M 25.296875 45.734375 L 25.296875 40.441406 C 25.296875 37.347656 29.335938 37.347656 29.335938 40.441406 L 29.335938 45.734375 Z M 28.515625 20.703125 L 28.515625 20.761719 L 28.515625 20.75 C 28.515625 20.734375 28.515625 20.71875 28.515625 20.703125 Z M 27.316406 19.316406 C 26.550781 19.320312 25.933594 19.9375 25.929688 20.703125 L 25.929688 25.03125 L 28.703125 25.03125 L 28.703125 20.703125 C 28.699219 19.9375 28.082031 19.320312 27.316406 19.316406 Z M 27.226562 24.820312 L 26.125 24.820312 L 26.125 23.578125 L 27.226562 23.578125 Z M 27.226562 23.480469 L 26.125 23.480469 L 26.125 22.273438 L 27.226562 22.273438 Z M 27.226562 22.097656 L 26.125 22.097656 L 26.125 20.859375 L 27.226562 20.859375 Z M 27.226562 20.761719 L 26.125 20.761719 L 26.125 20.707031 L 26.117188 20.707031 C 26.140625 20.097656 26.617188 19.601562 27.226562 19.554688 Z M 28.515625 24.820312 L 27.40625 24.820312 L 27.40625 23.578125 L 28.515625 23.578125 Z M 28.515625 23.480469 L 27.40625 23.480469 L 27.40625 22.273438 L 28.515625 22.273438 Z M 28.515625 22.097656 L 27.40625 22.097656 L 27.40625 20.859375 L 28.515625 20.859375 Z M 28.515625 20.761719 L 27.40625 20.761719 L 27.40625 19.554688 C 28.011719 19.601562 28.488281 20.097656 28.515625 20.703125 C 28.515625 20.71875 28.515625 20.734375 28.515625 20.75 Z M 28.515625 30.789062 L 28.515625 30.800781 L 28.515625 30.742188 C 28.515625 30.757812 28.515625 30.773438 28.515625 30.789062 Z M 26.125 30.746094 L 26.125 30.800781 L 26.117188 30.800781 L 26.117188 30.789062 C 26.117188 30.773438 26.117188 30.761719 26.117188 30.746094 Z M 27.316406 29.355469 C 26.550781 29.359375 25.933594 29.976562 25.929688 30.742188 L 25.929688 35.070312 L 28.703125 35.070312 L 28.703125 30.742188 C 28.699219 29.976562 28.082031 29.359375 27.316406 29.355469 Z M 27.226562 34.859375 L 26.125 34.859375 L 26.125 33.621094 L 27.226562 33.621094 Z M 27.226562 33.519531 L 26.125 33.519531 L 26.125 32.3125 L 27.226562 32.3125 Z M 27.226562 32.136719 L 26.125 32.136719 L 26.125 30.898438 L 27.226562 30.898438 Z M 27.226562 30.800781 L 26.117188 30.800781 L 26.117188 30.789062 C 26.117188 30.773438 26.117188 30.761719 26.117188 30.746094 C 26.140625 30.136719 26.617188 29.640625 27.226562 29.59375 Z M 28.515625 34.859375 L 27.40625 34.859375 L 27.40625 33.621094 L 28.515625 33.621094 Z M 28.515625 33.519531 L 27.40625 33.519531 L 27.40625 32.3125 L 28.515625 32.3125 Z M 28.515625 32.136719 L 27.40625 32.136719 L 27.40625 30.898438 L 28.515625 30.898438 Z M 28.515625 30.800781 L 27.40625 30.800781 L 27.40625 29.59375 C 28.011719 29.640625 28.488281 30.132812 28.515625 30.742188 C 28.515625 30.757812 28.515625 30.773438 28.515625 30.789062 Z M 27.40625 29.460938 L 27.40625 29.59375 C 27.375 29.59375 27.347656 29.589844 27.316406 29.589844 C 27.285156 29.589844 27.257812 29.59375 27.226562 29.59375 L 27.226562 29.460938 Z M 27.40625 29.460938 L 27.40625 29.59375 C 27.375 29.59375 27.347656 29.589844 27.316406 29.589844 C 27.285156 29.589844 27.257812 29.59375 27.226562 29.59375 L 27.226562 29.460938 Z M 18.726562 35.910156 L 18.726562 35.988281 L 18.714844 35.988281 L 18.714844 35.972656 C 18.714844 35.953125 18.714844 35.929688 18.71875 35.910156 Z M 20.441406 33.914062 C 19.339844 33.917969 18.449219 34.808594 18.449219 35.90625 L 18.449219 42.125 L 22.433594 42.125 L 22.433594 35.90625 C 22.429688 34.808594 21.539062 33.917969 20.441406 33.914062 Z M 20.3125 38.167969 L 20.3125 39.898438 L 18.726562 39.898438 L 18.726562 38.167969 Z M 18.726562 37.910156 L 18.726562 36.128906 L 20.3125 36.128906 L 20.3125 37.910156 Z M 18.71875 35.972656 C 18.71875 35.953125 18.71875 35.929688 18.71875 35.910156 C 18.75 35.035156 19.4375 34.324219 20.3125 34.257812 L 20.3125 35.988281 L 18.714844 35.988281 Z M 18.726562 40.039062 L 20.3125 40.039062 L 20.3125 41.824219 L 18.726562 41.824219 Z M 22.164062 41.820312 L 20.570312 41.824219 L 20.570312 40.039062 L 22.164062 40.039062 Z M 22.164062 39.898438 L 20.570312 39.898438 L 20.570312 38.167969 L 22.164062 38.167969 Z M 22.164062 37.910156 L 20.570312 37.910156 L 20.570312 36.128906 L 22.164062 36.128906 Z M 22.164062 35.988281 L 20.570312 35.988281 L 20.570312 34.257812 C 21.464844 34.324219 22.160156 35.074219 22.164062 35.972656 Z M 34.191406 33.914062 C 33.09375 33.917969 32.203125 34.808594 32.199219 35.90625 L 32.199219 42.125 L 36.183594 42.125 L 36.183594 35.90625 C 36.179688 34.808594 35.292969 33.917969 34.191406 33.914062 Z M 34.0625 41.824219 L 32.476562 41.824219 L 32.476562 40.039062 L 34.0625 40.039062 Z M 34.0625 39.898438 L 32.476562 39.898438 L 32.476562 38.167969 L 34.0625 38.167969 Z M 34.0625 37.910156 L 32.476562 37.910156 L 32.476562 36.128906 L 34.0625 36.128906 Z M 34.0625 35.988281 L 32.476562 35.988281 L 32.476562 35.910156 L 32.46875 35.910156 C 32.503906 35.035156 33.1875 34.324219 34.0625 34.257812 Z M 35.914062 41.820312 L 34.320312 41.824219 L 34.320312 40.039062 L 35.914062 40.039062 Z M 35.914062 39.898438 L 34.320312 39.898438 L 34.320312 38.167969 L 35.914062 38.167969 Z M 35.914062 37.910156 L 34.320312 37.910156 L 34.320312 36.128906 L 35.914062 36.128906 Z M 35.914062 35.988281 L 34.320312 35.988281 L 34.320312 34.257812 C 35.21875 34.324219 35.914062 35.074219 35.914062 35.972656 Z M 35.914062 35.988281 " fill-opacity="1" fill-rule="nonzero"/><g clip-path="url(#7ed83aed04)"><path fill="#996535" d="M 38.851562 34.21875 L 37.757812 34.21875 L 30.675781 27.765625 L 23.957031 27.765625 L 16.875 34.21875 L 15.78125 34.21875 L 23.34375 27.382812 L 23.332031 27.382812 L 23.796875 26.339844 L 30.835938 26.339844 L 31.300781 27.382812 L 31.289062 27.382812 Z M 29.933594 17.152344 L 27.316406 4.441406 L 24.699219 17.152344 Z M 29.933594 17.152344 " fill-opacity="1" fill-rule="evenodd"/></g><path fill="#f7ece1" d="M 27.070312 42.398438 L 26.84375 42.398438 L 26.84375 41.714844 L 27.070312 41.714844 Z M 27.925781 41.714844 L 27.699219 41.714844 L 27.699219 42.398438 L 27.925781 42.398438 Z M 27.925781 41.714844 " fill-opacity="1" fill-rule="evenodd"/><g clip-path="url(#ecd2fbf967)"><path fill="#f7ece1" d="M 23.796875 17.234375 L 24.96875 17.234375 L 24.96875 46.214844 L 23.796875 46.214844 Z M 29.664062 17.234375 L 30.835938 17.234375 L 30.835938 46.214844 L 29.664062 46.214844 Z M 29.664062 17.234375 " fill-opacity="1" fill-rule="evenodd"/></g><path fill="#f7ece1" d="M 23.519531 17.039062 L 31.113281 17.039062 L 31.113281 18.914062 L 23.519531 18.914062 Z M 23.519531 17.039062 " fill-opacity="1" fill-rule="nonzero"/><g clip-path="url(#f6da13c7ae)"><path fill="#f7ece1" d="M 27.160156 2.269531 L 27.472656 2.269531 L 27.472656 5.214844 L 27.160156 5.214844 Z M 27.160156 2.269531 " fill-opacity="1" fill-rule="nonzero"/></g><g clip-path="url(#438bda2641)"><path fill="#f7ece1" d="M 26.101562 2.953125 L 28.535156 2.953125 L 28.535156 3.265625 L 26.101562 3.265625 Z M 26.101562 2.953125 " fill-opacity="1" fill-rule="nonzero"/></g></svg>